<?xml version="1.0" encoding="utf-8"?>
<!-- Generator: Adobe Illustrator 23.0.5, SVG Export Plug-In . SVG Version: 6.00 Build 0)  -->
<svg version="1.1" id="Layer_1" xmlns="http://www.w3.org/2000/svg" xmlns:xlink="http://www.w3.org/1999/xlink" x="0px" y="0px"
	 viewBox="0 0 1712.9 838.2" style="enable-background:new 0 0 1712.9 838.2;" xml:space="preserve">
<rect x="72.9" y="109.4" width="18.2" height="18.2"/>
<rect x="91.1" y="91.2" width="18.2" height="18.2"/>
<rect x="72.9" y="72.9" width="18.2" height="18.2"/>
<rect x="18.3" y="72.9" width="18.2" height="18.2"/>
<rect y="54.7" width="18.2" height="18.2"/>
<rect x="36.5" y="109.4" width="18.2" height="18.2"/>
<rect x="36.5" y="91.2" width="36.4" height="18.2"/>
<rect x="91.1" y="54.7" width="18.2" height="18.2"/>
<rect y="36.5" width="109.3" height="18.2"/>
<rect x="18.3" y="18.3" width="18.2" height="18.2"/>
<rect x="36.5" width="36.4" height="18.2"/>
<rect x="54.7" y="18.3" width="36.4" height="18.2"/>
<rect x="18.3" y="127.6" width="18.2" height="583.1"/>
<rect x="54.7" y="127.6" width="18.2" height="583.1"/>
<rect x="72.9" y="801.8" width="18.2" height="18.2"/>
<rect x="18.3" y="801.8" width="18.2" height="18.2"/>
<rect x="0.1" y="783.6" width="18.2" height="18.2"/>
<rect x="36.5" y="820" width="36.4" height="18.2"/>
<rect x="91.1" y="783.6" width="18.2" height="18.2"/>
<rect x="0.1" y="765.3" width="109.3" height="18.2"/>
<rect x="18.3" y="747.1" width="18.2" height="18.2"/>
<rect x="36.5" y="728.9" width="36.4" height="18.2"/>
<rect x="54.7" y="747.1" width="36.4" height="18.2"/>
<rect x="36.5" y="710.7" width="18.2" height="18.2"/>
<rect x="1676.5" y="801.8" width="18.2" height="18.2"/>
<rect x="1621.8" y="801.8" width="18.2" height="18.2"/>
<rect x="1603.6" y="783.6" width="18.2" height="18.2"/>
<rect x="1640" y="820" width="36.4" height="18.2"/>
<rect x="1694.7" y="783.6" width="18.2" height="18.2"/>
<rect x="1603.6" y="765.3" width="109.3" height="18.2"/>
<rect x="1621.8" y="747.1" width="18.2" height="18.2"/>
<rect x="1640" y="728.9" width="36.4" height="18.2"/>
<rect x="1658.3" y="747.1" width="36.4" height="18.2"/>
<rect x="1603.6" y="728.9" width="18.2" height="18.2"/>
<rect x="1621.8" y="109.4" width="18.2" height="619.5"/>
<rect x="1658.3" y="109.4" width="18.2" height="619.5"/>
<rect x="1676.5" y="72.9" width="18.2" height="18.2"/>
<rect x="1621.8" y="72.9" width="18.2" height="18.2"/>
<rect x="1603.6" y="54.7" width="18.2" height="18.2"/>
<rect x="1640.1" y="91.2" width="36.4" height="18.2"/>
<rect x="1694.7" y="54.7" width="18.2" height="18.2"/>
<rect x="1603.6" y="36.5" width="109.3" height="18.2"/>
<rect x="1621.8" y="18.3" width="18.2" height="18.2"/>
<rect x="1640.1" width="36.4" height="18.2"/>
<rect x="1658.3" y="18.3" width="36.4" height="18.2"/>
<rect x="1603.6" y="91.2" width="18.2" height="18.2"/>
<rect x="1585.4" y="72.9" width="18.2" height="18.2"/>
<rect x="109.3" y="72.9" width="1476.1" height="36.5"/>
<rect x="109.3" y="18.3" width="1494.2" height="18.2"/>
<rect x="127.5" y="801.8" width="1457.9" height="36.5"/>
<rect x="109.3" y="747.2" width="1494.2" height="18.2"/>
<rect x="109.3" y="801.9" width="18.2" height="18.2"/>
<rect x="1585.4" y="801.8" width="18.2" height="18.2"/>
</svg>
