<?xml version="1.0" encoding="utf-8"?>
<!-- Generator: Adobe Illustrator 23.0.5, SVG Export Plug-In . SVG Version: 6.00 Build 0)  -->
<svg version="1.1" id="Layer_4" xmlns="http://www.w3.org/2000/svg" xmlns:xlink="http://www.w3.org/1999/xlink" x="0px" y="0px"
	 viewBox="0 0 5 7" style="enable-background:new 0 0 5 7;" xml:space="preserve">
<rect y="1" width="1" height="1"/>
<rect x="1" y="1" width="1" height="1"/>
<rect x="2" y="1" width="1" height="1"/>
<rect y="2" width="1" height="1"/>
<rect x="1" y="2" width="1" height="1"/>
<rect x="2" y="2" width="1" height="1"/>
<rect x="3" y="2" width="1" height="1"/>
<rect y="3" width="1" height="1"/>
<rect x="1" y="3" width="1" height="1"/>
<rect x="2" y="3" width="1" height="1"/>
<rect x="3" y="3" width="1" height="1"/>
<rect x="4" y="3" width="1" height="1"/>
<rect y="4" width="1" height="1"/>
<rect x="1" y="4" width="1" height="1"/>
<rect x="2" y="4" width="1" height="1"/>
<rect x="3" y="4" width="1" height="1"/>
<rect y="5" width="1" height="1"/>
<rect x="1" y="5" width="1" height="1"/>
<rect x="2" y="5" width="1" height="1"/>
<rect x="1" y="6" width="1" height="1"/>
<rect y="6" width="1" height="1"/>
<rect x="1" width="1" height="1"/>
<rect width="1" height="1"/>
</svg>
