<svg id="Purple_case" data-name="Purple case" xmlns="http://www.w3.org/2000/svg" viewBox="0 0 1020.91 1771.46"><defs><style>.cls-1{fill:#9064a3;}.cls-1,.cls-2{opacity:0.49;}.cls-2,.cls-3{fill:none;stroke:#9064a3;stroke-miterlimit:10;stroke-width:14px;}.cls-4,.cls-5{fill:#fff;}.cls-5{font-size:27px;font-family:TTNorms-Regular, TT Norms;}.cls-6{letter-spacing:-0.02em;}</style></defs><title>case</title><path class="cls-1" d="M971.16,20.91H49.75c-20.82,0-37.7,17.11-37.7,38.22V1618.67c0,38.51,25.66,72.14,62.42,81.81,113.08,29.75,260.39,49.77,433.08,50.07,175.36.29,324.76-20,439-50.09,36.72-9.67,62.33-43.32,62.33-81.79V59.13C1008.86,38,992,20.91,971.16,20.91ZM66.23,340.53a25.08,25.08,0,1,1,25.08,25.09A25.08,25.08,0,0,1,66.23,340.53ZM336,1210.72a13.92,13.92,0,0,1-13.92,13.92H262a5.93,5.93,0,0,0-5.93,5.93v61.15a13.92,13.92,0,0,1-13.92,13.92H178.94A13.92,13.92,0,0,1,165,1291.72v-61.15a5.92,5.92,0,0,0-5.93-5.93H97.94A13.92,13.92,0,0,1,84,1210.72v-63.16a13.92,13.92,0,0,1,13.92-13.92h61.15a5.92,5.92,0,0,0,5.93-5.93v-60.15a13.92,13.92,0,0,1,13.92-13.92H242.1A13.92,13.92,0,0,1,256,1067.56v60.15a5.93,5.93,0,0,0,5.93,5.93H322.1A13.92,13.92,0,0,1,336,1147.56ZM143.57,792.23V139.15H880.35V792.23Zm545.47,458a54.89,54.89,0,1,1,54.89-54.89A54.89,54.89,0,0,1,689,1250.26Zm58.56,386.49a7,7,0,1,1,7-7A7,7,0,0,1,747.6,1636.75Zm1-56.5a7,7,0,1,1,7-7A7,7,0,0,1,748.62,1580.25Zm.83-58a7,7,0,1,1,7-7A7,7,0,0,1,749.45,1522.26Zm27.18,137.94a7,7,0,1,1,7-7A7,7,0,0,1,776.63,1660.2Zm1-56.5a7,7,0,1,1,7-7A7,7,0,0,1,777.66,1603.7Zm.82-58a7,7,0,1,1,7-7A7,7,0,0,1,778.48,1545.71Zm0-59.25a7,7,0,1,1,7-7A7,7,0,0,1,778.48,1486.46Zm27.18,197.18a7,7,0,1,1,7-7A7,7,0,0,1,805.66,1683.64Zm1-56.49a7,7,0,1,1,7-7A7,7,0,0,1,806.69,1627.15Zm.82-58a7,7,0,1,1,7-7A7,7,0,0,1,807.51,1569.15Zm0-59.24a7,7,0,1,1,7-7A7,7,0,0,1,807.51,1509.91Zm28.21,140.68a7,7,0,1,1,7-7A7,7,0,0,1,835.72,1650.59Zm.82-58a7,7,0,1,1,7-7A7,7,0,0,1,836.54,1592.6Zm0-59.25a7,7,0,1,1,7-7A7,7,0,0,1,836.54,1533.35Zm0-58a7,7,0,1,1,7-7A7,7,0,0,1,836.54,1475.36ZM864.75,1674a7,7,0,1,1,7-7A7,7,0,0,1,864.75,1674Zm.82-58a7,7,0,1,1,7-7A7,7,0,0,1,865.57,1616.05Zm0-59.25a7,7,0,1,1,7-7A7,7,0,0,1,865.57,1556.8Zm0-58a7,7,0,1,1,7-7A7,7,0,0,1,865.57,1498.81Zm29,140.69a7,7,0,1,1,7-7A7,7,0,0,1,894.6,1639.5Zm0-59.25a7,7,0,1,1,7-7A7,7,0,0,1,894.6,1580.25Zm0-58a7,7,0,1,1,7-7A7,7,0,0,1,894.6,1522.26Zm0-58.13a7,7,0,1,1,7-7A7,7,0,0,1,894.6,1464.13Zm-20.77-275.7a54.89,54.89,0,1,1,54.89-54.89A54.89,54.89,0,0,1,873.83,1188.43Zm49.8,474.51a7,7,0,1,1,7-7A7,7,0,0,1,923.63,1662.94Zm0-59.24a7,7,0,1,1,7-7A7,7,0,0,1,923.63,1603.7Zm0-58a7,7,0,1,1,7-7A7,7,0,0,1,923.63,1545.71Zm0-58.13a7,7,0,1,1,7-7A7,7,0,0,1,923.63,1487.58Zm29,139.57a7,7,0,1,1,7-7A7,7,0,0,1,952.66,1627.15Zm0-58a7,7,0,1,1,7-7A7,7,0,0,1,952.66,1569.15Zm0-58.13a7,7,0,1,1,7-7A7,7,0,0,1,952.66,1511Z"/><path class="cls-1" d="M982.3,0H38.61C17.29,0,0,17.53,0,39.15V1636.39c0,39.44,26.28,73.88,63.93,83.79,115.81,30.47,266.68,51,443.55,51.28,179.6.29,332.61-20.53,449.59-51.3,37.61-9.91,63.84-44.37,63.84-83.77V39.15C1020.91,17.53,1003.63,0,982.3,0ZM336,1210.72a13.92,13.92,0,0,1-13.92,13.92H262a5.93,5.93,0,0,0-5.93,5.93v61.15a13.92,13.92,0,0,1-13.92,13.92H178.94A13.92,13.92,0,0,1,165,1291.72v-61.15a5.92,5.92,0,0,0-5.93-5.93H97.94A13.92,13.92,0,0,1,84,1210.72v-63.16a13.92,13.92,0,0,1,13.92-13.92h61.15a5.92,5.92,0,0,0,5.93-5.93v-60.15a13.92,13.92,0,0,1,13.92-13.92H242.1A13.92,13.92,0,0,1,256,1067.56v60.15a5.93,5.93,0,0,0,5.93,5.93H322.1A13.92,13.92,0,0,1,336,1147.56ZM66.23,340.53a25.08,25.08,0,1,1,25.08,25.09A25.08,25.08,0,0,1,66.23,340.53Zm807.6,847.9a54.89,54.89,0,1,1,54.89-54.89A54.89,54.89,0,0,1,873.83,1188.43ZM143.57,792.23V139.15H880.35V792.23ZM689,1140.48a54.89,54.89,0,1,1-54.88,54.89A54.89,54.89,0,0,1,689,1140.48Z"/><path class="cls-2" d="M971.16,20.91H49.75c-20.82,0-37.7,17.11-37.7,38.22V1618.67c0,38.51,25.66,72.14,62.42,81.81,113.08,29.75,260.39,49.77,433.08,50.07,175.36.29,324.76-20,439-50.09,36.72-9.67,62.33-43.32,62.33-81.79V59.13C1008.86,38,992,20.91,971.16,20.91ZM66.23,340.53a25.08,25.08,0,1,1,25.08,25.09A25.08,25.08,0,0,1,66.23,340.53Zm77.34,451.7V139.15H880.35V792.23Z"/><circle class="cls-3" cx="209.47" cy="1179.54" r="168.81"/><circle class="cls-3" cx="76.45" cy="1353.77" r="18.1"/><circle class="cls-3" cx="341.6" cy="1381.74" r="18.1"/><circle class="cls-3" cx="436.18" cy="1196.58" r="18.1"/><circle class="cls-3" cx="693.13" cy="1392.83" r="18.1"/><circle class="cls-3" cx="803.43" cy="1252.92" r="18.1"/><circle class="cls-3" cx="945.55" cy="1289.13" r="18.1"/><circle class="cls-3" cx="689.31" cy="1195.54" r="62.85"/><circle class="cls-3" cx="873.83" cy="1133.7" r="62.85"/><line class="cls-3" x1="434.49" y1="1749.22" x2="434.49" y2="1636.6"/><line class="cls-3" x1="582.99" y1="1749.38" x2="582.99" y2="1636.75"/><path class="cls-3" d="M1008.86,1444H962.47a162.49,162.49,0,1,0-230.91,226.4V1739"/><path d="M929.74,93.54H85.12a31.18,31.18,0,0,0-31.19,31.19v698.6a52.21,52.21,0,0,0,47.31,52C224.63,887,359.72,894.46,504.93,894.54c147.14.09,283.91-7.39,408.69-19.24a52.22,52.22,0,0,0,47.31-52V124.73A31.18,31.18,0,0,0,929.74,93.54ZM91.31,353.78a12.9,12.9,0,1,1,12.9-12.9A12.9,12.9,0,0,1,91.31,353.78ZM803.93,699.17a8.37,8.37,0,0,1-8.37,8.37H214.3a8.37,8.37,0,0,1-8.37-8.37V184.91a8.37,8.37,0,0,1,8.37-8.37H795.56a8.37,8.37,0,0,1,8.37,8.37Z"/><path class="cls-4" d="M180.88,340.53a14,14,0,0,1-10.61,13.56.8.8,0,0,1-.78-1.31,18.43,18.43,0,0,0,0-24.5.8.8,0,0,1,.78-1.31A14,14,0,0,1,180.88,340.53Z"/><path class="cls-4" d="M156,340.53c0,6.56-4.85,12.05-11.4,13.56a.81.81,0,0,1-.84-1.31,17.48,17.48,0,0,0,0-24.5.81.81,0,0,1,.84-1.31C151.18,328.48,156,334,156,340.53Z"/><path class="cls-4" d="M130.91,340.53c0,6.56-4.85,12.05-11.4,13.56a.81.81,0,0,1-.84-1.31,17.48,17.48,0,0,0,0-24.5.81.81,0,0,1,.84-1.31C126.06,328.48,130.91,334,130.91,340.53Z"/><text class="cls-5" transform="translate(78.41 392.26) scale(0.97 1)">P<tspan class="cls-6" x="17.55" y="0">O</tspan><tspan x="39.68" y="0">WER</tspan></text></svg>