<svg id="Purple_case" data-name="Purple case" xmlns="http://www.w3.org/2000/svg" viewBox="0 0 1016.81 1749.64"><defs><style>.cls-1{fill:#9064a3;opacity:0.49;}.cls-2,.cls-3{fill:none;stroke:#9064a3;}.cls-2,.cls-3,.cls-4{stroke-miterlimit:10;}.cls-2{stroke-width:20px;}.cls-3{stroke-width:18px;}.cls-4{fill:#ff0af4;stroke:#8e00df;stroke-width:2px;opacity:0.28;}</style></defs><title>case</title><path class="cls-1" d="M969.11,10H47.7C26.88,10,10,27.11,10,48.22V1607.76c0,38.51,25.66,72.14,62.42,81.81,113.08,29.75,260.39,49.77,433.08,50.07,175.36.29,324.76-20,439-50.09,36.72-9.67,62.33-43.32,62.33-81.79V48.22C1006.81,27.11,989.94,10,969.11,10ZM745.55,1625.84a7,7,0,1,1,7-7A7,7,0,0,1,745.55,1625.84Zm1-56.5a7,7,0,1,1,7-7A7,7,0,0,1,746.57,1569.34Zm.83-58a7,7,0,1,1,7-7A7,7,0,0,1,747.4,1511.35Zm27.18,137.94a7,7,0,1,1,7-7A7,7,0,0,1,774.58,1649.29Zm1-56.5a7,7,0,1,1,7-7A7,7,0,0,1,775.61,1592.79Zm.82-58a7,7,0,1,1,7-7A7,7,0,0,1,776.43,1534.8Zm0-59.25a7,7,0,1,1,7-7A7,7,0,0,1,776.43,1475.55Zm27.18,197.18a7,7,0,1,1,7-7A7,7,0,0,1,803.61,1672.73Zm1-56.49a7,7,0,1,1,7-7A7,7,0,0,1,804.64,1616.24Zm.82-58a7,7,0,1,1,7-7A7,7,0,0,1,805.46,1558.24Zm0-59.24a7,7,0,1,1,7-7A7,7,0,0,1,805.46,1499Zm28.21,140.68a7,7,0,1,1,7-7A7,7,0,0,1,833.67,1639.68Zm.82-58a7,7,0,1,1,7-7A7,7,0,0,1,834.49,1581.69Zm0-59.25a7,7,0,1,1,7-7A7,7,0,0,1,834.49,1522.44Zm0-58a7,7,0,1,1,7-7A7,7,0,0,1,834.49,1464.45Zm28.21,198.68a7,7,0,1,1,7-7A7,7,0,0,1,862.7,1663.13Zm.82-58a7,7,0,1,1,7-7A7,7,0,0,1,863.52,1605.14Zm0-59.25a7,7,0,1,1,7-7A7,7,0,0,1,863.52,1545.89Zm0-58a7,7,0,1,1,7-7A7,7,0,0,1,863.52,1487.9Zm29,140.69a7,7,0,1,1,7-7A7,7,0,0,1,892.55,1628.59Zm0-59.25a7,7,0,1,1,7-7A7,7,0,0,1,892.55,1569.34Zm0-58a7,7,0,1,1,7-7A7,7,0,0,1,892.55,1511.35Zm0-58.13a7,7,0,1,1,7-7A7,7,0,0,1,892.55,1453.22Zm29,198.81a7,7,0,1,1,7-7A7,7,0,0,1,921.58,1652Zm0-59.24a7,7,0,1,1,7-7A7,7,0,0,1,921.58,1592.79Zm0-58a7,7,0,1,1,7-7A7,7,0,0,1,921.58,1534.8Zm0-58.13a7,7,0,1,1,7-7A7,7,0,0,1,921.58,1476.67Zm29,139.57a7,7,0,1,1,7-7A7,7,0,0,1,950.61,1616.24Zm0-58a7,7,0,1,1,7-7A7,7,0,0,1,950.61,1558.24Zm0-58.13a7,7,0,1,1,7-7A7,7,0,0,1,950.61,1500.11Z"/><path class="cls-2" d="M1006.81,48.22V1607.76c0,38.47-25.61,72.12-62.33,81.79-114.22,30-263.62,50.38-439,50.09-172.69-.3-320-20.32-433.08-50.07C35.66,1679.9,10,1646.27,10,1607.76V48.22C10,27.11,26.88,10,47.7,10H969.11C989.94,10,1006.81,27.11,1006.81,48.22Z"/><circle class="cls-3" cx="207.93" cy="1164.21" r="163.09"/><circle class="cls-3" cx="434.74" cy="1191.26" r="20.97"/><circle class="cls-3" cx="337.56" cy="1373.96" r="19.8"/><circle class="cls-3" cx="74.33" cy="1344.34" r="19.3"/><circle class="cls-3" cx="798.47" cy="1244.8" r="17.92"/><circle class="cls-3" cx="940.25" cy="1277.68" r="19.18"/><circle class="cls-3" cx="688.18" cy="1384.99" r="15.75"/><path class="cls-4" d="M945.61,57.91H65.29a32.73,32.73,0,0,0-32.51,33V829c0,28.46,21.36,52.21,49.31,54.9C210.7,896.22,351.5,904.1,502.85,904.18c153.36.1,295.91-7.81,426-20.33,27.94-2.69,49.31-26.44,49.31-54.9V90.86A32.73,32.73,0,0,0,945.61,57.91Zm16.29,745.7a52.22,52.22,0,0,1-47.31,52C789.81,867.43,653,874.91,505.9,874.82c-145.21-.08-280.3-7.53-403.69-19.24a52.21,52.21,0,0,1-47.31-52V105A31.18,31.18,0,0,1,86.09,73.82H930.71A31.18,31.18,0,0,1,961.9,105Z"/></svg>