<svg id="Controls" xmlns="http://www.w3.org/2000/svg" viewBox="0 0 1020.91 1771.46"><defs><style>.cls-1{fill:#303030;}.cls-2{fill:#4d4d4d;}.cls-3{fill:none;stroke:#000;stroke-miterlimit:10;}.cls-4{fill:#2e2e30;}</style></defs><title>controls</title><path class="cls-1" d="M362.67,1179.54A152.74,152.74,0,0,1,210,1332.28c-83.69,0-152.32-68.24-152.76-151.93a152,152,0,0,1,30.56-92.47,2.15,2.15,0,0,1,3.25-.22l12.5,12.5a9,9,0,0,0,12.73,0l11.62-11.63a9,9,0,0,0,0-12.73L115,1063a2.17,2.17,0,0,1,.17-3.23,152.74,152.74,0,0,1,247.49,119.81Z"/><path d="M335.93,1147.46v63.16A13.92,13.92,0,0,1,322,1224.54H261.86a5.92,5.92,0,0,0-5.93,5.93v61.15A13.92,13.92,0,0,1,242,1305.54H178.85a13.92,13.92,0,0,1-13.92-13.92v-61.15a5.92,5.92,0,0,0-5.93-5.93H97.85a13.92,13.92,0,0,1-13.92-13.92v-63.16a13.92,13.92,0,0,1,13.92-13.92H159a5.93,5.93,0,0,0,5.93-5.93v-60.15a13.92,13.92,0,0,1,13.92-13.92H242a13.92,13.92,0,0,1,13.92,13.92v60.15a5.93,5.93,0,0,0,5.93,5.93H322A13.92,13.92,0,0,1,335.93,1147.46Z"/><path class="cls-2" d="M330.93,1150v58.15A12.82,12.82,0,0,1,318.11,1221H257.74a5.45,5.45,0,0,0-5.46,5.45v61.3a12.82,12.82,0,0,1-12.82,12.82H181.32a12.82,12.82,0,0,1-12.82-12.82v-61.3A5.45,5.45,0,0,0,163,1221H101.75a12.82,12.82,0,0,1-12.82-12.82V1150a12.82,12.82,0,0,1,12.82-12.81H163a5.45,5.45,0,0,0,5.46-5.46v-60.38a12.82,12.82,0,0,1,12.82-12.81h58.14a12.82,12.82,0,0,1,12.82,12.81v60.38a5.45,5.45,0,0,0,5.46,5.46h60.37A12.82,12.82,0,0,1,330.93,1150Z"/><circle cx="209.93" cy="1179.54" r="25"/><path class="cls-3" d="M205.29,1082.77a4.82,4.82,0,0,1,8.35,0l8.53,15.77,8.52,17.76a4.82,4.82,0,0,1-4.18,7.24H192.42a4.82,4.82,0,0,1-4.18-7.24l8.52-17.76Z"/><path class="cls-3" d="M305.69,1175.46a4.82,4.82,0,0,1,0,8.36l-15.76,8.52-17.76,8.52a4.82,4.82,0,0,1-7.24-4.18v-34.09a4.83,4.83,0,0,1,7.24-4.18l17.76,8.53Z"/><path class="cls-3" d="M214.2,1276.3a4.82,4.82,0,0,1-8.36,0l-8.52-15.76-8.52-17.77a4.82,4.82,0,0,1,4.17-7.23h34.1a4.82,4.82,0,0,1,4.18,7.23l-8.53,17.77Z"/><path class="cls-3" d="M113.17,1183.82a4.82,4.82,0,0,1,0-8.36l15.76-8.52,17.76-8.53a4.83,4.83,0,0,1,7.24,4.18v34.09a4.82,4.82,0,0,1-7.24,4.18l-17.76-8.52Z"/><path d="M481.05,1470.84v-.3a15.7,15.7,0,0,0-12.32-15.23,158,158,0,0,0-68.58,0,16,16,0,0,0,.12,31.09,158,158,0,0,0,68.58,0,15.59,15.59,0,0,0,12.2-15.23Z"/><path class="cls-2" d="M479.29,1470.84v-.28a14.73,14.73,0,0,0-11.85-14.17,157,157,0,0,0-66,0,14.76,14.76,0,0,0,.12,28.93,157,157,0,0,0,66,0,14.62,14.62,0,0,0,11.74-14.17Z"/><path d="M631.84,1469.5v-.3A15.69,15.69,0,0,0,619.52,1454a158,158,0,0,0-68.58,0,16,16,0,0,0,.13,31.08,157.75,157.75,0,0,0,68.57,0,15.59,15.59,0,0,0,12.2-15.23Z"/><path class="cls-2" d="M630.09,1469.5v-.28a14.74,14.74,0,0,0-11.86-14.17,157,157,0,0,0-66,0,14.76,14.76,0,0,0,.12,28.93,157,157,0,0,0,66,0,14.63,14.63,0,0,0,11.74-14.17Z"/><path class="cls-4" d="M732.52,1165.17a52.93,52.93,0,0,1-73.67,73.66.36.36,0,0,0-.45,0l-8.93,8.92a3,3,0,0,1-4.32,0l-8.06-8.06a3.07,3.07,0,0,1,0-4.33l8.84-8.83a.35.35,0,0,0,0-.45,52.93,52.93,0,0,1,73.82-73.83.35.35,0,0,0,.45,0l8.81-8.82a3.6,3.6,0,0,1,5.08,0l7.31,7.31a3.6,3.6,0,0,1,0,5.08l-8.88,8.89A.35.35,0,0,0,732.52,1165.17Z"/><path class="cls-4" d="M925.6,1143.49a52.93,52.93,0,0,1-104.18-.69.34.34,0,0,0-.34-.28l-12.62-.09a3.06,3.06,0,0,1-3-3.09l.08-11.39a3.06,3.06,0,0,1,3.08-3l12.5.08a.34.34,0,0,0,.34-.29,52.92,52.92,0,0,1,104.4.69.34.34,0,0,0,.34.29l12.47.08a3.59,3.59,0,0,1,3.57,3.61l-.07,10.34a3.59,3.59,0,0,1-3.61,3.57l-12.58-.08A.35.35,0,0,0,925.6,1143.49Z"/></svg>