<svg id="Controls" xmlns="http://www.w3.org/2000/svg" viewBox="0 0 1020.91 1771.46">
<defs>
<style>.cls-1{fill:#303030;}.cls-2{fill:#4d4d4d;}</style>
</defs>
<title>dpad</title>
<path class="cls-1" d="M362.67,1179.54A152.74,152.74,0,0,1,210,1332.28c-83.69,0-152.32-68.24-152.76-151.93a152,152,0,0,1,30.56-92.47,2.15,2.15,0,0,1,3.25-.22l12.5,12.5a9,9,0,0,0,12.7279.002l.0021-.002,11.62-11.63a9,9,0,0,0,.0021-12.728l-.0021-.002L115,1063a2.17,2.17,0,0,1,.17-3.23,152.74,152.74,0,0,1,247.49,119.81Z"/>
<path d="M335.93,1147.46v63.16a13.92,13.92,0,0,1-13.92,13.92H261.86a5.92,5.92,0,0,0-5.93,5.91v61.17a13.92,13.92,0,0,1-13.92,13.92H178.85a13.92,13.92,0,0,1-13.92-13.92h0v-61.15a5.92,5.92,0,0,0-5.91-5.93H97.85a13.92,13.92,0,0,1-13.92-13.92h0v-63.16a13.92,13.92,0,0,1,13.92-13.92H159a5.93,5.93,0,0,0,5.93-5.93h0v-60.15a13.92,13.92,0,0,1,13.92-13.92H242a13.92,13.92,0,0,1,13.92,13.92h0v60.15a5.93,5.93,0,0,0,5.93,5.93H322a13.92,13.92,0,0,1,13.93,13.91Z"/>
<path class="cls-2" d="M330.93,1150v58.15A12.82,12.82,0,0,1,318.14,1221h-60.4a5.45,5.45,0,0,0-5.46,5.44v61.31a12.82,12.82,0,0,1-12.82,12.82H181.32a12.82,12.82,0,0,1-12.82-12.82v-61.3a5.45,5.45,0,0,0-5.45-5.45l-.05,0H101.75a12.82,12.82,0,0,1-12.82-12.82V1150a12.82,12.82,0,0,1,12.82-12.81H163a5.45,5.45,0,0,0,5.46-5.44v-60.4a12.82,12.82,0,0,1,12.82-12.81h58.14a12.82,12.82,0,0,1,12.82,12.81v60.38a5.45,5.45,0,0,0,5.44,5.46h60.39a12.82,12.82,0,0,1,12.86,12.78Z"/>
<circle cx="209.93" cy="1179.54" r="25"/>
<path d="M192.4058,1124.04a5.32,5.32,0,0,1-4.5982-7.9912l8.5015-17.7246,8.5478-15.8047a5.3218,5.3218,0,0,1,9.2163,0l8.5367,15.7823,8.5307,17.7822a5.3183,5.3183,0,0,1-4.62,7.956H192.4058Zm13.3208-41.0263L197.2,1098.7783l-8.5088,17.7373a4.3849,4.3849,0,0,0-.6025,2.2149,4.3193,4.3193,0,0,0,4.3188,4.31H226.52a4.32,4.32,0,0,0,3.7378-6.4892l-8.5381-17.7949-8.519-15.7481a4.3212,4.3212,0,0,0-7.4736.0059Z"/>
<path d="M269.7646,1202.0156a5.325,5.325,0,0,1-5.3344-5.3369V1162.59a5.3361,5.3361,0,0,1,5.33-5.3242h.0058a5.3346,5.3346,0,0,1,2.6538.711l17.7266,8.5117,15.7925,8.5381a5.3207,5.3207,0,0,1,0,9.2275l-15.771,8.5254-17.7818,8.5322A5.2016,5.2016,0,0,1,269.7646,1202.0156Zm-.0043-43.75a4.3351,4.3351,0,0,0-4.33,4.3252V1196.68a4.32,4.32,0,0,0,6.4887,3.748l17.795-8.539,15.7382-8.5078a4.3209,4.3209,0,0,0-.0058-7.4844l-15.7539-8.5176-17.7388-8.5176a4.3746,4.3746,0,0,0-2.1885-.5957Z"/>
<path d="M210.0107,1279.2188a5.3155,5.3155,0,0,1-4.6045-2.67l-8.5263-15.7715-8.5308-17.7919a5.3166,5.3166,0,0,1,1.9654-7.2325,5.3261,5.3261,0,0,1,2.6552-.7129h34.106a5.32,5.32,0,0,1,4.6074,7.98l-8.5127,17.7373-8.5366,15.792A5.3242,5.3242,0,0,1,210.0107,1279.2188ZM192.97,1236.04a4.32,4.32,0,0,0-3.7373,6.48l8.5376,17.8047,8.5093,15.7383a4.32,4.32,0,0,0,7.4839-.0068l8.5161-15.753,8.5195-17.75a4.3723,4.3723,0,0,0,.5962-2.1972,4.325,4.325,0,0,0-4.32-4.3155H192.97Z"/>
<path d="M149.1108,1202.0117a5.3253,5.3253,0,0,1-2.6718-.7187l-17.7251-8.502-15.793-8.5371a5.3206,5.3206,0,0,1,0-9.2275l15.7715-8.5264,17.7812-8.541a5.3293,5.3293,0,0,1,7.9566,4.63V1196.68a5.3274,5.3274,0,0,1-5.3072,5.332Zm-35.6972-18.6279L129.168,1191.9l17.7382,8.5088a4.3821,4.3821,0,0,0,2.2046.6025h.01a4.3257,4.3257,0,0,0,4.31-4.331V1162.59a4.33,4.33,0,0,0-6.4907-3.746l-17.793,8.5468-15.7388,8.5088a4.3216,4.3216,0,0,0,.0059,7.4844Z"/>
</svg>