<svg id="dpad" xmlns="http://www.w3.org/2000/svg" width="1020.91" height="1771.46" viewBox="0 0 1020.91 1771.46">
<defs>
<style>.cls-1{fill:#303030;}.cls-2{fill:#4d4d4d;}.cls-3{fill:none;stroke:#000;stroke-miterlimit:10;}</style>
</defs><title>Artboard 1</title>
<path class="cls-1" d="M362.67,1179.54A152.74,152.74,0,0,1,210,1332.28c-83.69,0-152.32-68.24-152.76-151.93a152,152,0,0,1,30.56-92.47,2.15,2.15,0,0,1,3.25-.22l12.5,12.5a9,9,0,0,0,12.7279.002l.0021-.002,11.62-11.63a9,9,0,0,0,.0021-12.728l-.0021-.002L115,1063a2.17,2.17,0,0,1,.17-3.23,152.74,152.74,0,0,1,247.49,119.81Z"/>
<path d="M335.93,1147.46v63.16a13.92,13.92,0,0,1-13.92,13.92H261.86a5.92,5.92,0,0,0-5.93,5.91v61.17a13.92,13.92,0,0,1-13.92,13.92H178.85a13.92,13.92,0,0,1-13.92-13.92h0v-61.15a5.92,5.92,0,0,0-5.91-5.93H97.85a13.92,13.92,0,0,1-13.92-13.92h0v-63.16a13.92,13.92,0,0,1,13.92-13.92H159a5.93,5.93,0,0,0,5.93-5.93h0v-60.15a13.92,13.92,0,0,1,13.92-13.92H242a13.92,13.92,0,0,1,13.92,13.92h0v60.15a5.93,5.93,0,0,0,5.93,5.93H322a13.92,13.92,0,0,1,13.93,13.91Z"/>
<path class="cls-2" d="M330.93,1150v58.15A12.82,12.82,0,0,1,318.14,1221h-60.4a5.45,5.45,0,0,0-5.46,5.44v61.31a12.82,12.82,0,0,1-12.82,12.82H181.32a12.82,12.82,0,0,1-12.82-12.82v-61.3a5.45,5.45,0,0,0-5.45-5.45l-.05,0H101.75a12.82,12.82,0,0,1-12.82-12.82V1150a12.82,12.82,0,0,1,12.82-12.81H163a5.45,5.45,0,0,0,5.46-5.44v-60.4a12.82,12.82,0,0,1,12.82-12.81h58.14a12.82,12.82,0,0,1,12.82,12.81v60.38a5.45,5.45,0,0,0,5.44,5.46h60.39a12.82,12.82,0,0,1,12.86,12.78Z"/>
<circle cx="209.93" cy="1179.54" r="25"/>
<path class="cls-3" d="M205.29,1082.77a4.82,4.82,0,0,1,8.35,0l8.53,15.77,8.52,17.76a4.82,4.82,0,0,1-4.18,7.24H192.42a4.82,4.82,0,0,1-4.18-7.24l8.52-17.76Z"/>
<path class="cls-3" d="M305.69,1175.46a4.82,4.82,0,0,1,0,8.36l-15.76,8.52-17.76,8.52a4.82,4.82,0,0,1-7.24-4.18v-34.09a4.83,4.83,0,0,1,7.24-4.18l17.76,8.53Z"/>
<path class="cls-3" d="M214.2,1276.3a4.82,4.82,0,0,1-8.36,0l-8.52-15.76-8.52-17.77a4.82,4.82,0,0,1,4.17-7.23h34.1a4.82,4.82,0,0,1,4.18,7.23l-8.53,17.77Z"/>
<path class="cls-3" d="M113.17,1183.82a4.82,4.82,0,0,1,0-8.36l15.76-8.52,17.76-8.53a4.83,4.83,0,0,1,7.24,4.18v34.09a4.82,4.82,0,0,1-7.24,4.18l-17.76-8.52Z"/></svg>