<svg xmlns="http://www.w3.org/2000/svg" viewBox="0 0 1016.81 1749.64"><defs><style>.cls-1{fill:#00875b;}.cls-2{fill:#5aac77;}.cls-17,.cls-18,.cls-3,.cls-4{fill:none;stroke-miterlimit:10;}.cls-3,.cls-4{stroke:#5aac77;}.cls-18,.cls-3{stroke-width:3px;}.cls-4{stroke-width:4px;}.cls-5{fill:#eeeeeb;}.cls-6{fill:#b2b2b2;}.cls-7{fill:#e5e5e5;}.cls-8{fill:#201b20;}.cls-9{fill:#bbb3a9;}.cls-10{fill:#8c6848;}.cls-11{fill:#dfdbd7;}.cls-12{fill:#1e1b01;}.cls-13{fill:#c3c5ad;}.cls-14{font-size:15px;font-family:Avenir-Medium, Avenir;font-weight:500;letter-spacing:0.2em;}.cls-14,.cls-28{fill:#fff;}.cls-15{fill:#e7a571;}.cls-16{fill:#231912;}.cls-17,.cls-18{stroke:#e5e5e5;}.cls-17{stroke-width:2.5px;}.cls-19{fill:#c59b6d;}.cls-20{fill:#538458;}.cls-21{fill:#1a1a1a;}.cls-22{fill:#333;}.cls-23{fill:#666;}.cls-24{fill:#aa8900;}.cls-25{fill:#753d00;}.cls-26{fill:#3b4eff;}.cls-27{fill:red;}</style></defs><title>extras</title><g id="traces"><path class="cls-1" d="M296.39,1391.63h-190l-18.49,18.49v233l18.49,18.49h190l18.49-18.49v-233Z"/><rect class="cls-2" x="116.88" y="1500.63" width="6" height="97"/><rect class="cls-2" x="127.88" y="1482.63" width="6" height="123"/><path class="cls-2" d="M110.88,1500.63h12v-7.79a7.21,7.21,0,0,0-7.21-7.21H95.88Z"/><rect class="cls-2" x="95.88" y="1468.63" width="12" height="17"/><path class="cls-2" d="M108,1468.63H95.88v-28h16v24.1Z"/><path class="cls-2" d="M130.88,1447.63h-19v17h8.63l10.37-10.37Z"/><path class="cls-2" d="M109.31,1407.63h0a7.57,7.57,0,0,1,7.57,7.57v25.43a0,0,0,0,1,0,0h-21a0,0,0,0,1,0,0v-19.57A13.43,13.43,0,0,1,109.31,1407.63Z"/><polygon class="cls-2" points="116.88 1436.73 124.88 1447.63 124.88 1454.63 108.88 1454.63 108.88 1436.63 116.88 1436.73"/><circle class="cls-2" cx="108.88" cy="1606.63" r="7"/><circle class="cls-2" cx="115.88" cy="1631.63" r="6"/><circle class="cls-2" cx="162.88" cy="1617.63" r="6"/><circle class="cls-2" cx="153.88" cy="1494.63" r="6"/><circle class="cls-2" cx="178.88" cy="1496.63" r="6"/><circle class="cls-2" cx="213.88" cy="1481.63" r="6"/><circle class="cls-2" cx="218.88" cy="1517.63" r="6"/><circle class="cls-2" cx="293.88" cy="1497.63" r="6"/><circle class="cls-2" cx="282.88" cy="1577.63" r="6"/><circle class="cls-2" cx="162.88" cy="1412.63" r="6"/><circle class="cls-2" cx="172.88" cy="1435.63" r="5"/><circle class="cls-2" cx="238.38" cy="1431.13" r="5.5"/><rect class="cls-2" x="112.88" y="1594.63" width="7" height="14" transform="translate(930.76 217.6) rotate(34.63)"/><path class="cls-2" d="M139.88,1528.63h4a0,0,0,0,1,0,0v52a0,0,0,0,1,0,0h0a4,4,0,0,1-4-4v-48A0,0,0,0,1,139.88,1528.63Z"/><rect class="cls-2" x="143.88" y="1577.63" width="14" height="3"/><rect class="cls-2" x="162.88" y="1584.63" width="5" height="33"/><polygon class="cls-2" points="157.88 1577.63 167.88 1584.63 162.88 1584.63 157.88 1580.63 157.88 1577.63"/><rect class="cls-2" x="133.88" y="1513.63" width="39" height="1"/><path class="cls-2" d="M156.88,1524.63h36a0,0,0,0,1,0,0v5a0,0,0,0,1,0,0H160.64a3.76,3.76,0,0,1-3.76-3.76v-1.24A0,0,0,0,1,156.88,1524.63Z"/><rect class="cls-2" x="202.88" y="1529.63" width="5" height="23"/><rect class="cls-2" x="149.88" y="1631.63" width="25" height="5"/><rect class="cls-2" x="229.88" y="1537.63" width="4" height="34"/><rect class="cls-2" x="238.88" y="1554.63" width="4" height="34"/><path class="cls-2" d="M253,1555h5a0,0,0,0,1,0,0v18.11a0,0,0,0,1,0,0h-2.51a2.49,2.49,0,0,1-2.49-2.49V1555A0,0,0,0,1,253,1555Z" transform="translate(1180.77 277.44) rotate(45)"/><rect class="cls-2" x="248.88" y="1523.63" width="3" height="23"/><rect class="cls-2" x="180.88" y="1435.63" width="18" height="5"/><rect class="cls-2" x="197.88" y="1414.63" width="23" height="2"/><rect class="cls-2" x="149.88" y="1473.63" width="29" height="7"/><polygon class="cls-2" points="160.88 1415.63 158.88 1424.63 158.88 1433.63 159.88 1439.63 166.88 1449.63 170.88 1446.63 163.88 1438.63 161.88 1432.63 161.88 1426.63 165.88 1412.63 160.88 1415.63"/><polygon class="cls-2" points="180.88 1435.63 176.07 1431.79 173.88 1437.63 180.88 1440.63 180.88 1435.63"/><path class="cls-3" d="M166.38,1415.13s1.5,4.5,4.5,6.5a27.49,27.49,0,0,0,4.34,2.34,7.36,7.36,0,0,0,3.17.62l16-.46"/><line class="cls-3" x1="188.38" y1="1464.13" x2="213.38" y2="1464.13"/><polyline class="cls-3" points="178.88 1477.92 199.38 1485.13 208.38 1496.13 208.38 1505.13 190.38 1520.13"/><polyline class="cls-3" points="195.38 1528.13 195.38 1534.13 180.38 1548.13"/><polyline class="cls-3" points="181.38 1586.13 181.38 1596.13 188.38 1607.13"/><polyline class="cls-3" points="187.38 1620.13 230.38 1584.13 230.38 1575.13"/><polyline class="cls-4" points="276.88 1552.63 276.88 1543.63 282.88 1535.63 282.88 1507.63 268.88 1492.63"/><polyline class="cls-4" points="262.88 1492.63 262.88 1501.63 270.88 1511.63 270.88 1521.63 261.88 1530.63 261.88 1548.63"/><polyline class="cls-4" points="228.88 1444.63 254.88 1444.63 254.88 1431.63 264.88 1431.63 264.88 1440.63 272.88 1449.63"/><line class="cls-4" x1="225.88" y1="1425.63" x2="237.88" y2="1432.63"/><polyline class="cls-4" points="150.88 1455.63 160.88 1464.63 172.88 1464.63"/><line class="cls-4" x1="151.88" y1="1491.63" x2="142.88" y2="1499.63"/><line class="cls-4" x1="177.88" y1="1499.63" x2="167.88" y2="1513.63"/><polyline class="cls-4" points="115.88 1631.63 124.88 1615.63 130.88 1614.63 130.88 1602.63"/><line class="cls-4" x1="233.88" y1="1532.63" x2="233.88" y2="1501.63"/><line class="cls-4" x1="282.88" y1="1577.63" x2="266.88" y2="1596.63"/><polyline class="cls-4" points="129.88 1631.63 129.88 1647.63 132.88 1650.63 181.88 1650.63 195.88 1636.63"/><polyline class="cls-4" points="233.88 1476.63 233.88 1464.63 237.88 1459.63 242.88 1459.63"/><line class="cls-4" x1="214.88" y1="1482.63" x2="226.88" y2="1492.63"/><line class="cls-4" x1="283.88" y1="1488.63" x2="292.88" y2="1498.63"/></g><g id="solder"><rect class="cls-5" x="136.88" y="1636.63" width="9" height="9" rx="3.16"/><rect class="cls-5" x="171.88" y="1630.63" width="9" height="9" rx="3.16"/><rect class="cls-5" x="191.88" y="1631.63" width="9" height="9" rx="3.16"/><rect class="cls-5" x="183.88" y="1602.63" width="9" height="9" rx="3.16"/><rect class="cls-5" x="138.88" y="1520.63" width="9" height="9" rx="3.16"/><rect class="cls-5" x="138.88" y="1498.63" width="9" height="9" rx="3.16"/><rect class="cls-5" x="165.88" y="1507.63" width="9" height="9" rx="3.16"/><rect class="cls-5" x="124.88" y="1417.63" width="9" height="9" rx="3.16"/><rect class="cls-5" x="163.88" y="1444.63" width="9" height="9" rx="3.16"/><rect class="cls-5" x="184.88" y="1447.63" width="9" height="9" rx="3.16"/><rect class="cls-5" x="199.88" y="1435.63" width="9" height="9" rx="3.16"/><rect class="cls-5" x="207.88" y="1420.63" width="9" height="9" rx="3.16"/><rect class="cls-5" x="207.88" y="1401.63" width="9" height="9" rx="3.16"/><rect class="cls-5" x="222.88" y="1438.63" width="9" height="9" rx="3.16"/><rect class="cls-5" x="229.88" y="1471.63" width="9" height="9" rx="3.16"/><rect class="cls-5" x="241.88" y="1455.63" width="9" height="9" rx="3.16"/><rect class="cls-5" x="267.88" y="1444.63" width="9" height="9" rx="3.16"/><rect class="cls-5" x="266.88" y="1465.63" width="9" height="9" rx="3.16"/><rect class="cls-5" x="190.88" y="1572.63" width="9" height="9" rx="3.16"/><rect class="cls-5" x="162.88" y="1565.63" width="9" height="9" rx="3.16"/><rect class="cls-5" x="162.88" y="1582.63" width="9" height="9" rx="3.16"/><rect class="cls-5" x="127.88" y="1591.63" width="9" height="9" rx="3.16"/><rect class="cls-5" x="126.88" y="1608.63" width="9" height="9" rx="3.16"/><rect class="cls-5" x="145.88" y="1608.63" width="9" height="9" rx="3.16"/><rect class="cls-5" x="238.88" y="1548.63" width="9" height="9" rx="3.16"/><rect class="cls-6" x="271.88" y="1548.63" width="9" height="9" rx="3.16"/><polygon class="cls-7" points="268.94 1621.46 278.44 1626.95 278.44 1615.98 268.94 1621.46"/><polygon class="cls-7" points="270.48 1646.98 279.98 1652.46 279.98 1641.49 270.48 1646.98"/><polygon class="cls-7" points="244.15 1634.98 234.65 1629.49 234.65 1640.46 244.15 1634.98"/></g><g id="Small_PCB" data-name="Small PCB"><rect class="cls-8" x="126.88" y="1618.63" width="24" height="16"/><rect class="cls-8" x="173.88" y="1614.63" width="24" height="16"/><rect class="cls-8" x="246.88" y="1616.63" width="21" height="37"/><rect class="cls-8" x="165.88" y="1458.63" width="25" height="14"/><rect class="cls-8" x="200.88" y="1446.63" width="25" height="14"/><rect class="cls-8" x="248.88" y="1544.63" width="25" height="14"/><rect class="cls-8" x="250.88" y="1447.63" width="17" height="25"/><rect class="cls-8" x="146.88" y="1501.63" width="17" height="25"/><rect class="cls-8" x="170.88" y="1565.63" width="17" height="25"/><rect class="cls-8" x="216.88" y="1401.63" width="17" height="25"/><rect class="cls-8" x="158.88" y="1536.63" width="24" height="17"/><rect class="cls-8" x="223.88" y="1483.63" width="17" height="22"/><path class="cls-9" d="M249.88,1590.63v17h-2.22a2.77,2.77,0,0,1-2.78-2.78v-11.44a2.77,2.77,0,0,1,2.78-2.78Z"/><path class="cls-9" d="M272.88,1593.41v11.44a2.77,2.77,0,0,1-2.78,2.78h-2.22v-17h2.22A2.77,2.77,0,0,1,272.88,1593.41Z"/><rect class="cls-10" x="249.88" y="1590.63" width="18" height="17"/><path class="cls-9" d="M226.88,1622.63h-17v-2.22a2.77,2.77,0,0,1,2.78-2.78H224.1a2.77,2.77,0,0,1,2.78,2.78Z"/><path class="cls-9" d="M224.1,1645.63H212.66a2.77,2.77,0,0,1-2.78-2.78v-2.22h17v2.22A2.77,2.77,0,0,1,224.1,1645.63Z"/><rect class="cls-10" x="209.88" y="1622.63" width="17" height="18"/><path class="cls-9" d="M132.88,1445.63v17h-2.22a2.77,2.77,0,0,1-2.78-2.78v-11.44a2.77,2.77,0,0,1,2.78-2.78Z"/><path class="cls-9" d="M155.88,1448.41v11.44a2.77,2.77,0,0,1-2.78,2.78h-2.22v-17h2.22A2.77,2.77,0,0,1,155.88,1448.41Z"/><rect class="cls-10" x="132.88" y="1445.63" width="18" height="17"/><path class="cls-9" d="M215.88,1569.63v10h-2.22c-1.54,0-2.78-.73-2.78-1.64v-6.72c0-.91,1.24-1.64,2.78-1.64Z"/><path class="cls-9" d="M229.88,1571.27V1578c0,.91-1.24,1.64-2.78,1.64h-2.22v-10h2.22C228.64,1569.63,229.88,1570.36,229.88,1571.27Z"/><rect class="cls-10" x="215.88" y="1569.63" width="9" height="10"/><rect class="cls-11" x="131.88" y="1585.63" width="22" height="11"/><rect class="cls-12" x="136.88" y="1587.63" width="12" height="7"/><rect class="cls-13" x="139.88" y="1589.63" width="1" height="4"/><rect class="cls-13" x="142.27" y="1589.17" width="1" height="4"/><rect class="cls-13" x="144.27" y="1589.17" width="1" height="4"/><rect class="cls-11" x="130.61" y="1561.61" width="22" height="11"/><rect class="cls-12" x="135.61" y="1563.61" width="12" height="7"/><rect class="cls-13" x="138.61" y="1565.61" width="1" height="4"/><rect class="cls-13" x="141" y="1565.15" width="1" height="4"/><rect class="cls-13" x="143" y="1565.15" width="1" height="4"/><rect class="cls-11" x="200.97" y="1549.48" width="22" height="11"/><rect class="cls-12" x="205.97" y="1551.48" width="12" height="7"/><rect class="cls-13" x="208.97" y="1553.48" width="1" height="4"/><rect class="cls-13" x="211.36" y="1553.02" width="1" height="4"/><rect class="cls-13" x="213.36" y="1553.02" width="1" height="4"/><rect class="cls-11" x="216.97" y="1529.48" width="22" height="11"/><rect class="cls-12" x="221.97" y="1531.48" width="12" height="7"/><rect class="cls-13" x="224.97" y="1533.48" width="1" height="4"/><rect class="cls-13" x="227.36" y="1533.02" width="1" height="4"/><rect class="cls-13" x="229.36" y="1533.02" width="1" height="4"/><rect class="cls-11" x="185.97" y="1518.48" width="22" height="11"/><rect class="cls-12" x="190.97" y="1520.48" width="12" height="7"/><rect class="cls-13" x="193.97" y="1522.48" width="1" height="4"/><rect class="cls-13" x="196.36" y="1522.02" width="1" height="4"/><rect class="cls-13" x="198.36" y="1522.02" width="1" height="4"/><rect class="cls-11" x="191.97" y="1494.48" width="22" height="11"/><rect class="cls-12" x="196.97" y="1496.48" width="12" height="7"/><rect class="cls-13" x="199.97" y="1498.48" width="1" height="4"/><rect class="cls-13" x="202.36" y="1498.02" width="1" height="4"/><rect class="cls-13" x="204.36" y="1498.02" width="1" height="4"/><rect class="cls-11" x="247.97" y="1569.48" width="22" height="11"/><rect class="cls-12" x="252.97" y="1571.48" width="12" height="7"/><rect class="cls-13" x="255.97" y="1573.48" width="1" height="4"/><rect class="cls-13" x="258.36" y="1573.02" width="1" height="4"/><rect class="cls-13" x="260.36" y="1573.02" width="1" height="4"/><rect class="cls-11" x="249.97" y="1511.48" width="22" height="11"/><rect class="cls-12" x="254.97" y="1513.48" width="12" height="7"/><rect class="cls-13" x="257.97" y="1515.48" width="1" height="4"/><rect class="cls-13" x="260.36" y="1515.02" width="1" height="4"/><rect class="cls-13" x="262.36" y="1515.02" width="1" height="4"/><rect class="cls-11" x="130.15" y="1473.66" width="22" height="11"/><rect class="cls-12" x="135.15" y="1475.66" width="12" height="7"/><rect class="cls-13" x="138.15" y="1477.66" width="1" height="4"/><rect class="cls-13" x="140.54" y="1477.2" width="1" height="4"/><rect class="cls-13" x="142.54" y="1477.2" width="1" height="4"/><rect class="cls-11" x="252.15" y="1484.66" width="22" height="11"/><rect class="cls-12" x="257.15" y="1486.66" width="12" height="7"/><rect class="cls-13" x="260.15" y="1488.66" width="1" height="4"/><rect class="cls-13" x="262.54" y="1488.2" width="1" height="4"/><rect class="cls-13" x="264.54" y="1488.2" width="1" height="4"/><rect class="cls-11" x="251.15" y="1424.66" width="22" height="11"/><rect class="cls-12" x="256.15" y="1426.66" width="12" height="7"/><rect class="cls-13" x="259.15" y="1428.66" width="1" height="4"/><rect class="cls-13" x="261.54" y="1428.2" width="1" height="4"/><rect class="cls-13" x="263.54" y="1428.2" width="1" height="4"/><rect class="cls-11" x="253.15" y="1404.66" width="22" height="11"/><rect class="cls-12" x="258.15" y="1406.66" width="12" height="7"/><rect class="cls-13" x="261.15" y="1408.66" width="1" height="4"/><rect class="cls-13" x="263.54" y="1408.2" width="1" height="4"/><rect class="cls-13" x="265.54" y="1408.2" width="1" height="4"/><rect class="cls-11" x="128.15" y="1426.66" width="22" height="11"/><rect class="cls-12" x="133.15" y="1428.66" width="12" height="7"/><rect class="cls-13" x="136.15" y="1430.66" width="1" height="4"/><rect class="cls-13" x="138.54" y="1430.2" width="1" height="4"/><rect class="cls-13" x="140.54" y="1430.2" width="1" height="4"/><rect class="cls-11" x="128.15" y="1404.66" width="22" height="11"/><rect class="cls-12" x="133.15" y="1406.66" width="12" height="7"/><rect class="cls-13" x="136.15" y="1408.66" width="1" height="4"/><rect class="cls-13" x="138.54" y="1408.2" width="1" height="4"/><rect class="cls-13" x="140.54" y="1408.2" width="1" height="4"/><rect class="cls-11" x="184.15" y="1409.66" width="22" height="11" transform="translate(1610.31 1220.01) rotate(90)"/><rect class="cls-12" x="189.15" y="1411.66" width="12" height="7" transform="translate(1610.31 1220.01) rotate(90)"/><rect class="cls-13" x="194.15" y="1410.66" width="1" height="4" transform="translate(1607.31 1218.01) rotate(90)"/><rect class="cls-13" x="194.61" y="1413.05" width="1" height="4" transform="translate(1610.16 1219.94) rotate(90)"/><rect class="cls-13" x="194.61" y="1415.05" width="1" height="4" transform="translate(1612.16 1221.94) rotate(90)"/><rect class="cls-11" x="84.88" y="1515.63" width="27" height="7"/><rect class="cls-11" x="84.88" y="1549.63" width="27" height="7"/><rect class="cls-11" x="84.88" y="1584.63" width="27" height="7"/><rect class="cls-11" x="290.88" y="1513.63" width="27" height="7"/><rect class="cls-11" x="290.88" y="1548.63" width="27" height="7"/><rect class="cls-11" x="290.88" y="1582.63" width="27" height="7"/><rect class="cls-11" x="290.88" y="1616.63" width="27" height="7"/><text class="cls-14" transform="translate(198.11 1602.46)">TDK</text><circle class="cls-15" cx="115.88" cy="1631.63" r="6"/><circle class="cls-8" cx="115.93" cy="1631.44" r="4.95"/><circle class="cls-15" cx="163.55" cy="1618.49" r="5.14"/><circle class="cls-8" cx="163.59" cy="1618.33" r="4.24"/><circle class="cls-15" cx="108.64" cy="1606.59" r="5.24"/><circle class="cls-8" cx="108.69" cy="1606.42" r="4.32"/><circle class="cls-15" cx="235.58" cy="1615.43" r="5.3"/><circle class="cls-8" cx="235.63" cy="1615.26" r="4.37"/><circle class="cls-15" cx="283.33" cy="1576.8" r="4.95"/><circle class="cls-8" cx="283.22" cy="1576.68" r="4.08"/><ellipse class="cls-15" cx="219.18" cy="1518.45" rx="4.78" ry="4.84" transform="translate(-838.34 406.97) rotate(-35.36)"/><ellipse class="cls-8" cx="219.12" cy="1518.3" rx="3.94" ry="3.99" transform="translate(-838.26 406.91) rotate(-35.36)"/><circle class="cls-15" cx="293.3" cy="1498.25" r="5.15"/><circle class="cls-8" cx="293.24" cy="1498.09" r="4.24"/><circle class="cls-15" cx="185.81" cy="1559.66" r="5.15"/><circle class="cls-8" cx="185.75" cy="1559.5" r="4.24"/><circle class="cls-15" cx="158.35" cy="1479.29" r="5.15"/><circle class="cls-16" cx="158.28" cy="1479.26" r="3.75"/><circle class="cls-15" cx="154.55" cy="1494.82" r="4.9"/><circle class="cls-16" cx="154.49" cy="1494.79" r="3.57"/><circle class="cls-15" cx="180.02" cy="1497.15" r="4.63"/><circle class="cls-16" cx="179.95" cy="1497.12" r="3.37"/><circle class="cls-15" cx="117.89" cy="1493.88" r="4.63"/><circle class="cls-16" cx="117.83" cy="1493.85" r="3.37"/><circle class="cls-15" cx="117.24" cy="1475.48" r="4.63"/><circle class="cls-16" cx="117.17" cy="1475.45" r="3.37"/><circle class="cls-15" cx="109.05" cy="1421.07" r="4.63"/><circle class="cls-16" cx="108.99" cy="1421.04" r="3.37"/><circle class="cls-15" cx="163.05" cy="1412.07" r="4.63"/><circle class="cls-16" cx="162.99" cy="1412.04" r="3.37"/><circle class="cls-15" cx="179.05" cy="1412.07" r="4.63"/><circle class="cls-16" cx="178.99" cy="1412.04" r="3.37"/><circle class="cls-15" cx="237.86" cy="1431.73" r="4.63"/><circle class="cls-16" cx="237.8" cy="1431.7" r="3.37"/><circle class="cls-15" cx="213.82" cy="1482.79" r="4.63"/><circle class="cls-16" cx="213.76" cy="1482.76" r="3.37"/><circle class="cls-15" cx="172.08" cy="1434.87" r="4.63"/><circle class="cls-16" cx="172.02" cy="1434.84" r="3.37"/><line class="cls-17" x1="283.88" y1="1413.13" x2="283.88" y2="1489.13"/><line class="cls-17" x1="299.38" y1="1413.63" x2="299.38" y2="1488.63"/><line class="cls-17" x1="284.38" y1="1414.13" x2="314.38" y2="1414.13"/><line class="cls-17" x1="283.88" y1="1432.13" x2="313.88" y2="1432.13"/><line class="cls-17" x1="283.88" y1="1451.13" x2="313.88" y2="1451.13"/><line class="cls-17" x1="283.88" y1="1470.13" x2="313.88" y2="1470.13"/><line class="cls-17" x1="283.88" y1="1488.13" x2="313.88" y2="1488.13"/><rect class="cls-7" x="288.38" y="1420.13" width="7" height="6"/><rect class="cls-7" x="302.88" y="1457.63" width="9" height="6"/><rect class="cls-7" x="303.88" y="1476.63" width="7" height="5"/><rect class="cls-7" x="286.88" y="1460.63" width="9" height="5"/><line class="cls-18" x1="303.88" y1="1441.63" x2="312.88" y2="1441.63"/><line class="cls-18" x1="288.38" y1="1456.13" x2="295.38" y2="1456.13"/><circle class="cls-19" cx="307.38" cy="1423.13" r="4"/><circle class="cls-19" cx="290.88" cy="1441.63" r="4"/><circle class="cls-19" cx="290.88" cy="1479.63" r="4"/></g><g id="Speaker"><path class="cls-20" d="M988.88,1538.63v10h-.32Q988.88,1543.67,988.88,1538.63Z"/><path class="cls-21" d="M983.94,1448.63a4.94,4.94,0,0,1,4.94,4.94v85.06q0,5-.32,10a154,154,0,0,1-141.7,143.54,2.79,2.79,0,0,1-3-2.79v-18.75h-15v19.21a2.79,2.79,0,0,1-2.79,2.79H747.82a4.94,4.94,0,0,1-4.94-4.94v-25.56a153.77,153.77,0,0,1-62-121.4c-1.13-85,69-156.1,154-156.1a153.74,153.74,0,0,1,125,64Z"/><circle class="cls-22" cx="834.88" cy="1538.63" r="141"/><circle class="cls-23" cx="834.88" cy="1538.63" r="129"/><circle class="cls-21" cx="834.88" cy="1538.63" r="117"/><circle class="cls-23" cx="834.88" cy="1538.63" r="109"/><circle class="cls-24" cx="834.88" cy="1538.63" r="51"/><circle class="cls-25" cx="834.88" cy="1538.63" r="42"/><circle class="cls-24" cx="834.88" cy="1538.63" r="35"/><circle class="cls-6" cx="834.88" cy="1538.63" r="15"/><path class="cls-6" d="M929.43,1538.63a108,108,0,0,1-1,14.81c-.37,2.46-.76,4.91-1.28,7.34s-1.1,4.85-1.79,7.24a1.08,1.08,0,0,1-2.08-.59.25.25,0,0,0,0-.07c.83-2.29,1.6-4.61,2.22-7s1.18-4.74,1.58-7.15a85.2,85.2,0,0,0,1.26-14.61.55.55,0,1,1,1.1,0Z"/><path class="cls-6" d="M913.05,1595.44a94.73,94.73,0,0,1-9.23,12.14q-2.58,2.85-5.37,5.49c-1.87,1.76-3.8,3.47-5.83,5h0a4.25,4.25,0,1,1-5.23-6.69l.25-.18c2-1.31,3.89-2.66,5.77-4.1s3.7-3,5.46-4.53a94,94,0,0,0,9.95-10.29h0a2.63,2.63,0,0,1,4.24,3.1Z"/><path class="cls-6" d="M865.45,1632.77a91.23,91.23,0,0,1-15.12,3.55c-2.56.39-5.14.62-7.72.78s-5.17.18-7.75.12a4.59,4.59,0,0,1,0-9.18h0c2.34-.06,4.68-.23,7-.45s4.64-.56,6.94-.93a98.49,98.49,0,0,0,13.58-3.31,5,5,0,0,1,3.06,9.42Z"/><path class="cls-6" d="M804.75,1631.26a98.06,98.06,0,0,1-13.8-6.47,100,100,0,0,1-12.6-8.4,2.13,2.13,0,0,1,2.51-3.44,86.4,86.4,0,0,0,26,11.88,3.39,3.39,0,1,1-1.79,6.53c-.1,0-.19-.06-.29-.09Z"/><path class="cls-6" d="M757.47,1594.83a95.18,95.18,0,0,1-7.93-12.75c-1.14-2.24-2.27-4.48-3.27-6.79s-1.92-4.64-2.74-7a2,2,0,0,1,3.81-1.32.19.19,0,0,0,0,.08q1,3.46,2.37,6.83a72.44,72.44,0,0,0,2.92,6.63,91.4,91.4,0,0,0,7.49,12.4,1.65,1.65,0,0,1-2.67,1.94Z"/><path class="cls-6" d="M737.87,1538.59a97.53,97.53,0,0,1,.6-15.27,93.89,93.89,0,0,1,3-15.08h0a4.18,4.18,0,0,1,8,2.33,2,2,0,0,1-.08.26,93.31,93.31,0,0,0-3.86,13.62,91.59,91.59,0,0,0-1.7,14.15h0a3,3,0,0,1-6,0Z"/><path class="cls-6" d="M754.85,1480.42a100,100,0,0,1,21.62-22.28h0a5.45,5.45,0,0,1,6.54,8.71.83.83,0,0,1-.15.11,89.37,89.37,0,0,0-20,19.3h0a5,5,0,0,1-8-5.84Z"/><path class="cls-6" d="M804.08,1443.63a98.45,98.45,0,0,1,15.24-3.71,97.39,97.39,0,0,1,15.63-1.16,5.87,5.87,0,0,1,0,11.74h0a92.14,92.14,0,0,0-13.79,1.11,88.94,88.94,0,0,0-13.47,3.14h0a5.84,5.84,0,0,1-3.6-11.12Z"/><path class="cls-6" d="M865.71,1444a91.69,91.69,0,0,1,14.24,6.35c2.28,1.24,4.48,2.62,6.64,4.05s4.23,3,6.24,4.6a4.48,4.48,0,0,1-5.24,7.26l0,0c-2-1.29-4-2.48-6-3.63s-4.13-2.18-6.24-3.18a96.92,96.92,0,0,0-13-5,5.5,5.5,0,0,1,3.16-10.54l.21.07Z"/><path class="cls-6" d="M913.19,1481.83q2.05,3.21,3.85,6.55c1.19,2.22,2.28,4.5,3.31,6.79s2,4.62,2.81,7,1.58,4.75,2.28,7.14a1.17,1.17,0,0,1-2.22.72c-.82-2.29-1.8-4.52-2.83-6.71s-2.16-4.34-3.36-6.44-2.53-4.11-3.9-6.09-2.84-3.88-4.36-5.72a2.74,2.74,0,1,1,4.22-3.49,2.35,2.35,0,0,1,.19.25Z"/></g><g id="Vol"><path d="M7.44,622.79l-1.6,1.07c0-.67,0-1.35-.06-2Z"/><path d="M7.44,616.75l-1.66,1q0-1,.06-2Z"/><polygon points="7.65 622.79 7.65 622.91 7.44 622.79 7.64 622.65 7.65 622.79"/><path d="M7.86,628.81,6.34,630c-.08-.67-.15-1.35-.21-2Z"/><path d="M7.86,610.73l-1.73.84c.06-.68.13-1.36.21-2Z"/><polygon points="8.08 628.91 7.86 628.81 8.05 628.66 8.07 628.84 8.08 628.91"/><polygon points="8.08 610.62 8.07 610.69 8.05 610.87 7.86 610.73 8.08 610.62"/><path d="M8.7,634.79l-1.44,1.29c-.13-.67-.24-1.34-.35-2Z"/><path d="M8.7,604.75l-1.79.72c.11-.68.22-1.35.35-2Z"/><polygon points="8.92 634.88 8.7 634.79 8.88 634.63 8.89 634.7 8.92 634.88"/><polygon points="8.92 604.66 8.89 604.84 8.88 604.91 8.7 604.75 8.92 604.66"/><path d="M10,598.84l-1.84.6c.16-.67.32-1.33.5-2Z"/><path d="M10,640.7l-1.34,1.39c-.18-.66-.34-1.33-.5-2Z"/><polygon points="10.18 640.77 9.95 640.7 10.12 640.52 10.15 640.61 10.18 640.77"/><polygon points="10.18 598.77 10.15 598.93 10.12 599.02 9.95 598.84 10.18 598.77"/><path d="M11.62,593l-1.88.47c.2-.66.41-1.31.63-2Z"/><polygon points="11.85 592.98 11.82 593.08 11.77 593.22 11.62 593.04 11.85 592.98"/><path d="M13.69,587.37l-1.92.33c.26-.64.51-1.27.78-1.9Z"/><polygon points="13.92 587.33 13.86 587.48 13.83 587.56 13.69 587.37 13.92 587.33"/><polygon points="16.38 581.83 16.32 581.97 16.27 582.06 16.14 581.85 16.38 581.83"/><polygon points="19.21 576.51 19.11 576.69 19.09 576.73 18.98 576.52 19.21 576.51"/><path d="M22.17,571.4l-1.9-.06c.37-.56.74-1.12,1.13-1.67Z"/><polygon points="22.41 571.41 22.33 571.53 22.27 571.62 22.17 571.4 22.41 571.41"/><path d="M25.72,566.51l-1.87-.19c.39-.53.8-1.05,1.23-1.57Z"/><polygon points="25.96 566.54 25.91 566.61 25.8 566.74 25.72 566.51 25.96 566.54"/><polygon points="29.84 561.93 29.75 562.04 29.67 562.12 29.6 561.89 29.84 561.93"/><polygon points="34.03 557.61 33.97 557.67 33.85 557.78 33.8 557.55 34.03 557.61"/><polygon points="43.26 549.88 43.12 549.99 43.06 550.03 43.04 549.79 43.26 549.88"/><path d="M48.05,544.55v1.87l-1.67-.82C46.93,545.24,47.49,544.9,48.05,544.55Z"/><polygon points="48.26 546.52 48.07 546.65 48.05 546.66 48.05 546.42 48.26 546.52"/><path d="M53.41,541.55l-.13,1.85-1.62-.93C52.24,542.15,52.82,541.85,53.41,541.55Z"/><polygon points="53.48 543.52 53.34 543.6 53.26 543.64 53.28 543.4 53.48 543.52"/><polygon points="58.9 540.89 58.81 540.93 58.67 540.99 58.7 540.76 58.9 540.89"/><polygon points="64.49 538.64 64.34 538.7 64.25 538.73 64.3 538.49 64.49 538.64"/><polygon points="76.06 535.34 75.96 535.37 75.82 535.39 75.9 535.17 76.06 535.34"/><path d="M76.52,533.46l-.62,1.71-1.27-1.31C75.26,533.71,75.88,533.58,76.52,533.46Z"/><polygon points="82 534.3 81.82 534.33 81.74 534.34 81.84 534.11 82 534.3"/><polygon points="87.99 533.68 87.84 533.7 87.73 533.7 87.85 533.48 87.99 533.68"/><path d="M94.81,531.78l-.93,1.49L93,531.78h1.86Z"/><path d="M11.62,646.49,10.37,648c-.22-.65-.43-1.31-.63-2Z"/><polygon points="11.85 646.55 11.62 646.49 11.77 646.31 11.82 646.45 11.85 646.55"/><path d="M13.69,652.17l-1.14,1.57c-.27-.63-.53-1.27-.78-1.91Z"/><polygon points="13.92 652.21 13.69 652.17 13.83 651.98 13.86 652.06 13.92 652.21"/><polygon points="16.38 657.71 16.14 657.69 16.27 657.48 16.32 657.57 16.38 657.71"/><path d="M19,663l-.9,1.69c-.35-.58-.69-1.16-1-1.75Z"/><polygon points="19.21 663.02 18.98 663.01 19.09 662.8 19.11 662.84 19.21 663.02"/><path d="M22.17,668.14l-.77,1.73c-.39-.55-.76-1.11-1.13-1.67Z"/><polygon points="22.41 668.13 22.17 668.14 22.27 667.92 22.33 668.01 22.41 668.13"/><path d="M25.72,673l-.64,1.77c-.43-.52-.84-1-1.24-1.57Z"/><polygon points="25.96 672.99 25.72 673.02 25.8 672.79 25.91 672.92 25.96 672.99"/><polygon points="29.84 677.6 29.6 677.64 29.67 677.41 29.75 677.49 29.84 677.6"/><polygon points="34.03 681.93 33.8 681.99 33.85 681.75 33.9 681.79 34.03 681.93"/><path d="M38.29,686,38,687.88c-.51-.42-1-.84-1.52-1.28Z"/><polygon points="38.51 685.95 38.29 686.02 38.32 685.79 38.41 685.86 38.51 685.95"/><path d="M43,689.74l-.13,1.86c-.54-.38-1.07-.76-1.6-1.16Z"/><polygon points="43.26 689.65 43.04 689.74 43.06 689.5 43.12 689.54 43.26 689.65"/><path d="M48.05,693.11V695c-.57-.35-1.13-.7-1.68-1.06Z"/><polygon points="48.26 693.01 48.05 693.11 48.05 692.88 48.17 692.95 48.26 693.01"/><path d="M53.41,698c-.59-.3-1.17-.6-1.75-.92l1.62-.93Z"/><polygon points="53.48 696.02 53.28 696.14 53.26 695.9 53.34 695.94 53.48 696.02"/><polygon points="58.9 698.65 58.7 698.78 58.67 698.55 58.81 698.61 58.9 698.65"/><path d="M59,700.62c-.61-.26-1.2-.52-1.8-.8l1.54-1Z"/><polygon points="64.49 700.9 64.3 701.05 64.25 700.81 64.34 700.84 64.49 700.9"/><path d="M64.68,702.85c-.62-.21-1.23-.43-1.84-.67l1.46-1.13Z"/><polygon points="70.22 702.75 70.04 702.91 69.97 702.68 70.12 702.72 70.22 702.75"/><path d="M70.54,704.67c-.63-.16-1.25-.34-1.86-.53L70,702.91Z"/><polygon points="76.06 704.2 75.9 704.37 75.82 704.15 75.96 704.17 76.06 704.2"/><path d="M76.52,706.08c-.64-.12-1.26-.25-1.89-.4l1.27-1.31Z"/><polygon points="82 705.24 81.84 705.43 81.74 705.2 81.82 705.21 82 705.24"/><path d="M82.57,707.06c-.63-.07-1.26-.16-1.89-.25l1.16-1.38Z"/><polygon points="87.99 705.86 87.85 706.06 87.73 705.84 87.84 705.84 87.99 705.86"/><polygon points="94.01 706.06 93.88 706.27 93.75 706.06 94.01 706.06"/><path d="M94.81,707.76H93l.93-1.49Z"/><polygon points="100.03 705.84 99.91 706.06 99.77 705.86 99.92 705.84 100.03 705.84"/><path d="M100.94,707.47c-.61.06-1.23.1-1.85.14l.82-1.55Z"/><polygon points="106.02 705.2 105.92 705.43 105.76 705.24 105.94 705.21 106.02 705.2"/><path d="M107.05,706.77l-1.84.26.71-1.6Z"/><polygon points="111.94 704.15 111.86 704.37 111.7 704.2 111.8 704.17 111.94 704.15"/><path d="M113.08,705.64c-.6.14-1.21.26-1.82.38l.6-1.65Z"/><polygon points="117.79 702.68 117.72 702.91 117.54 702.75 117.64 702.72 117.79 702.68"/><path d="M119,704.08c-.59.18-1.18.35-1.78.51l.48-1.68Z"/><polygon points="123.51 700.81 123.46 701.05 123.27 700.9 123.42 700.84 123.51 700.81"/><path d="M124.83,702.12c-.57.22-1.15.43-1.73.63l.36-1.7Z"/><polygon points="129.09 698.55 129.06 698.78 128.86 698.65 128.95 698.61 129.09 698.55"/><polygon points="134.5 695.9 134.48 696.14 134.28 696.02 134.42 695.94 134.5 695.9"/><path d="M136,697c-.53.29-1.07.58-1.61.85l.12-1.71Z"/><polygon points="139.71 692.88 139.71 693.11 139.5 693.01 139.59 692.95 139.71 692.88"/><path d="M141.24,693.86q-.75.5-1.53,1v-1.71Z"/><polygon points="144.72 689.74 144.5 689.65 144.64 689.54 144.7 689.5 144.72 689.74"/><path d="M146.28,690.37c-.48.36-1,.72-1.45,1l-.11-1.68Z"/><polygon points="149.47 686.02 149.25 685.95 149.35 685.86 149.44 685.79 149.47 686.02"/><path d="M151.07,686.54l-1.36,1.15-.24-1.67Z"/><polygon points="153.96 681.99 153.73 681.93 153.86 681.79 153.91 681.75 153.96 681.99"/><path d="M155.57,682.39c-.41.42-.83.82-1.26,1.23L154,682Z"/><polygon points="158.16 677.64 157.92 677.6 158.01 677.49 158.09 677.41 158.16 677.64"/><path d="M159.78,677.93c-.37.44-.76.87-1.17,1.3l-.45-1.59Z"/><polygon points="162.04 673.02 161.8 672.99 161.85 672.92 161.96 672.79 162.04 673.02"/><path d="M163.68,673.19q-.52.7-1.08,1.38L162,673Z"/><polygon points="165.59 668.14 165.35 668.13 165.43 668.01 165.49 667.92 165.59 668.14"/><path d="M167.23,668.19c-.31.49-.64,1-1,1.45l-.67-1.5Z"/><polygon points="168.78 663.01 168.55 663.02 168.65 662.84 168.67 662.8 168.78 663.01"/><path d="M170.43,663c-.28.51-.57,1-.87,1.51l-.78-1.46Z"/><polygon points="171.62 657.69 171.38 657.71 171.44 657.57 171.49 657.48 171.62 657.69"/><path d="M173.26,657.51c-.24.53-.5,1-.77,1.57l-.87-1.39Z"/><polygon points="174.07 652.17 173.84 652.21 173.9 652.06 173.93 651.98 174.07 652.17"/><path d="M175.71,651.88l-.66,1.63-1-1.34Z"/><polygon points="176.14 646.49 175.91 646.55 175.94 646.45 175.99 646.31 176.14 646.49"/><polygon points="99.77 533.68 99.91 533.48 100.03 533.7 99.92 533.7 99.77 533.68"/><path d="M100.94,532.07l-1,1.41-.82-1.55C99.71,532,100.33,532,100.94,532.07Z"/><polygon points="105.76 534.3 105.92 534.11 106.02 534.34 105.94 534.33 105.76 534.3"/><path d="M107.05,532.77l-1.13,1.34-.71-1.6Z"/><polygon points="111.86 535.17 111.94 535.39 111.8 535.37 111.7 535.34 111.86 535.17"/><polygon points="117.54 536.79 117.72 536.63 117.79 536.86 117.64 536.82 117.54 536.79"/><path d="M119,535.46l-1.3,1.17-.48-1.68C117.84,535.11,118.43,535.28,119,535.46Z"/><polygon points="123.27 538.64 123.46 538.49 123.51 538.73 123.42 538.7 123.27 538.64"/><path d="M124.83,537.42l-1.37,1.07-.36-1.7C123.68,537,124.26,537.2,124.83,537.42Z"/><polygon points="128.86 540.89 129.06 540.76 129.09 540.99 128.95 540.93 128.86 540.89"/><path d="M130.5,539.79l-1.44,1-.24-1.72C129.39,539.28,129.94,539.53,130.5,539.79Z"/><polygon points="134.28 543.52 134.48 543.4 134.5 543.64 134.42 543.6 134.28 543.52"/><path d="M136,542.54l-1.49.86-.12-1.71C134.9,542,135.44,542.25,136,542.54Z"/><polygon points="139.5 546.52 139.71 546.42 139.71 546.66 139.69 546.65 139.5 546.52"/><path d="M139.71,544.72q.78.46,1.53,1l-1.53.74Z"/><polygon points="144.5 549.88 144.72 549.79 144.7 550.03 144.64 549.99 144.5 549.88"/><path d="M144.83,548.12c.48.33,1,.68,1.44,1l-1.55.63Z"/><polygon points="149.25 553.58 149.47 553.51 149.44 553.75 149.43 553.74 149.25 553.58"/><path d="M149.71,551.85l1.35,1.14-1.59.52Z"/><polygon points="153.73 557.61 153.96 557.55 153.91 557.78 153.79 557.67 153.73 557.61"/><path d="M154.31,555.92c.43.41.85.81,1.26,1.23l-1.61.4Z"/><polygon points="157.92 561.93 158.16 561.89 158.09 562.12 158.01 562.04 157.92 561.93"/><path d="M159.78,561.61l-1.62.28.45-1.58C159,560.74,159.41,561.17,159.78,561.61Z"/><polygon points="162.04 566.51 161.96 566.74 161.85 566.61 161.8 566.54 162.04 566.51"/><path d="M163.67,566.34l-1.63.17.56-1.54C163,565.42,163.33,565.88,163.67,566.34Z"/><polygon points="165.59 571.4 165.49 571.62 165.43 571.53 165.35 571.41 165.59 571.4"/><path d="M167.23,571.35l-1.64,0,.67-1.5C166.59,570.38,166.92,570.86,167.23,571.35Z"/><polygon points="168.78 576.52 168.67 576.73 168.65 576.69 168.55 576.51 168.78 576.52"/><path d="M170.43,576.58l-1.65-.06.78-1.45C169.86,575.57,170.15,576.07,170.43,576.58Z"/><polygon points="171.62 581.85 171.49 582.06 171.44 581.97 171.38 581.83 171.62 581.85"/><path d="M173.26,582l-1.64-.18.87-1.39C172.76,581,173,581.5,173.26,582Z"/><polygon points="174.07 587.37 173.93 587.56 173.9 587.48 173.84 587.33 174.07 587.37"/><path d="M175.71,587.66l-1.64-.29,1-1.34Z"/><polygon points="176.14 593.04 175.99 593.22 175.94 593.08 175.91 592.98 176.14 593.04"/><path d="M177.74,593.44l-1.6-.4,1.06-1.27C177.39,592.32,177.57,592.88,177.74,593.44Z"/><polygon points="177.81 598.84 177.64 599.02 177.61 598.93 177.58 598.77 177.81 598.84"/><polygon points="179.06 604.75 178.88 604.91 178.87 604.84 178.84 604.66 179.06 604.75"/><path d="M179.36,599.35l-1.55-.51,1.14-1.18C179.09,598.22,179.23,598.78,179.36,599.35Z"/><polygon points="179.9 610.73 179.71 610.87 179.69 610.69 179.68 610.62 179.9 610.73"/><path d="M180.57,605.36l-1.51-.61,1.22-1.1C180.38,604.22,180.48,604.79,180.57,605.36Z"/><path d="M181.36,611.44l-1.46-.71,1.28-1Q181.29,610.58,181.36,611.44Z"/><path d="M177.74,646.09c-.17.56-.35,1.12-.54,1.67l-1.06-1.27Z"/><polygon points="177.81 640.7 177.58 640.77 177.61 640.61 177.64 640.52 177.81 640.7"/><polygon points="179.06 634.79 178.84 634.88 178.87 634.7 178.88 634.63 179.06 634.79"/><path d="M179.37,640.19l-.42,1.69-1.14-1.18Z"/><polygon points="179.9 628.81 179.68 628.91 179.69 628.84 179.71 628.66 179.9 628.81"/><polygon points="180.32 622.79 180.11 622.91 180.11 622.79 180.12 622.65 180.32 622.79"/><polygon points="180.32 616.75 180.12 616.88 180.11 616.74 180.11 616.63 180.32 616.75"/><path d="M180.57,634.18c-.09.57-.19,1.14-.29,1.7l-1.22-1.09Z"/><path d="M181.36,628.09c-.05.57-.11,1.15-.18,1.72l-1.28-1Z"/><path d="M181.72,622q0,.85-.06,1.71l-1.34-.9Z"/><path d="M181.72,617.56l-1.4-.81,1.34-.91C181.69,616.41,181.71,617,181.72,617.56Z"/><polygon points="7.65 622.79 7.65 622.91 7.44 622.79 7.64 622.65 7.65 622.79"/><polygon points="8.08 610.62 8.07 610.69 8.05 610.87 7.86 610.73 8.08 610.62"/><polygon points="8.08 610.62 8.07 610.69 8.05 610.87 7.86 610.73 8.08 610.62"/><polygon points="8.92 604.66 8.89 604.84 8.88 604.91 8.7 604.75 8.92 604.66"/><polygon points="8.92 604.66 8.89 604.84 8.88 604.91 8.7 604.75 8.92 604.66"/><polygon points="10.18 598.77 10.15 598.93 10.12 599.02 9.95 598.84 10.18 598.77"/><polygon points="10.18 598.77 10.15 598.93 10.12 599.02 9.95 598.84 10.18 598.77"/><polygon points="11.85 592.98 11.82 593.08 11.77 593.22 11.62 593.04 11.85 592.98"/><polygon points="11.85 592.98 11.82 593.08 11.77 593.22 11.62 593.04 11.85 592.98"/><polygon points="13.92 587.33 13.86 587.48 13.83 587.56 13.69 587.37 13.92 587.33"/><polygon points="13.92 587.33 13.86 587.48 13.83 587.56 13.69 587.37 13.92 587.33"/><polygon points="16.38 581.83 16.32 581.97 16.27 582.06 16.14 581.85 16.38 581.83"/><polygon points="16.38 581.83 16.32 581.97 16.27 582.06 16.14 581.85 16.38 581.83"/><polygon points="19.21 576.51 19.11 576.69 19.09 576.73 18.98 576.52 19.21 576.51"/><polygon points="19.21 576.51 19.11 576.69 19.09 576.73 18.98 576.52 19.21 576.51"/><polygon points="22.41 571.41 22.33 571.53 22.27 571.62 22.17 571.4 22.41 571.41"/><polygon points="22.41 571.41 22.33 571.53 22.27 571.62 22.17 571.4 22.41 571.41"/><polygon points="25.96 566.54 25.91 566.61 25.8 566.74 25.72 566.51 25.96 566.54"/><polygon points="25.96 566.54 25.91 566.61 25.8 566.74 25.72 566.51 25.96 566.54"/><polygon points="29.84 561.93 29.75 562.04 29.67 562.12 29.6 561.89 29.84 561.93"/><polygon points="29.84 561.93 29.75 562.04 29.67 562.12 29.6 561.89 29.84 561.93"/><polygon points="34.03 557.61 33.97 557.67 33.85 557.78 33.8 557.55 34.03 557.61"/><polygon points="34.03 557.61 33.97 557.67 33.85 557.78 33.8 557.55 34.03 557.61"/><polygon points="43.26 549.88 43.12 549.99 43.06 550.03 43.04 549.79 43.26 549.88"/><polygon points="43.26 549.88 43.12 549.99 43.06 550.03 43.04 549.79 43.26 549.88"/><polygon points="48.26 546.52 48.07 546.65 48.05 546.66 48.05 546.42 48.26 546.52"/><polygon points="48.26 546.52 48.07 546.65 48.05 546.66 48.05 546.42 48.26 546.52"/><polygon points="53.48 543.52 53.34 543.6 53.26 543.64 53.28 543.4 53.48 543.52"/><polygon points="53.48 543.52 53.34 543.6 53.26 543.64 53.28 543.4 53.48 543.52"/><polygon points="58.9 540.89 58.81 540.93 58.67 540.99 58.7 540.76 58.9 540.89"/><polygon points="58.9 540.89 58.81 540.93 58.67 540.99 58.7 540.76 58.9 540.89"/><polygon points="64.49 538.64 64.34 538.7 64.25 538.73 64.3 538.49 64.49 538.64"/><polygon points="64.49 538.64 64.34 538.7 64.25 538.73 64.3 538.49 64.49 538.64"/><polygon points="76.06 535.34 75.96 535.37 75.82 535.39 75.9 535.17 76.06 535.34"/><polygon points="76.06 535.34 75.96 535.37 75.82 535.39 75.9 535.17 76.06 535.34"/><polygon points="82 534.3 81.82 534.33 81.74 534.34 81.84 534.11 82 534.3"/><polygon points="82 534.3 81.82 534.33 81.74 534.34 81.84 534.11 82 534.3"/><polygon points="87.99 533.68 87.84 533.7 87.73 533.7 87.85 533.48 87.99 533.68"/><polygon points="87.99 533.68 87.84 533.7 87.73 533.7 87.85 533.48 87.99 533.68"/><polygon points="100.03 533.7 99.92 533.7 99.77 533.68 99.91 533.48 100.03 533.7"/><polygon points="99.91 533.48 100.03 533.7 99.92 533.7 99.77 533.68 99.91 533.48"/><polygon points="106.02 534.34 105.94 534.33 105.76 534.3 105.92 534.11 106.02 534.34"/><polygon points="105.92 534.11 106.02 534.34 105.94 534.33 105.76 534.3 105.92 534.11"/><polygon points="111.94 535.39 111.8 535.37 111.7 535.34 111.86 535.17 111.94 535.39"/><polygon points="111.86 535.17 111.94 535.39 111.8 535.37 111.7 535.34 111.86 535.17"/><polygon points="117.79 536.86 117.64 536.82 117.54 536.79 117.72 536.63 117.79 536.86"/><polygon points="117.72 536.63 117.79 536.86 117.64 536.82 117.54 536.79 117.72 536.63"/><polygon points="123.51 538.73 123.42 538.7 123.27 538.64 123.46 538.49 123.51 538.73"/><polygon points="123.46 538.49 123.51 538.73 123.42 538.7 123.27 538.64 123.46 538.49"/><polygon points="129.09 540.99 128.95 540.93 128.86 540.89 129.06 540.76 129.09 540.99"/><polygon points="129.06 540.76 129.09 540.99 128.95 540.93 128.86 540.89 129.06 540.76"/><polygon points="134.5 543.64 134.42 543.6 134.28 543.52 134.48 543.4 134.5 543.64"/><polygon points="134.48 543.4 134.5 543.64 134.42 543.6 134.28 543.52 134.48 543.4"/><polygon points="139.71 546.42 139.71 546.66 139.69 546.65 139.5 546.52 139.71 546.42"/><polygon points="139.5 546.52 139.71 546.42 139.71 546.66 139.69 546.65 139.5 546.52"/><polygon points="144.72 549.79 144.7 550.03 144.64 549.99 144.5 549.88 144.72 549.79"/><polygon points="144.5 549.88 144.72 549.79 144.7 550.03 144.64 549.99 144.5 549.88"/><polygon points="149.47 553.51 149.44 553.75 149.43 553.74 149.25 553.58 149.47 553.51"/><polygon points="149.25 553.58 149.47 553.51 149.44 553.75 149.43 553.74 149.25 553.58"/><polygon points="153.96 557.55 153.91 557.78 153.79 557.67 153.73 557.61 153.96 557.55"/><polygon points="153.73 557.61 153.96 557.55 153.91 557.78 153.79 557.67 153.73 557.61"/><polygon points="158.16 561.89 158.09 562.12 158.01 562.04 157.92 561.93 158.16 561.89"/><polygon points="158.16 561.89 158.09 562.12 158.01 562.04 157.92 561.93 158.16 561.89"/><polygon points="162.04 566.51 161.96 566.74 161.85 566.61 161.8 566.54 162.04 566.51"/><polygon points="162.04 566.51 161.96 566.74 161.85 566.61 161.8 566.54 162.04 566.51"/><polygon points="165.59 571.4 165.49 571.62 165.43 571.53 165.35 571.41 165.59 571.4"/><polygon points="165.59 571.4 165.49 571.62 165.43 571.53 165.35 571.41 165.59 571.4"/><polygon points="168.78 576.52 168.67 576.73 168.65 576.69 168.55 576.51 168.78 576.52"/><polygon points="168.78 576.52 168.67 576.73 168.65 576.69 168.55 576.51 168.78 576.52"/><polygon points="171.62 581.85 171.49 582.06 171.44 581.97 171.38 581.83 171.62 581.85"/><polygon points="171.62 581.85 171.49 582.06 171.44 581.97 171.38 581.83 171.62 581.85"/><polygon points="174.07 587.37 173.93 587.56 173.9 587.48 173.84 587.33 174.07 587.37"/><polygon points="174.07 587.37 173.93 587.56 173.9 587.48 173.84 587.33 174.07 587.37"/><polygon points="176.14 593.04 175.99 593.22 175.94 593.08 175.91 592.98 176.14 593.04"/><polygon points="176.14 593.04 175.99 593.22 175.94 593.08 175.91 592.98 176.14 593.04"/><polygon points="177.81 598.84 177.64 599.02 177.61 598.93 177.58 598.77 177.81 598.84"/><polygon points="177.81 598.84 177.64 599.02 177.61 598.93 177.58 598.77 177.81 598.84"/><polygon points="179.06 604.75 178.88 604.91 178.87 604.84 178.84 604.66 179.06 604.75"/><polygon points="179.06 604.75 178.88 604.91 178.87 604.84 178.84 604.66 179.06 604.75"/><polygon points="179.9 610.73 179.71 610.87 179.69 610.69 179.68 610.62 179.9 610.73"/><polygon points="179.9 610.73 179.71 610.87 179.69 610.69 179.68 610.62 179.9 610.73"/><polygon points="180.32 616.75 180.12 616.88 180.11 616.74 180.11 616.63 180.32 616.75"/><polygon points="180.32 622.79 180.11 622.91 180.11 622.79 180.12 622.65 180.32 622.79"/><polygon points="180.32 616.75 180.12 616.88 180.11 616.74 180.11 616.63 180.32 616.75"/><polygon points="179.9 628.81 179.68 628.91 179.69 628.84 179.71 628.66 179.9 628.81"/><polygon points="180.32 622.79 180.11 622.91 180.11 622.79 180.12 622.65 180.32 622.79"/><polygon points="179.06 634.79 178.84 634.88 178.87 634.7 178.88 634.63 179.06 634.79"/><polygon points="179.9 628.81 179.68 628.91 179.69 628.84 179.71 628.66 179.9 628.81"/><polygon points="177.81 640.7 177.58 640.77 177.61 640.61 177.64 640.52 177.81 640.7"/><polygon points="179.06 634.79 178.84 634.88 178.87 634.7 178.88 634.63 179.06 634.79"/><polygon points="176.14 646.49 175.91 646.55 175.94 646.45 175.99 646.31 176.14 646.49"/><polygon points="177.81 640.7 177.58 640.77 177.61 640.61 177.64 640.52 177.81 640.7"/><polygon points="174.07 652.17 173.84 652.21 173.9 652.06 173.93 651.98 174.07 652.17"/><polygon points="176.14 646.49 175.91 646.55 175.94 646.45 175.99 646.31 176.14 646.49"/><polygon points="171.62 657.69 171.38 657.71 171.44 657.57 171.49 657.48 171.62 657.69"/><polygon points="174.07 652.17 173.84 652.21 173.9 652.06 173.93 651.98 174.07 652.17"/><polygon points="168.78 663.01 168.55 663.02 168.65 662.84 168.67 662.8 168.78 663.01"/><polygon points="171.62 657.69 171.38 657.71 171.44 657.57 171.49 657.48 171.62 657.69"/><polygon points="165.59 668.14 165.35 668.13 165.43 668.01 165.49 667.92 165.59 668.14"/><polygon points="168.78 663.01 168.55 663.02 168.65 662.84 168.67 662.8 168.78 663.01"/><polygon points="162.04 673.02 161.8 672.99 161.85 672.92 161.96 672.79 162.04 673.02"/><polygon points="165.59 668.14 165.35 668.13 165.43 668.01 165.49 667.92 165.59 668.14"/><polygon points="158.16 677.64 157.92 677.6 158.01 677.49 158.09 677.41 158.16 677.64"/><polygon points="162.04 673.02 161.8 672.99 161.85 672.92 161.96 672.79 162.04 673.02"/><polygon points="153.96 681.99 153.73 681.93 153.86 681.79 153.91 681.75 153.96 681.99"/><polygon points="158.16 677.64 157.92 677.6 158.01 677.49 158.09 677.41 158.16 677.64"/><polygon points="149.47 686.02 149.25 685.95 149.35 685.86 149.44 685.79 149.47 686.02"/><polygon points="153.96 681.99 153.73 681.93 153.86 681.79 153.91 681.75 153.96 681.99"/><polygon points="144.72 689.74 144.5 689.65 144.64 689.54 144.7 689.5 144.72 689.74"/><polygon points="149.47 686.02 149.25 685.95 149.35 685.86 149.44 685.79 149.47 686.02"/><polygon points="139.71 692.88 139.71 693.11 139.5 693.01 139.59 692.95 139.71 692.88"/><polygon points="144.72 689.74 144.5 689.65 144.64 689.54 144.7 689.5 144.72 689.74"/><polygon points="134.5 695.9 134.48 696.14 134.28 696.02 134.42 695.94 134.5 695.9"/><polygon points="139.71 692.88 139.71 693.11 139.5 693.01 139.59 692.95 139.71 692.88"/><polygon points="129.09 698.55 129.06 698.78 128.86 698.65 128.95 698.61 129.09 698.55"/><polygon points="134.5 695.9 134.48 696.14 134.28 696.02 134.42 695.94 134.5 695.9"/><polygon points="123.51 700.81 123.46 701.05 123.27 700.9 123.42 700.84 123.51 700.81"/><polygon points="129.09 698.55 129.06 698.78 128.86 698.65 128.95 698.61 129.09 698.55"/><polygon points="117.79 702.68 117.72 702.91 117.54 702.75 117.64 702.72 117.79 702.68"/><polygon points="123.51 700.81 123.46 701.05 123.27 700.9 123.42 700.84 123.51 700.81"/><polygon points="111.94 704.15 111.86 704.37 111.7 704.2 111.8 704.17 111.94 704.15"/><polygon points="117.79 702.68 117.72 702.91 117.54 702.75 117.64 702.72 117.79 702.68"/><polygon points="106.02 705.2 105.92 705.43 105.76 705.24 105.94 705.21 106.02 705.2"/><polygon points="111.94 704.15 111.86 704.37 111.7 704.2 111.8 704.17 111.94 704.15"/><polygon points="100.03 705.84 99.91 706.06 99.77 705.86 99.92 705.84 100.03 705.84"/><polygon points="106.02 705.2 105.92 705.43 105.76 705.24 105.94 705.21 106.02 705.2"/><polygon points="94.01 706.06 93.88 706.27 93.75 706.06 94.01 706.06"/><polygon points="100.03 705.84 99.91 706.06 99.77 705.86 99.92 705.84 100.03 705.84"/><polygon points="87.99 705.86 87.85 706.06 87.73 705.84 87.84 705.84 87.99 705.86"/><polygon points="94.01 706.06 93.88 706.27 93.75 706.06 94.01 706.06"/><polygon points="82 705.24 81.84 705.43 81.74 705.2 81.82 705.21 82 705.24"/><polygon points="87.99 705.86 87.85 706.06 87.73 705.84 87.84 705.84 87.99 705.86"/><polygon points="76.06 704.2 75.9 704.37 75.82 704.15 75.96 704.17 76.06 704.2"/><polygon points="82 705.24 81.84 705.43 81.74 705.2 81.82 705.21 82 705.24"/><polygon points="70.22 702.75 70.04 702.91 69.97 702.68 70.12 702.72 70.22 702.75"/><polygon points="76.06 704.2 75.9 704.37 75.82 704.15 75.96 704.17 76.06 704.2"/><polygon points="64.49 700.9 64.3 701.05 64.25 700.81 64.34 700.84 64.49 700.9"/><polygon points="70.22 702.75 70.04 702.91 69.97 702.68 70.12 702.72 70.22 702.75"/><polygon points="58.9 698.65 58.7 698.78 58.67 698.55 58.81 698.61 58.9 698.65"/><polygon points="64.49 700.9 64.3 701.05 64.25 700.81 64.34 700.84 64.49 700.9"/><polygon points="53.48 696.02 53.28 696.14 53.26 695.9 53.34 695.94 53.48 696.02"/><polygon points="58.9 698.65 58.7 698.78 58.67 698.55 58.81 698.61 58.9 698.65"/><polygon points="48.26 693.01 48.05 693.11 48.05 692.88 48.17 692.95 48.26 693.01"/><polygon points="53.48 696.02 53.28 696.14 53.26 695.9 53.34 695.94 53.48 696.02"/><polygon points="43.26 689.65 43.04 689.74 43.06 689.5 43.12 689.54 43.26 689.65"/><polygon points="48.26 693.01 48.05 693.11 48.05 692.88 48.17 692.95 48.26 693.01"/><polygon points="38.51 685.95 38.29 686.02 38.32 685.79 38.41 685.86 38.51 685.95"/><polygon points="43.26 689.65 43.04 689.74 43.06 689.5 43.12 689.54 43.26 689.65"/><polygon points="34.03 681.93 33.8 681.99 33.85 681.75 33.9 681.79 34.03 681.93"/><polygon points="38.51 685.95 38.29 686.02 38.32 685.79 38.41 685.86 38.51 685.95"/><polygon points="29.84 677.6 29.6 677.64 29.67 677.41 29.75 677.49 29.84 677.6"/><polygon points="34.03 681.93 33.8 681.99 33.85 681.75 33.9 681.79 34.03 681.93"/><polygon points="25.96 672.99 25.72 673.02 25.8 672.79 25.91 672.92 25.96 672.99"/><polygon points="29.84 677.6 29.6 677.64 29.67 677.41 29.75 677.49 29.84 677.6"/><polygon points="22.41 668.13 22.17 668.14 22.27 667.92 22.33 668.01 22.41 668.13"/><polygon points="25.96 672.99 25.72 673.02 25.8 672.79 25.91 672.92 25.96 672.99"/><polygon points="19.21 663.02 18.98 663.01 19.09 662.8 19.11 662.84 19.21 663.02"/><polygon points="22.41 668.13 22.17 668.14 22.27 667.92 22.33 668.01 22.41 668.13"/><polygon points="16.38 657.71 16.14 657.69 16.27 657.48 16.32 657.57 16.38 657.71"/><polygon points="19.21 663.02 18.98 663.01 19.09 662.8 19.11 662.84 19.21 663.02"/><polygon points="13.92 652.21 13.69 652.17 13.83 651.98 13.86 652.06 13.92 652.21"/><polygon points="16.38 657.71 16.14 657.69 16.27 657.48 16.32 657.57 16.38 657.71"/><polygon points="11.85 646.55 11.62 646.49 11.77 646.31 11.82 646.45 11.85 646.55"/><polygon points="13.92 652.21 13.69 652.17 13.83 651.98 13.86 652.06 13.92 652.21"/><polygon points="10.18 640.77 9.95 640.7 10.12 640.52 10.15 640.61 10.18 640.77"/><polygon points="11.85 646.55 11.62 646.49 11.77 646.31 11.82 646.45 11.85 646.55"/><polygon points="8.92 634.88 8.7 634.79 8.88 634.63 8.89 634.7 8.92 634.88"/><polygon points="10.18 640.77 9.95 640.7 10.12 640.52 10.15 640.61 10.18 640.77"/><polygon points="8.08 628.91 7.86 628.81 8.05 628.66 8.07 628.84 8.08 628.91"/><polygon points="8.92 634.88 8.7 634.79 8.88 634.63 8.89 634.7 8.92 634.88"/><polygon points="7.65 622.79 7.65 622.91 7.44 622.79 7.64 622.65 7.65 622.79"/><polygon points="8.08 628.91 7.86 628.81 8.05 628.66 8.07 628.84 8.08 628.91"/><path d="M185,620.12a.41.41,0,0,0,0-.7l-3.23-1.86-1.4-.81-.2.13v-.25l.21.12,1.34-.91,3.09-2.08a.4.4,0,0,0-.05-.69l-3.34-1.63-1.46-.71-.19.14,0-.18v-.07l.22.11,1.28-1,2.93-2.29a.4.4,0,0,0-.1-.69l-3.44-1.39-1.51-.61-.18.16v-.07l0-.18.22.09,1.22-1.1,2.75-2.48a.4.4,0,0,0-.15-.68l-3.52-1.14-1.55-.51-.17.18,0-.09,0-.16.23.07,1.14-1.18,2.56-2.66a.4.4,0,0,0-.19-.67l-3.58-.89-1.6-.4-.15.18-.05-.14,0-.1.23.06,1.06-1.27,2.37-2.82a.41.41,0,0,0-.23-.66l-3.63-.63-1.64-.29-.14.19,0-.08-.06-.15.23,0,1-1.34,2.17-3a.41.41,0,0,0-.29-.64l-3.67-.38-1.64-.18-.13.21-.05-.09-.06-.14.24,0,.87-1.39,2-3.14a.4.4,0,0,0-.33-.61l-3.69-.13-1.65-.06-.11.21,0,0-.1-.18h.23l.78-1.45,1.73-3.26a.4.4,0,0,0-.37-.59l-3.69.13-1.64,0-.1.22-.06-.09-.08-.12h.24l.67-1.5,1.5-3.38a.4.4,0,0,0-.41-.56l-3.68.38-1.63.17-.08.23-.11-.13,0-.07.24,0,.56-1.54,1.26-3.47a.39.39,0,0,0-.44-.53l-3.64.64-1.62.28-.07.23L158,562l-.09-.11.24,0,.45-1.58,1-3.55a.4.4,0,0,0-.48-.5l-3.58.89-1.61.4-.05.23-.12-.11-.06-.06.23-.06.35-1.63.76-3.59a.4.4,0,0,0-.51-.47l-3.5,1.13-1.59.52,0,.24h0l-.18-.16.22-.07.24-1.66.51-3.63a.4.4,0,0,0-.55-.43l-3.4,1.37-1.55.63,0,.24-.06,0-.14-.11.22-.09.11-1.67.26-3.65a.4.4,0,0,0-.57-.39l-3.28,1.6-1.53.74v.24h0l-.19-.13.21-.1v-5.34a.4.4,0,0,0-.6-.35L136,542.54l-1.49.86,0,.24-.08,0-.14-.08.2-.12-.12-1.71-.25-3.62a.39.39,0,0,0-.62-.3l-3,2-1.44,1,0,.23-.14-.06-.09,0,.2-.13-.24-1.72-.5-3.58a.41.41,0,0,0-.65-.26l-2.84,2.22-1.37,1.07.05.24-.09,0-.15-.06.19-.15-.36-1.7-.75-3.52a.4.4,0,0,0-.66-.22L119,535.46l-1.3,1.17.07.23-.15,0-.1,0,.18-.16-.48-1.68-1-3.46a.41.41,0,0,0-.68-.17l-2.49,2.58c-.6-.14-1.21-.26-1.82-.38L110,530.15a.41.41,0,0,0-.69-.13l-2.3,2.75-1.13,1.34.1.23h-.08l-.18,0,.16-.19-.71-1.6-1.46-3.27a.41.41,0,0,0-.7-.08l-2.11,2.91-1,1.41.12.22h-.11l-.15,0,.14-.2-.82-1.55-1.68-3.16a.4.4,0,0,0-.7,0l-1.9,3-.93,1.49L93,531.78l-1.9-3a.4.4,0,0,0-.7,0l-1.67,3.15c-.63,0-1.26.07-1.88.13l-2.09-2.89a.41.41,0,0,0-.7.08l-1.44,3.24c-.63.07-1.26.16-1.88.25L78.41,530a.41.41,0,0,0-.69.13l-1.2,3.31-.62,1.71.16.17-.1,0-.14,0,.08-.22-1.27-1.31-2.44-2.54a.41.41,0,0,0-.68.17l-1,3.38c-.63.16-1.25.34-1.86.53l-2.61-2.35a.4.4,0,0,0-.66.22l-.73,3.42c-.62.21-1.23.43-1.84.66l-2.75-2.15a.41.41,0,0,0-.65.26L59,538.92c-.61.26-1.2.52-1.8.8l-2.89-2a.39.39,0,0,0-.62.3l-.24,3.48-.13,1.85.2.12-.14.08-.08,0,0-.24-1.62-.93-3-1.74a.4.4,0,0,0-.6.35v5.34l.21.1-.19.13h0v-.24l-1.67-.82-3.14-1.52a.4.4,0,0,0-.57.39l.24,3.47c-.54.38-1.07.76-1.59,1.16l-3.23-1.31a.4.4,0,0,0-.55.43l.49,3.44c-.51.42-1,.84-1.52,1.27l-3.31-1.07a.4.4,0,0,0-.51.47l.72,3.39c-.49.45-1,.91-1.43,1.38l-3.37-.84a.4.4,0,0,0-.48.5l1,3.34c-.47.48-.91,1-1.33,1.47l-3.42-.6a.39.39,0,0,0-.44.53l1.18,3.25.64,1.76.24,0-.05.07-.11.13-.08-.23-1.87-.19L20.41,566a.4.4,0,0,0-.41.56l1.4,3.15.77,1.73h.24l-.08.12-.06.09-.1-.22-1.9-.06-3.43-.12a.4.4,0,0,0-.37.59l1.61,3c-.35.58-.69,1.17-1,1.76l-3.42.12a.4.4,0,0,0-.33.61l1.81,2.9c-.31.61-.61,1.22-.89,1.84l-3.4.35a.41.41,0,0,0-.29.64l2,2.75,1.14,1.57.23,0-.06.15,0,.08-.14-.19-1.92.33-3.35.59a.41.41,0,0,0-.23.66l2.18,2.6L11.62,593l.23-.06,0,.1-.05.14-.15-.18-1.88.47-3.3.82a.4.4,0,0,0-.19.67l2.36,2.45L10,598.84l.23-.07,0,.16,0,.09-.17-.18-1.84.6-3.23,1a.4.4,0,0,0-.15.68l2.53,2.28,1.44,1.3.22-.09,0,.18v.07l-.18-.16-1.79.72-3.16,1.28a.4.4,0,0,0-.1.69l2.69,2.1,1.52,1.19.22-.11v.07l0,.18-.19-.14-1.73.84-3.07,1.5a.4.4,0,0,0-.05.69l2.83,1.91,1.6,1.08-1.66,1-3,1.71a.41.41,0,0,0,0,.7l3,1.71,1.66,1,.2-.14v.26l-.21-.12-1.6,1.07L3,625.77a.4.4,0,0,0,.05.7L6.13,628l1.73.85.19-.15,0,.18v.07l-.22-.1L6.34,630,3.65,632.1a.4.4,0,0,0,.1.69l3.16,1.28,1.79.72.18-.16v.07l0,.18-.22-.09-1.44,1.29-2.53,2.28a.4.4,0,0,0,.15.68l3.23,1.05,1.84.61.17-.18,0,.09,0,.16L10,640.7l-1.34,1.39-2.36,2.45a.39.39,0,0,0,.19.66l3.3.82,1.88.47.15-.18.05.14,0,.1-.23-.06L10.37,648l-2.18,2.6a.4.4,0,0,0,.23.65l3.35.59,1.92.34.14-.19,0,.08.06.15-.23,0-1.14,1.57-2,2.75a.41.41,0,0,0,.29.64l3.4.35c.28.62.58,1.23.89,1.83l-1.81,2.9a.41.41,0,0,0,.33.62l3.42.12L19,663l.11-.21,0,0,.1.18H19l-.9,1.69-1.61,3a.4.4,0,0,0,.37.59l3.43-.12,1.9-.06.1-.22.06.09.08.12h-.24l-.77,1.73L20,673a.41.41,0,0,0,.41.57l3.43-.36,1.88-.2.08-.23.11.13L26,673l-.24,0-.64,1.77L23.9,678a.39.39,0,0,0,.44.53l3.41-.6c.43.5.87,1,1.34,1.47l-1,3.34a.4.4,0,0,0,.48.5l3.37-.84c.47.47.94.93,1.43,1.38l-.72,3.39a.4.4,0,0,0,.51.47l3.31-1.08,1.78-.58,0-.23.09.07.1.09-.22.07L38,687.88l-.49,3.44a.4.4,0,0,0,.55.42l3.22-1.3,1.73-.7,0-.24.06,0,.14.11-.22.09-.13,1.86-.24,3.47a.4.4,0,0,0,.57.39l3.13-1.53,1.68-.82v-.23l.12.07.09.06-.21.1v5.35a.4.4,0,0,0,.6.35l3-1.74,1.62-.93,0-.24.08,0,.14.08-.2.12.13,1.85.24,3.48a.4.4,0,0,0,.62.3l2.89-1.95,1.54-1,0-.23.14.06.09,0-.2.13.26,1.84.48,3.45a.4.4,0,0,0,.65.26l2.75-2.15,1.46-1.13,0-.24.09,0,.15.06-.19.15.38,1.8.73,3.42a.4.4,0,0,0,.66.22l2.61-2.35L70,702.91l-.07-.23.15,0,.1,0-.18.16.5,1.76,1,3.38a.4.4,0,0,0,.68.16l2.44-2.53,1.27-1.31-.08-.22.14,0,.1,0-.16.17.62,1.71,1.2,3.31a.4.4,0,0,0,.69.12l2.27-2.7,1.16-1.38-.1-.23h.08l.18,0-.16.19.73,1.63L84,710.3a.41.41,0,0,0,.7.07l2.09-2.88c.62.06,1.25.1,1.88.13l1.67,3.15a.41.41,0,0,0,.7,0l1.9-3,.93-1.49-.13-.21H94l-.13.21.93,1.49,1.9,3a.41.41,0,0,0,.7,0l1.68-3.16.82-1.55-.14-.2.15,0H100l-.12.22,1,1.41,2.11,2.9a.41.41,0,0,0,.7-.07l1.46-3.27.71-1.6-.16-.19.18,0H106l-.1.23,1.13,1.34,2.3,2.74a.4.4,0,0,0,.69-.12l1.22-3.37.6-1.65-.16-.17.1,0,.14,0-.08.22,1.22,1.27,2.49,2.57a.4.4,0,0,0,.68-.16l1-3.46.48-1.68-.18-.16.1,0,.15,0-.07.23,1.3,1.17,2.67,2.41a.4.4,0,0,0,.66-.22l.75-3.52.36-1.7-.19-.15.15-.06.09,0-.05.24,1.37,1.07,2.84,2.21a.4.4,0,0,0,.65-.26l.5-3.57c.57-.24,1.12-.49,1.68-.75l3,2a.4.4,0,0,0,.62-.3l.25-3.62.12-1.71-.2-.12.14-.08.08,0,0,.24L136,697l3.14,1.81a.4.4,0,0,0,.6-.35v-5.35l-.21-.1.09-.06.12-.07v.23l1.53.75,3.28,1.6a.4.4,0,0,0,.57-.39l-.26-3.65-.11-1.68-.22-.09.14-.11.06,0,0,.24,1.56.63,3.39,1.37a.4.4,0,0,0,.55-.42l-.51-3.63-.24-1.67-.22-.07.1-.09.09-.07,0,.23,1.6.52,3.49,1.14a.4.4,0,0,0,.51-.47l-.76-3.59L154,682l-.23-.06.13-.14,0,0,.05.24,1.61.4,3.58.89a.4.4,0,0,0,.48-.5l-1-3.55-.45-1.59-.24,0,.09-.11.08-.08.07.23,1.62.29,3.64.64a.39.39,0,0,0,.44-.53l-1.26-3.47L162,673l-.24,0,0-.07.11-.13.08.23,1.64.17,3.67.39a.41.41,0,0,0,.41-.57l-1.5-3.37-.67-1.5h-.24l.08-.12.06-.09.1.22,1.64.05,3.69.13a.4.4,0,0,0,.37-.59l-1.73-3.26-.78-1.46h-.23l.1-.18,0,0,.11.21,1.65,0,3.69-.13a.41.41,0,0,0,.33-.62l-2-3.13-.87-1.39-.24,0,.06-.14.05-.09.13.21,1.64-.18,3.67-.38a.41.41,0,0,0,.29-.64l-2.17-3-1-1.34-.23,0,.06-.15,0-.08.14.19,1.64-.29,3.63-.64a.4.4,0,0,0,.23-.65l-2.37-2.83-1.06-1.27-.23.06,0-.1.05-.14.15.18,1.6-.4,3.58-.89a.39.39,0,0,0,.19-.66L179,641.88l-1.14-1.18-.23.07,0-.16,0-.09.17.18,1.56-.51,3.51-1.15a.4.4,0,0,0,.15-.68l-2.75-2.48-1.22-1.09-.22.09,0-.18v-.07l.18.16,1.51-.61,3.44-1.39a.4.4,0,0,0,.1-.69l-2.93-2.29-1.28-1-.22.1v-.07l0-.18.19.15,1.46-.72,3.34-1.62a.4.4,0,0,0,.05-.7l-3.09-2.08-1.34-.9-.21.12v-.26l.2.14,1.4-.81ZM16.14,657.69l.13-.21.05.09.06.14ZM16.32,582l-.05.09-.13-.21.24,0Zm2.79-5.28,0,0-.11-.21h.23ZM29.6,677.64l.07-.23.08.08.09.11ZM29.75,562l-.08.08-.07-.23.24,0Zm4,120,.05-.24,0,0,.13.14ZM34,557.67l-.12.11-.05-.23.23.06ZM43.12,550l-.06,0,0-.24.22.09Zm15.69-9.06-.14.06,0-.23.2.13Zm5.53-2.23-.09,0,0-.24.19.15Zm17.48-4.37h-.08l.1-.23.16.19Zm6,171.73-.12-.22h.11l.15,0Zm0-172.36h-.11l.12-.22.14.2Zm23.86,1.64.16-.17.08.22-.14,0Zm17.36,163.44-.2-.13.09,0,.14-.06Z"/><polygon points="7.65 622.79 7.65 622.91 7.44 622.79 7.64 622.65 7.65 622.79"/></g><g id="Lights"><path d="M206.88,92.36v4.91a.36.36,0,0,1-.36.36H159.24a.36.36,0,0,1-.36-.36V92.36a1.74,1.74,0,0,1,1.73-1.73H163a1.9,1.9,0,0,0,1.9-1.9V49.63a18,18,0,0,1,18-18h0a18,18,0,0,1,18,18v39.1a1.9,1.9,0,0,0,1.9,1.9h2.37A1.74,1.74,0,0,1,206.88,92.36Z"/><path class="cls-26" d="M272.88,92.36v4.91a.36.36,0,0,1-.36.36H225.24a.36.36,0,0,1-.36-.36V92.36a1.74,1.74,0,0,1,1.73-1.73H229a1.9,1.9,0,0,0,1.9-1.9V49.63a18,18,0,0,1,18-18h0a18,18,0,0,1,18,18v39.1a1.9,1.9,0,0,0,1.9,1.9h2.37A1.74,1.74,0,0,1,272.88,92.36Z"/><path class="cls-27" d="M122.67,319.1a24.76,24.76,0,0,1-8.94,19.07H82a24.81,24.81,0,1,1,40.67-19.07Z"/><path class="cls-28" d="M177.39,46.3h0a1.55,1.55,0,0,1,1.55,1.55V90a0,0,0,0,1,0,0h-3.1a0,0,0,0,1,0,0V47.85A1.55,1.55,0,0,1,177.39,46.3Z"/><path class="cls-28" d="M244.14,46.3h0a1.55,1.55,0,0,1,1.55,1.55V90a0,0,0,0,1,0,0h-3.1a0,0,0,0,1,0,0V47.85A1.55,1.55,0,0,1,244.14,46.3Z"/></g></svg>