<?xml version="1.0" encoding="utf-8"?>
<!-- Generator: Adobe Illustrator 23.0.5, SVG Export Plug-In . SVG Version: 6.00 Build 0)  -->
<svg version="1.1" id="Layer_3" xmlns="http://www.w3.org/2000/svg" xmlns:xlink="http://www.w3.org/1999/xlink" x="0px" y="0px"
	 viewBox="0 0 160 144" style="enable-background:new 0 0 160 144;" xml:space="preserve">
<style type="text/css">
	.st0{fill:#FFFFFF;}
</style>
<g>
	<g id="XMLID_2_">
		<g>
			<rect x="69" y="98" width="1" height="1"/>
			<rect x="68" y="98" width="1" height="1"/>
			<rect x="68" y="97" width="1" height="1"/>
			<rect x="67" y="97" width="1" height="1"/>
			<rect x="66" y="98" width="1" height="1"/>
			<rect x="69" y="99" width="1" height="1"/>
			<rect x="68" y="99" width="1" height="1"/>
			<rect x="67" y="99" width="1" height="1"/>
			<rect x="66" y="99" width="1" height="1"/>
			<rect x="65" y="99" width="1" height="1"/>
			<rect x="65" y="100" width="1" height="1"/>
			<rect x="66" y="101" width="1" height="1"/>
			<rect x="70" y="100" width="1" height="1"/>
			<rect x="70" y="99" width="1" height="1"/>
			<rect x="71" y="101" width="1" height="1"/>
			<rect x="69" y="101" width="1" height="1"/>
			<rect x="70" y="102" width="1" height="1"/>
			<rect x="69" y="103" width="1" height="1"/>
			<rect x="68" y="102" width="1" height="1"/>
			<rect x="67" y="103" width="1" height="1"/>
			<rect x="67" y="102" width="1" height="1"/>
			<rect x="68" y="113" width="1" height="1"/>
			<rect x="68" y="112" width="1" height="1"/>
			<rect x="68" y="111" width="1" height="1"/>
			<rect x="68" y="110" width="1" height="1"/>
			<rect x="68" y="109" width="1" height="1"/>
			<rect x="68" y="108" width="1" height="1"/>
			<rect x="68" y="107" width="1" height="1"/>
			<rect x="68" y="106" width="1" height="1"/>
			<rect x="68" y="105" width="1" height="1"/>
			<rect x="68" y="104" width="1" height="1"/>
			<rect x="66" y="115" width="1" height="1"/>
			<rect x="66" y="114" width="1" height="1"/>
			<rect x="66" y="113" width="1" height="1"/>
			<rect x="66" y="112" width="1" height="1"/>
			<rect x="66" y="111" width="1" height="1"/>
			<rect x="66" y="110" width="1" height="1"/>
			<rect x="66" y="109" width="1" height="1"/>
			<rect x="66" y="108" width="1" height="1"/>
			<rect x="66" y="107" width="1" height="1"/>
			<rect x="66" y="106" width="1" height="1"/>
			<rect x="66" y="105" width="1" height="1"/>
			<rect x="66" y="104" width="1" height="1"/>
			<rect x="68" y="122" width="1" height="1"/>
			<rect x="68" y="121" width="1" height="1"/>
			<rect x="68" y="120" width="1" height="1"/>
			<rect x="68" y="119" width="1" height="1"/>
			<rect x="68" y="118" width="1" height="1"/>
			<rect x="68" y="117" width="1" height="1"/>
			<rect x="68" y="116" width="1" height="1"/>
			<rect x="68" y="115" width="1" height="1"/>
			<rect x="68" y="114" width="1" height="1"/>
			<rect x="66" y="121" width="1" height="1"/>
			<rect x="66" y="120" width="1" height="1"/>
			<rect x="66" y="119" width="1" height="1"/>
			<rect x="66" y="118" width="1" height="1"/>
			<rect x="66" y="117" width="1" height="1"/>
			<rect x="66" y="116" width="1" height="1"/>
			<rect x="66" y="130" width="1" height="1"/>
			<rect x="66" y="132" width="1" height="1"/>
			<rect x="66" y="131" width="1" height="1"/>
			<rect x="66" y="129" width="1" height="1"/>
			<rect x="66" y="128" width="1" height="1"/>
			<rect x="66" y="127" width="1" height="1"/>
			<rect x="66" y="126" width="1" height="1"/>
			<rect x="66" y="125" width="1" height="1"/>
			<rect x="66" y="124" width="1" height="1"/>
			<rect x="66" y="123" width="1" height="1"/>
			<rect x="66" y="122" width="1" height="1"/>
			<rect x="68" y="134" width="1" height="1"/>
			<rect x="68" y="133" width="1" height="1"/>
			<rect x="68" y="132" width="1" height="1"/>
			<rect x="68" y="131" width="1" height="1"/>
			<rect x="68" y="130" width="1" height="1"/>
			<rect x="68" y="129" width="1" height="1"/>
			<rect x="68" y="128" width="1" height="1"/>
			<rect x="68" y="127" width="1" height="1"/>
			<rect x="68" y="126" width="1" height="1"/>
			<rect x="68" y="125" width="1" height="1"/>
			<rect x="68" y="124" width="1" height="1"/>
			<rect x="68" y="123" width="1" height="1"/>
			<rect x="66" y="135" width="1" height="1"/>
			<rect x="66" y="134" width="1" height="1"/>
			<rect x="66" y="133" width="1" height="1"/>
			<rect x="68" y="135" width="1" height="1"/>
			<rect x="69" y="136" width="1" height="1"/>
			<rect x="70" y="137" width="1" height="1"/>
			<rect x="67" y="136" width="1" height="1"/>
			<rect x="68" y="137" width="1" height="1"/>
			<rect x="67" y="137" width="1" height="1"/>
			<rect x="66" y="138" width="1" height="1"/>
			<rect x="69" y="138" width="1" height="1"/>
			<rect x="68" y="138" width="1" height="1"/>
			<rect x="70" y="139" width="1" height="1"/>
			<rect x="69" y="139" width="1" height="1"/>
			<rect x="68" y="139" width="1" height="1"/>
			<rect x="67" y="139" width="1" height="1"/>
			<rect x="66" y="139" width="1" height="1"/>
			<rect x="65" y="139" width="1" height="1"/>
			<rect x="65" y="140" width="1" height="1"/>
			<rect x="66" y="141" width="1" height="1"/>
			<rect x="68" y="142" width="1" height="1"/>
			<rect x="67" y="142" width="1" height="1"/>
			<rect x="69" y="141" width="1" height="1"/>
			<rect x="70" y="140" width="1" height="1"/>
			<rect x="70" y="138" class="st0" width="1" height="1"/>
			<rect x="71" y="140" class="st0" width="1" height="1"/>
			<rect x="70" y="141" class="st0" width="1" height="1"/>
			<rect x="68" y="141" class="st0" width="1" height="1"/>
			<rect x="67" y="141" class="st0" width="1" height="1"/>
			<rect x="69" y="140" class="st0" width="1" height="1"/>
			<rect x="68" y="140" class="st0" width="1" height="1"/>
			<rect x="67" y="140" class="st0" width="1" height="1"/>
			<rect x="66" y="140" class="st0" width="1" height="1"/>
			<rect x="67" y="138" class="st0" width="1" height="1"/>
			<rect x="65" y="138" class="st0" width="1" height="1"/>
			<rect x="64" y="140" class="st0" width="1" height="1"/>
			<rect x="64" y="139" class="st0" width="1" height="1"/>
			<rect x="64" y="138" class="st0" width="1" height="1"/>
			<rect x="65" y="141" class="st0" width="1" height="1"/>
			<rect x="64" y="141" class="st0" width="1" height="1"/>
			<rect x="70" y="98" class="st0" width="1" height="1"/>
			<rect x="71" y="100" class="st0" width="1" height="1"/>
			<rect x="70" y="101" class="st0" width="1" height="1"/>
			<rect x="68" y="101" class="st0" width="1" height="1"/>
			<rect x="67" y="101" class="st0" width="1" height="1"/>
			<rect x="69" y="100" class="st0" width="1" height="1"/>
			<rect x="68" y="100" class="st0" width="1" height="1"/>
			<rect x="67" y="100" class="st0" width="1" height="1"/>
			<rect x="66" y="100" class="st0" width="1" height="1"/>
			<rect x="65" y="101" class="st0" width="1" height="1"/>
			<rect x="64" y="100" class="st0" width="1" height="1"/>
			<rect x="64" y="99" class="st0" width="1" height="1"/>
			<rect x="67" y="98" class="st0" width="1" height="1"/>
			<rect x="65" y="98" class="st0" width="1" height="1"/>
			<rect x="64" y="98" class="st0" width="1" height="1"/>
			<rect x="64" y="101" class="st0" width="1" height="1"/>
		</g>
		<g>
		</g>
	</g>
</g>
</svg>
