<svg xmlns="http://www.w3.org/2000/svg" viewBox="0 0 1016.81 1749.64">
<defs>
<style>.cls-1{fill:#9064a3;opacity:0.49;}.cls-2,.cls-3{fill:none;stroke:#9064a3;}.cls-2,.cls-3,.cls-4{stroke-miterlimit:10;}.cls-2{stroke-width:20px;}.cls-3{stroke-width:18px;}.cls-4{fill:#ff0af4;stroke:#8e00df;stroke-width:2px;opacity:0.28;}.cls-5,.cls-6{fill:#fff;}.cls-6{font-size:27px;font-family:TTNorms-Regular, TT Norms;}.cls-7{letter-spacing:-0.02em;}</style>
</defs>
<title>incom</title>
<g id="Layer_2" data-name="Layer 2"><g id="Purple_case" data-name="Purple case">
<path class="cls-1" d="M969.11,10H47.7C26.88,10,10,27.11,10,48.22V1607.76c0,38.51,25.66,72.14,62.42,81.81,113.08,29.75,260.39,49.77,433.08,50.07,175.36.29,324.76-20,439-50.09,36.72-9.67,62.33-43.32,62.33-81.79V48.22C1006.81,27.11,989.94,10,969.11,10ZM745.55,1625.84a7,7,0,1,1,7-7A7,7,0,0,1,745.55,1625.84Zm1-56.5a7,7,0,1,1,7-7A7,7,0,0,1,746.57,1569.34Zm.83-58a7,7,0,1,1,7-7A7,7,0,0,1,747.4,1511.35Zm27.18,137.94a7,7,0,1,1,7-7A7,7,0,0,1,774.58,1649.29Zm1-56.5a7,7,0,1,1,7-7A7,7,0,0,1,775.61,1592.79Zm.82-58a7,7,0,1,1,7-7A7,7,0,0,1,776.43,1534.8Zm0-59.25a7,7,0,1,1,7-7A7,7,0,0,1,776.43,1475.55Zm27.18,197.18a7,7,0,1,1,7-7A7,7,0,0,1,803.61,1672.73Zm1-56.49a7,7,0,1,1,7-7A7,7,0,0,1,804.64,1616.24Zm.82-58a7,7,0,1,1,7-7A7,7,0,0,1,805.46,1558.24Zm0-59.24a7,7,0,1,1,7-7A7,7,0,0,1,805.46,1499Zm28.21,140.68a7,7,0,1,1,7-7A7,7,0,0,1,833.67,1639.68Zm.82-58a7,7,0,1,1,7-7A7,7,0,0,1,834.49,1581.69Zm0-59.25a7,7,0,1,1,7-7A7,7,0,0,1,834.49,1522.44Zm0-58a7,7,0,1,1,7-7A7,7,0,0,1,834.49,1464.45Zm28.21,198.68a7,7,0,1,1,7-7A7,7,0,0,1,862.7,1663.13Zm.82-58a7,7,0,1,1,7-7A7,7,0,0,1,863.52,1605.14Zm0-59.25a7,7,0,1,1,7-7A7,7,0,0,1,863.52,1545.89Zm0-58a7,7,0,1,1,7-7A7,7,0,0,1,863.52,1487.9Zm29,140.69a7,7,0,1,1,7-7A7,7,0,0,1,892.55,1628.59Zm0-59.25a7,7,0,1,1,7-7A7,7,0,0,1,892.55,1569.34Zm0-58a7,7,0,1,1,7-7A7,7,0,0,1,892.55,1511.35Zm0-58.13a7,7,0,1,1,7-7A7,7,0,0,1,892.55,1453.22Zm29,198.81a7,7,0,1,1,7-7A7,7,0,0,1,921.58,1652Zm0-59.24a7,7,0,1,1,7-7A7,7,0,0,1,921.58,1592.79Zm0-58a7,7,0,1,1,7-7A7,7,0,0,1,921.58,1534.8Zm0-58.13a7,7,0,1,1,7-7A7,7,0,0,1,921.58,1476.67Zm29,139.57a7,7,0,1,1,7-7A7,7,0,0,1,950.61,1616.24Zm0-58a7,7,0,1,1,7-7A7,7,0,0,1,950.61,1558.24Zm0-58.13a7,7,0,1,1,7-7A7,7,0,0,1,950.61,1500.11Z"/>
<path class="cls-2" d="M1006.81,48.22V1607.76c0,38.47-25.61,72.12-62.33,81.79-114.22,30-263.62,50.38-439,50.09-172.69-.3-320-20.32-433.08-50.07C35.66,1679.9,10,1646.27,10,1607.76V48.22C10,27.11,26.88,10,47.7,10H969.11C989.94,10,1006.81,27.11,1006.81,48.22Z"/>
<circle class="cls-3" cx="207.93" cy="1164.21" r="163.09"/>
<circle class="cls-3" cx="434.74" cy="1191.26" r="20.97"/>
<circle class="cls-3" cx="337.56" cy="1373.96" r="19.8"/>
<circle class="cls-3" cx="74.33" cy="1344.34" r="19.3"/>
<circle class="cls-3" cx="798.47" cy="1244.8" r="17.92"/><circle class="cls-3" cx="940.25" cy="1277.68" r="19.18"/><circle class="cls-3" cx="688.18" cy="1384.99" r="15.75"/><path class="cls-4" d="M945.61,57.91H65.29a32.73,32.73,0,0,0-32.51,33V829c0,28.46,21.36,52.21,49.31,54.9C210.7,896.22,351.5,904.1,502.85,904.18c153.36.1,295.91-7.81,426-20.33,27.94-2.69,49.31-26.44,49.31-54.9V90.86A32.73,32.73,0,0,0,945.61,57.91Zm16.29,745.7a52.22,52.22,0,0,1-47.31,52C789.81,867.43,653,874.91,505.9,874.82c-145.21-.08-280.3-7.53-403.69-19.24a52.21,52.21,0,0,1-47.31-52V105A31.18,31.18,0,0,1,86.09,73.82H930.71A31.18,31.18,0,0,1,961.9,105Z"/></g><g id="Screen_Border" data-name="Screen Border"><path d="M927.69,82.63H83.07a31.18,31.18,0,0,0-31.19,31.19v698.6a52.21,52.21,0,0,0,47.31,52c123.39,11.71,258.48,19.16,403.69,19.24,147.14.09,283.91-7.39,408.69-19.24a52.22,52.22,0,0,0,47.31-52V113.82A31.18,31.18,0,0,0,927.69,82.63ZM89.26,342.87a12.9,12.9,0,1,1,12.9-12.9A12.9,12.9,0,0,1,89.26,342.87ZM801.88,688.26a8.37,8.37,0,0,1-8.37,8.37H212.25a8.37,8.37,0,0,1-8.37-8.37V174a8.37,8.37,0,0,1,8.37-8.37H793.51a8.37,8.37,0,0,1,8.37,8.37Z"/><path class="cls-5" d="M178.94,330a14,14,0,0,1-10.61,13.56.8.8,0,0,1-.78-1.31,18.43,18.43,0,0,0,0-24.5.8.8,0,0,1,.78-1.31A14,14,0,0,1,178.94,330Z"/><path class="cls-5" d="M154.09,330c0,6.55-4.86,12-11.4,13.56a.81.81,0,0,1-.85-1.31,17.48,17.48,0,0,0,0-24.5.81.81,0,0,1,.85-1.31C149.23,317.92,154.09,323.42,154.09,330Z"/><path class="cls-5" d="M129,330c0,6.55-4.85,12-11.4,13.56a.81.81,0,0,1-.84-1.31,17.48,17.48,0,0,0,0-24.5.81.81,0,0,1,.84-1.31C124.12,317.92,129,323.42,129,330Z"/><text class="cls-6" transform="translate(76.47 381.7) scale(0.97 1)">P<tspan class="cls-7" x="17.55" y="0">O</tspan><tspan x="39.68" y="0">WER</tspan></text></g></g></svg>