<?xml version="1.0" encoding="utf-8"?>
<!-- Generator: Adobe Illustrator 23.0.5, SVG Export Plug-In . SVG Version: 6.00 Build 0)  -->
<svg version="1.1" xmlns="http://www.w3.org/2000/svg" xmlns:xlink="http://www.w3.org/1999/xlink" x="0px" y="0px"
	 viewBox="0 0 160 144" style="background: none" xml:space="preserve">
<link xmlns="http://www.w3.org/1999/xhtml" rel="stylesheet" href="/style.css" type="text/css"/>
<style>
.st0{fill: none;}
.st1 {fill:#0000FF;}
</style>
<g>
	<rect x="123" y="47" class="st0" width="1" height="2"/>
	<polygon class="st1" points="140,45 140,47 139,47 139,49 138,49 138,51 136,51 136,53 134,53 134,55 133,55 133,57 132,57 132,63 
		131,63 131,67 126,67 126,63 127,63 127,57 128,57 128,55 127,55 127,53 126,53 126,51 125,51 125,49 124,49 124,47 123,47 123,45 
		128,45 128,47 129,47 129,49 130,49 130,51 132,51 132,49 134,49 134,47 135,47 135,45 	"/>
</g>
<g>
	<polygon class="st0" points="120,51 120,59 119,59 119,61 117,61 117,63 112,63 112,61 111,61 111,53 112,53 112,51 114,51 114,49 
		119,49 119,51 	"/>
	<path class="st1" d="M124,53v-4h-1v-2h-2v-2h-9v2h-2v2h-2v2h-1v4h-1v4h1v4h1v2h2v2h9v-2h2v-2h2v-2h1v-4h1v-4H124z M120,59h-1v2h-2
		v2h-5v-2h-1v-8h1v-2h2v-2h5v2h1V59z"/>
</g>
<g>
	<polygon class="st0" points="101,51 101,53 96,53 96,49 100,49 100,51 	"/>
	<polygon class="st0" points="101,59 101,61 100,61 100,63 94,63 94,61 95,61 95,57 100,57 100,59 	"/>
	<path class="st1" d="M105,49v-2h-2v-2H92v6h-1v6h-1v6h-1v4h13v-2h2v-2h1v-6h-1v-2h1v-2h1v-4H105z M101,61h-1v2h-6v-2h1v-4h5v2h1V61
		z M101,53h-5v-4h4v2h1V53z"/>
</g>
<g>
	<polygon class="st1" points="67,45 67,47 66,47 66,49 65,49 65,51 64,51 64,53 63,53 63,55 62,55 62,59 61,59 61,61 60,61 60,63 
		59,63 59,65 58,65 58,67 55,67 55,65 54,65 54,61 53,61 53,57 52,57 52,49 51,49 51,45 55,45 55,49 56,49 56,55 57,55 57,57 58,57 
		58,55 59,55 59,53 60,53 60,51 61,51 61,49 62,49 62,47 63,47 63,45 	"/>
</g>
<g>
	<polygon class="st0" points="45,53 45,57 42,57 42,55 43,55 43,53 	"/>
	<path class="st1" d="M50,63v-8h-1v-6h-1v-4h-5v2h-1v2h-1v2h-1v2h-1v2h-1v2h-1v2h-1v2h-1v2h-1v4h4v-2h1v-2h1v-2h5v2h1v4h5v-4H50z
		 M45,57h-3v-2h1v-2h2V57z"/>
</g>
<g>
	<polygon class="st1" points="41,45 41,47 40,47 40,49 34,49 34,53 33,53 33,57 32,57 32,61 31,61 31,64 29,64 29,66 27,66 27,67 
		23,67 23,66 21,66 21,64 19,64 19,61 18,61 18,57 22,57 22,61 23,61 23,63 27,63 27,61 28,61 28,57 29,57 29,53 30,53 30,49 23,49 
		23,47 24,47 24,45 	"/>
</g>
<g>
	<polygon class="st0" points="73,53 73,57 70,57 70,55 71,55 71,53 	"/>
	<path class="st1" d="M78,63v-8h-1v-6h-1v-4h-5v2h-1v2h-1v2h-1v2h-1v2h-1v2h-1v2h-1v2h-1v2h-1v4h4v-2h1v-2h1v-2h5v2h1v4h5v-4H78z
		 M73,57h-3v-2h1v-2h2V57z"/>
</g>
</svg>
