<?xml version="1.0" encoding="utf-8"?>
<!-- Generator: Adobe Illustrator 23.0.5, SVG Export Plug-In . SVG Version: 6.00 Build 0)  -->
<svg version="1.1" xmlns="http://www.w3.org/2000/svg" xmlns:xlink="http://www.w3.org/1999/xlink" x="0px" y="0px"
	 viewBox="0 0 2881.2 837.8" style="enable-background:new 0 0 2881.2 837.8;" xml:space="preserve">
<style type="text/css">
	.st0{display:none;}
	.st1{fill:#FFFFFF;}
</style>
<g id="Layer_2" class="st0">
	
		
</g>
<g id="Layer_1">
	<g>
		<rect x="0.1" y="-0.2" class="st1" width="2881.1" height="838.2"/>
	</g>
	<g>
		<rect x="72.9" y="109.2" width="18.2" height="18.2"/>
		<rect x="91.1" y="91" width="18.2" height="18.2"/>
		<rect x="72.9" y="72.7" width="18.2" height="18.2"/>
		<rect x="18.3" y="72.7" width="18.2" height="18.2"/>
		<rect y="54.5" width="18.2" height="18.2"/>
		<rect x="36.5" y="109.2" width="18.2" height="18.2"/>
		<rect x="36.5" y="91" width="36.4" height="18.2"/>
		<rect x="91.1" y="54.5" width="18.2" height="18.2"/>
		<rect y="36.3" width="109.3" height="18.2"/>
		<rect x="18.3" y="18.1" width="18.2" height="18.2"/>
		<rect x="36.5" y="-0.2" width="36.4" height="18.2"/>
		<rect x="54.7" y="18.1" width="36.4" height="18.2"/>
		<rect x="18.3" y="127.4" width="18.2" height="583.1"/>
		<rect x="54.7" y="127.4" width="18.2" height="583.1"/>
		<rect x="72.9" y="801.6" width="18.2" height="18.2"/>
		<rect x="18.3" y="801.6" width="18.2" height="18.2"/>
		<rect x="0.1" y="783.4" width="18.2" height="18.2"/>
		<rect x="36.5" y="819.8" width="36.4" height="18.2"/>
		<rect x="91.1" y="783.4" width="18.2" height="18.2"/>
		<rect x="0.1" y="765.1" width="109.3" height="18.2"/>
		<rect x="18.3" y="746.9" width="18.2" height="18.2"/>
		<rect x="36.5" y="728.7" width="36.4" height="18.2"/>
		<rect x="54.7" y="746.9" width="36.4" height="18.2"/>
		<rect x="36.5" y="710.5" width="18.2" height="18.2"/>
		<rect x="2844.8" y="801.6" width="18.2" height="18.2"/>
		<rect x="2790.1" y="801.6" width="18.2" height="18.2"/>
		<rect x="2771.9" y="783.4" width="18.2" height="18.2"/>
		<rect x="2808.3" y="819.8" width="36.4" height="18.2"/>
		<rect x="2863" y="783.4" width="18.2" height="18.2"/>
		<rect x="2771.9" y="765.1" width="109.3" height="18.2"/>
		<rect x="2790.1" y="746.9" width="18.2" height="18.2"/>
		<rect x="2808.3" y="728.7" width="36.4" height="18.2"/>
		<rect x="2826.6" y="746.9" width="36.4" height="18.2"/>
		<rect x="2771.9" y="728.7" width="18.2" height="18.2"/>
		<rect x="2790.1" y="109.2" width="18.2" height="619.5"/>
		<rect x="2826.6" y="109.2" width="18.2" height="619.5"/>
		<rect x="2844.8" y="72.7" width="18.2" height="18.2"/>
		<rect x="2790.1" y="72.7" width="18.2" height="18.2"/>
		<rect x="2771.9" y="54.5" width="18.2" height="18.2"/>
		<rect x="2808.4" y="91" width="36.4" height="18.2"/>
		<rect x="2863" y="54.5" width="18.2" height="18.2"/>
		<rect x="2771.9" y="36.3" width="109.3" height="18.2"/>
		<rect x="2790.1" y="18.1" width="18.2" height="18.2"/>
		<rect x="2808.4" y="-0.2" width="36.4" height="18.2"/>
		<rect x="2826.6" y="18.1" width="36.4" height="18.2"/>
		<rect x="2771.9" y="91" width="18.2" height="18.2"/>
		<rect x="2753.7" y="72.7" width="18.2" height="18.2"/>
		<rect x="109.3" y="54.5" width="2644.4" height="36.5"/>
		<rect x="109.3" y="18.1" width="2662.5" height="18.2"/>
		<rect x="127.5" y="783.3" width="2626.2" height="36.5"/>
		<rect x="109.3" y="747" width="2662.5" height="18.2"/>
		<rect x="109.3" y="801.7" width="18.2" height="18.2"/>
		<rect x="2753.7" y="801.6" width="18.2" height="18.2"/>
	</g>
</g>
</svg>
