<?xml version="1.0" encoding="utf-8"?>
<!-- Generator: Adobe Illustrator 23.0.5, SVG Export Plug-In . SVG Version: 6.00 Build 0)  -->
<svg version="1.1" id="Layer_4" xmlns="http://www.w3.org/2000/svg" xmlns:xlink="http://www.w3.org/1999/xlink" x="0px" y="0px"
	 viewBox="0 0 160 144" style="enable-background:new 0 0 160 144;" xml:space="preserve">
<style type="text/css">
	.st0{fill:none;}
</style>
<g>
	<polygon class="st0" points="96,77 97,77 98,77 99,77 100,77 101,77 102,77 103,77 104,77 105,77 106,77 107,77 108,77 109,77 
		110,77 111,77 112,77 113,77 114,77 115,77 116,77 117,77 118,77 119,77 120,77 121,77 122,77 123,77 124,77 125,77 126,77 127,77 
		128,77 129,77 130,77 131,77 132,77 133,77 134,77 135,77 136,77 137,77 138,77 139,77 140,77 141,77 142,77 143,77 144,77 144,76 
		144,75 143,75 142,75 141,75 140,75 139,75 138,75 137,75 136,75 135,75 134,75 133,75 132,75 131,75 130,75 129,75 128,75 127,75 
		126,75 125,75 124,75 123,75 122,75 121,75 120,75 119,75 118,75 117,75 116,75 115,75 114,75 113,75 112,75 111,75 110,75 109,75 
		108,75 107,75 106,75 105,75 104,75 103,75 102,75 101,75 100,75 99,75 98,75 97,75 96,75 96,76 	"/>
	<rect x="88" y="75" class="st0" width="1" height="1"/>
	<rect x="148" y="91" width="1" height="1"/>
	<rect x="148" y="90" width="1" height="1"/>
	<rect x="148" y="89" width="1" height="1"/>
	<rect x="148" y="88" width="1" height="1"/>
	<rect x="148" y="87" width="1" height="1"/>
	<rect x="148" y="86" width="1" height="1"/>
	<rect x="148" y="85" width="1" height="1"/>
	<rect x="148" y="84" width="1" height="1"/>
	<rect x="148" y="83" width="1" height="1"/>
	<rect x="148" y="82" width="1" height="1"/>
	<rect x="148" y="81" width="1" height="1"/>
	<rect x="148" y="80" width="1" height="1"/>
	<rect x="148" y="79" width="1" height="1"/>
	<rect x="148" y="78" width="1" height="1"/>
	<rect x="148" y="77" width="1" height="1"/>
	<rect x="148" y="76" width="1" height="1"/>
	<rect x="148" y="75" width="1" height="1"/>
	<rect x="148" y="74" width="1" height="1"/>
	<rect x="148" y="73" width="1" height="1"/>
	<rect x="148" y="72" width="1" height="1"/>
	<rect x="147" y="92" width="1" height="1"/>
	<rect x="147" y="91" width="1" height="1"/>
	<rect x="147" y="90" width="1" height="1"/>
	<rect x="147" y="89" width="1" height="1"/>
	<rect x="147" y="88" width="1" height="1"/>
	<rect x="147" y="87" width="1" height="1"/>
	<rect x="147" y="86" width="1" height="1"/>
	<rect x="147" y="85" width="1" height="1"/>
	<rect x="147" y="84" width="1" height="1"/>
	<rect x="147" y="83" width="1" height="1"/>
	<rect x="147" y="82" width="1" height="1"/>
	<rect x="147" y="81" width="1" height="1"/>
	<rect x="147" y="80" width="1" height="1"/>
	<rect x="147" y="79" width="1" height="1"/>
	<rect x="147" y="78" width="1" height="1"/>
	<rect x="147" y="77" width="1" height="1"/>
	<rect x="147" y="76" width="1" height="1"/>
	<rect x="147" y="75" width="1" height="1"/>
	<rect x="147" y="74" width="1" height="1"/>
	<rect x="147" y="73" width="1" height="1"/>
	<rect x="147" y="72" width="1" height="1"/>
	<rect x="146" y="92" width="1" height="1"/>
	<rect x="146" y="91" width="1" height="1"/>
	<rect x="145" y="92" width="1" height="1"/>
	<rect x="145" y="91" width="1" height="1"/>
	<rect x="144" y="92" width="1" height="1"/>
	<rect x="144" y="91" width="1" height="1"/>
	<rect x="144" y="76" width="1" height="1"/>
	<rect x="144" y="75" width="1" height="1"/>
	<rect x="143" y="92" width="1" height="1"/>
	<rect x="143" y="91" width="1" height="1"/>
	<rect x="143" y="77" width="1" height="1"/>
	<rect x="143" y="74" width="1" height="1"/>
	<rect x="142" y="92" width="1" height="1"/>
	<rect x="142" y="91" width="1" height="1"/>
	<rect x="142" y="77" width="1" height="1"/>
	<rect x="142" y="74" width="1" height="1"/>
	<rect x="141" y="92" width="1" height="1"/>
	<rect x="141" y="91" width="1" height="1"/>
	<rect x="141" y="77" width="1" height="1"/>
	<rect x="141" y="74" width="1" height="1"/>
	<rect x="140" y="92" width="1" height="1"/>
	<rect x="140" y="91" width="1" height="1"/>
	<rect x="140" y="77" width="1" height="1"/>
	<rect x="140" y="74" width="1" height="1"/>
	<rect x="139" y="92" width="1" height="1"/>
	<rect x="139" y="91" width="1" height="1"/>
	<rect x="139" y="77" width="1" height="1"/>
	<rect x="139" y="74" width="1" height="1"/>
	<rect x="138" y="92" width="1" height="1"/>
	<rect x="138" y="91" width="1" height="1"/>
	<rect x="138" y="77" width="1" height="1"/>
	<rect x="138" y="74" width="1" height="1"/>
	<rect x="137" y="92" width="1" height="1"/>
	<rect x="137" y="91" width="1" height="1"/>
	<rect x="137" y="77" width="1" height="1"/>
	<rect x="137" y="74" width="1" height="1"/>
	<rect x="136" y="92" width="1" height="1"/>
	<rect x="136" y="91" width="1" height="1"/>
	<rect x="136" y="77" width="1" height="1"/>
	<rect x="136" y="74" width="1" height="1"/>
	<rect x="135" y="92" width="1" height="1"/>
	<rect x="135" y="91" width="1" height="1"/>
	<rect x="135" y="77" width="1" height="1"/>
	<rect x="135" y="74" width="1" height="1"/>
	<rect x="134" y="92" width="1" height="1"/>
	<rect x="134" y="91" width="1" height="1"/>
	<rect x="134" y="77" width="1" height="1"/>
	<rect x="134" y="74" width="1" height="1"/>
	<rect x="133" y="92" width="1" height="1"/>
	<rect x="133" y="91" width="1" height="1"/>
	<rect x="133" y="77" width="1" height="1"/>
	<rect x="133" y="74" width="1" height="1"/>
	<rect x="132" y="92" width="1" height="1"/>
	<rect x="132" y="91" width="1" height="1"/>
	<rect x="132" y="77" width="1" height="1"/>
	<rect x="132" y="74" width="1" height="1"/>
	<rect x="131" y="92" width="1" height="1"/>
	<rect x="131" y="91" width="1" height="1"/>
	<rect x="131" y="77" width="1" height="1"/>
	<rect x="131" y="74" width="1" height="1"/>
	<rect x="130" y="92" width="1" height="1"/>
	<rect x="130" y="91" width="1" height="1"/>
	<rect x="130" y="77" width="1" height="1"/>
	<rect x="130" y="74" width="1" height="1"/>
	<rect x="129" y="92" width="1" height="1"/>
	<rect x="129" y="91" width="1" height="1"/>
	<rect x="129" y="77" width="1" height="1"/>
	<rect x="129" y="74" width="1" height="1"/>
	<rect x="128" y="92" width="1" height="1"/>
	<rect x="128" y="91" width="1" height="1"/>
	<rect x="128" y="77" width="1" height="1"/>
	<rect x="128" y="74" width="1" height="1"/>
	<rect x="127" y="92" width="1" height="1"/>
	<rect x="127" y="91" width="1" height="1"/>
	<rect x="127" y="77" width="1" height="1"/>
	<rect x="127" y="74" width="1" height="1"/>
	<rect x="126" y="92" width="1" height="1"/>
	<rect x="126" y="91" width="1" height="1"/>
	<rect x="126" y="77" width="1" height="1"/>
	<rect x="126" y="74" width="1" height="1"/>
	<rect x="125" y="92" width="1" height="1"/>
	<rect x="125" y="91" width="1" height="1"/>
	<rect x="125" y="77" width="1" height="1"/>
	<rect x="125" y="74" width="1" height="1"/>
	<rect x="124" y="92" width="1" height="1"/>
	<rect x="124" y="91" width="1" height="1"/>
	<rect x="124" y="77" width="1" height="1"/>
	<rect x="124" y="74" width="1" height="1"/>
	<rect x="123" y="92" width="1" height="1"/>
	<rect x="123" y="91" width="1" height="1"/>
	<rect x="123" y="77" width="1" height="1"/>
	<rect x="123" y="74" width="1" height="1"/>
	<rect x="122" y="92" width="1" height="1"/>
	<rect x="122" y="91" width="1" height="1"/>
	<rect x="122" y="77" width="1" height="1"/>
	<rect x="122" y="74" width="1" height="1"/>
	<rect x="121" y="92" width="1" height="1"/>
	<rect x="121" y="91" width="1" height="1"/>
	<rect x="121" y="77" width="1" height="1"/>
	<rect x="121" y="74" width="1" height="1"/>
	<rect x="120" y="92" width="1" height="1"/>
	<rect x="120" y="91" width="1" height="1"/>
	<rect x="120" y="77" width="1" height="1"/>
	<rect x="120" y="74" width="1" height="1"/>
	<rect x="119" y="92" width="1" height="1"/>
	<rect x="119" y="91" width="1" height="1"/>
	<rect x="119" y="77" width="1" height="1"/>
	<rect x="119" y="74" width="1" height="1"/>
	<rect x="118" y="92" width="1" height="1"/>
	<rect x="118" y="91" width="1" height="1"/>
	<rect x="118" y="77" width="1" height="1"/>
	<rect x="118" y="74" width="1" height="1"/>
	<rect x="118" y="70" width="1" height="1"/>
	<rect x="117" y="92" width="1" height="1"/>
	<rect x="117" y="91" width="1" height="1"/>
	<rect x="117" y="77" width="1" height="1"/>
	<rect x="117" y="74" width="1" height="1"/>
	<rect x="117" y="70" width="1" height="1"/>
	<rect x="116" y="92" width="1" height="1"/>
	<rect x="116" y="91" width="1" height="1"/>
	<rect x="116" y="77" width="1" height="1"/>
	<rect x="116" y="74" width="1" height="1"/>
	<rect x="116" y="70" width="1" height="1"/>
	<rect x="116" y="69" width="1" height="1"/>
	<rect x="116" y="68" width="1" height="1"/>
	<rect x="116" y="67" width="1" height="1"/>
	<rect x="116" y="66" width="1" height="1"/>
	<rect x="115" y="92" width="1" height="1"/>
	<rect x="115" y="91" width="1" height="1"/>
	<rect x="115" y="77" width="1" height="1"/>
	<rect x="115" y="74" width="1" height="1"/>
	<rect x="115" y="70" width="1" height="1"/>
	<rect x="115" y="69" width="1" height="1"/>
	<rect x="115" y="68" width="1" height="1"/>
	<rect x="115" y="67" width="1" height="1"/>
	<rect x="115" y="66" width="1" height="1"/>
	<rect x="114" y="92" width="1" height="1"/>
	<rect x="114" y="91" width="1" height="1"/>
	<rect x="114" y="77" width="1" height="1"/>
	<rect x="114" y="74" width="1" height="1"/>
	<rect x="113" y="92" width="1" height="1"/>
	<rect x="113" y="91" width="1" height="1"/>
	<rect x="113" y="77" width="1" height="1"/>
	<rect x="113" y="74" width="1" height="1"/>
	<rect x="113" y="69" width="1" height="1"/>
	<rect x="113" y="67" width="1" height="1"/>
	<rect x="112" y="92" width="1" height="1"/>
	<rect x="112" y="91" width="1" height="1"/>
	<rect x="112" y="77" width="1" height="1"/>
	<rect x="112" y="74" width="1" height="1"/>
	<rect x="111" y="92" width="1" height="1"/>
	<rect x="111" y="91" width="1" height="1"/>
	<rect x="111" y="77" width="1" height="1"/>
	<rect x="111" y="74" width="1" height="1"/>
	<rect x="110" y="92" width="1" height="1"/>
	<rect x="110" y="91" width="1" height="1"/>
	<rect x="110" y="77" width="1" height="1"/>
	<rect x="110" y="74" width="1" height="1"/>
	<rect x="109" y="92" width="1" height="1"/>
	<rect x="109" y="91" width="1" height="1"/>
	<rect x="109" y="77" width="1" height="1"/>
	<rect x="109" y="74" width="1" height="1"/>
	<rect x="108" y="92" width="1" height="1"/>
	<rect x="108" y="91" width="1" height="1"/>
	<rect x="108" y="77" width="1" height="1"/>
	<rect x="108" y="74" width="1" height="1"/>
	<rect x="107" y="92" width="1" height="1"/>
	<rect x="107" y="91" width="1" height="1"/>
	<rect x="107" y="77" width="1" height="1"/>
	<rect x="107" y="74" width="1" height="1"/>
	<rect x="106" y="92" width="1" height="1"/>
	<rect x="106" y="91" width="1" height="1"/>
	<rect x="106" y="77" width="1" height="1"/>
	<rect x="106" y="74" width="1" height="1"/>
	<rect x="105" y="92" width="1" height="1"/>
	<rect x="105" y="91" width="1" height="1"/>
	<rect x="105" y="77" width="1" height="1"/>
	<rect x="105" y="74" width="1" height="1"/>
	<rect x="104" y="92" width="1" height="1"/>
	<rect x="104" y="91" width="1" height="1"/>
	<rect x="104" y="77" width="1" height="1"/>
	<rect x="104" y="74" width="1" height="1"/>
	<rect x="103" y="92" width="1" height="1"/>
	<rect x="103" y="91" width="1" height="1"/>
	<rect x="103" y="77" width="1" height="1"/>
	<rect x="103" y="74" width="1" height="1"/>
	<rect x="102" y="92" width="1" height="1"/>
	<rect x="102" y="91" width="1" height="1"/>
	<rect x="102" y="77" width="1" height="1"/>
	<rect x="102" y="74" width="1" height="1"/>
	<rect x="101" y="92" width="1" height="1"/>
	<rect x="101" y="91" width="1" height="1"/>
	<rect x="101" y="77" width="1" height="1"/>
	<rect x="101" y="74" width="1" height="1"/>
	<rect x="100" y="92" width="1" height="1"/>
	<rect x="100" y="91" width="1" height="1"/>
	<rect x="100" y="77" width="1" height="1"/>
	<rect x="100" y="74" width="1" height="1"/>
	<rect x="99" y="92" width="1" height="1"/>
	<rect x="99" y="91" width="1" height="1"/>
	<rect x="99" y="77" width="1" height="1"/>
	<rect x="99" y="74" width="1" height="1"/>
	<rect x="98" y="92" width="1" height="1"/>
	<rect x="98" y="91" width="1" height="1"/>
	<rect x="98" y="77" width="1" height="1"/>
	<rect x="98" y="74" width="1" height="1"/>
	<rect x="97" y="92" width="1" height="1"/>
	<rect x="97" y="91" width="1" height="1"/>
	<rect x="97" y="77" width="1" height="1"/>
	<rect x="97" y="74" width="1" height="1"/>
	<rect x="96" y="92" width="1" height="1"/>
	<rect x="96" y="91" width="1" height="1"/>
	<rect x="96" y="77" width="1" height="1"/>
	<rect x="96" y="74" width="1" height="1"/>
	<rect x="95" y="92" width="1" height="1"/>
	<rect x="95" y="91" width="1" height="1"/>
	<rect x="95" y="76" width="1" height="1"/>
	<rect x="95" y="75" width="1" height="1"/>
	<rect x="94" y="92" width="1" height="1"/>
	<rect x="94" y="91" width="1" height="1"/>
	<rect x="93" y="92" width="1" height="1"/>
	<rect x="93" y="91" width="1" height="1"/>
	<rect x="92" y="92" width="1" height="1"/>
	<rect x="92" y="91" width="1" height="1"/>
	<rect x="91" y="92" width="1" height="1"/>
	<rect x="91" y="91" width="1" height="1"/>
	<rect x="91" y="77" width="1" height="1"/>
	<rect x="91" y="75" width="1" height="1"/>
	<rect x="90" y="92" width="1" height="1"/>
	<rect x="90" y="91" width="1" height="1"/>
	<rect x="89" y="92" width="1" height="1"/>
	<rect x="89" y="91" width="1" height="1"/>
	<rect x="89" y="76" width="1" height="1"/>
	<rect x="89" y="75" width="1" height="1"/>
	<rect x="89" y="74" width="1" height="1"/>
	<rect x="88" y="92" width="1" height="1"/>
	<rect x="88" y="91" width="1" height="1"/>
	<rect x="88" y="76" width="1" height="1"/>
	<rect x="88" y="74" width="1" height="1"/>
	<rect x="87" y="92" width="1" height="1"/>
	<rect x="87" y="91" width="1" height="1"/>
	<rect x="87" y="77" width="1" height="1"/>
	<rect x="87" y="76" width="1" height="1"/>
	<rect x="87" y="75" width="1" height="1"/>
	<rect x="87" y="74" width="1" height="1"/>
	<rect x="86" y="92" width="1" height="1"/>
	<rect x="86" y="91" width="1" height="1"/>
	<rect x="86" y="77" width="1" height="1"/>
	<rect x="86" y="76" width="1" height="1"/>
	<rect x="86" y="75" width="1" height="1"/>
	<rect x="86" y="74" width="1" height="1"/>
	<rect x="85" y="92" width="1" height="1"/>
	<rect x="85" y="91" width="1" height="1"/>
	<rect x="84" y="92" width="1" height="1"/>
	<rect x="84" y="91" width="1" height="1"/>
	<rect x="84" y="77" width="1" height="1"/>
	<rect x="84" y="76" width="1" height="1"/>
	<rect x="84" y="75" width="1" height="1"/>
	<rect x="84" y="74" width="1" height="1"/>
	<rect x="83" y="92" width="1" height="1"/>
	<rect x="83" y="91" width="1" height="1"/>
	<rect x="83" y="76" width="1" height="1"/>
	<rect x="82" y="92" width="1" height="1"/>
	<rect x="82" y="91" width="1" height="1"/>
	<rect x="82" y="77" width="1" height="1"/>
	<rect x="82" y="76" width="1" height="1"/>
	<rect x="82" y="75" width="1" height="1"/>
	<rect x="82" y="74" width="1" height="1"/>
	<rect x="81" y="92" width="1" height="1"/>
	<rect x="81" y="91" width="1" height="1"/>
	<rect x="81" y="77" width="1" height="1"/>
	<rect x="81" y="76" width="1" height="1"/>
	<rect x="81" y="75" width="1" height="1"/>
	<rect x="81" y="74" width="1" height="1"/>
	<rect x="80" y="92" width="1" height="1"/>
	<rect x="80" y="91" width="1" height="1"/>
	<rect x="79" y="92" width="1" height="1"/>
	<rect x="79" y="91" width="1" height="1"/>
	<rect x="79" y="90" width="1" height="1"/>
	<rect x="79" y="89" width="1" height="1"/>
	<rect x="78" y="92" width="1" height="1"/>
	<rect x="78" y="91" width="1" height="1"/>
	<rect x="78" y="90" width="1" height="1"/>
	<rect x="78" y="89" width="1" height="1"/>
	<rect x="77" y="92" width="1" height="1"/>
	<rect x="77" y="91" width="1" height="1"/>
	<rect x="77" y="90" width="1" height="1"/>
	<rect x="76" y="92" width="1" height="1"/>
	<rect x="76" y="91" width="1" height="1"/>
	<rect x="76" y="90" width="1" height="1"/>
	<rect x="75" y="92" width="1" height="1"/>
	<rect x="75" y="91" width="1" height="1"/>
	<rect x="74" y="92" width="1" height="1"/>
	<rect x="74" y="91" width="1" height="1"/>
	<rect x="73" y="92" width="1" height="1"/>
	<rect x="72" y="92" width="1" height="1"/>
</g>
</svg>
