<?xml version="1.0" encoding="utf-8"?>
<!-- Generator: Adobe Illustrator 23.0.5, SVG Export Plug-In . SVG Version: 6.00 Build 0)  -->
<svg version="1.1" id="Layer_1" xmlns="http://www.w3.org/2000/svg" xmlns:xlink="http://www.w3.org/1999/xlink" x="0px" y="0px"
	 viewBox="0 0 800 212.2" style="enable-background:new 0 0 800 212.2;" xml:space="preserve">
<style type="text/css">
	.st0{fill:#FFFFFF;}
	.st1{display:none;}
</style>
<polygon class="st0" points="800,0 800,55 799.5,55 799.5,212.5 1.5,212.5 1.5,55 0,55 0,-0.5 218,-0.5 218,55 654,55 654,0 "/>
<g class="st1">
	
		<image style="display:inline;overflow:visible;enable-background:new    ;" width="2036" height="540" xlink:href="1C20B3D0FAC0F5A6.png"  transform="matrix(0.3929 0 0 0.3929 0 0)">
	</image>
</g>
<g>
	<polygon points="699.5,-0.5 699.5,182.5 691,182.5 691,192 1,192 1,182 18,182 18,174 36,174 36,164 54,164 54,155 72,155 72,173 
		681.5,173 681.5,-0.5 	"/>
	<rect x="218" y="19" width="436" height="9"/>
	<rect x="218" y="46" width="436" height="9"/>
	<rect x="654" y="28" width="9" height="18"/>
	<rect x="209" y="28" width="9" height="18"/>
	<rect x="172" y="28" width="9" height="9"/>
	<rect x="172" y="46" width="9" height="9"/>
	<polygon points="118,19 118,55 109,55 109,46 99,46 99,55 81,55 81,19 99,19 99,37 109,37 109,19 	"/>
	<path d="M127,19v36h18v-9h18V19H127z M145,37v-9h9v9H145z"/>
</g>
</svg>
