<?xml version="1.0" encoding="utf-8"?>
<!-- Generator: Adobe Illustrator 23.0.5, SVG Export Plug-In . SVG Version: 6.00 Build 0)  -->
<svg version="1.1" id="Layer_3" xmlns="http://www.w3.org/2000/svg" xmlns:xlink="http://www.w3.org/1999/xlink" x="0px" y="0px"
	 viewBox="0 0 160 144" style="enable-background:new 0 0 160 144;" xml:space="preserve">
<style type="text/css">
	.st0{opacity:0.59;fill:none;stroke:#000000;stroke-width:2;stroke-miterlimit:10;enable-background:new    ;}
	.st1{fill:none;}
	.st2{fill:#FFFFFF;}
</style>
<path class="st0" d="M12,27"/>
<path class="st0" d="M12,16"/>
<rect x="36" y="136" class="st1" width="1" height="1"/>
<rect x="83" y="66" class="st1" width="1" height="1"/>
<polygon class="st1" points="85,68 84,68 83,68 82,68 82,69 83,69 83,70 84,70 85,70 85,69 86,69 86,68 "/>
<rect x="37" y="137" class="st1" width="1" height="1"/>
<rect x="80" y="68" class="st1" width="1" height="1"/>
<polygon class="st1" points="36,135 36,134 36,133 36,132 36,131 36,130 36,129 36,128 36,127 36,126 36,125 36,124 36,123 36,122 
	36,121 36,120 36,119 36,118 36,117 36,116 36,115 36,114 36,113 36,112 36,111 36,110 36,109 36,108 36,107 36,106 36,105 36,104 
	35,104 35,105 35,106 35,107 35,108 35,109 35,110 35,111 35,112 35,113 35,114 35,115 35,116 35,117 35,118 35,119 35,120 35,121 
	35,122 35,123 35,124 35,125 35,126 35,127 35,128 35,129 35,130 35,131 35,132 35,133 35,134 35,135 35,136 36,136 "/>
<polygon class="st1" points="84,73 84,72 84,71 83,71 83,72 83,73 83,74 84,74 "/>
<polygon class="st1" points="83,79 83,80 83,81 83,82 83,83 83,84 83,85 83,86 84,86 84,85 84,84 84,83 84,82 84,81 84,80 84,79 
	84,78 83,78 "/>
<rect x="3" y="66" class="st1" width="1" height="1"/>
<polygon class="st1" points="10,67 10,68 8,68 8,69 7,69 7,67 "/>
<rect x="4" y="71" class="st1" width="1" height="1"/>
<rect x="81" y="69" class="st1" width="1" height="1"/>
<rect x="5" y="70" class="st1" width="1" height="1"/>
<polygon class="st1" points="3,74 3,75 3,76 3,77 3,78 3,79 3,80 3,81 3,82 3,83 3,84 3,85 3,86 3,87 3,88 3,89 3,90 3,91 3,92 
	3,93 3,94 3,95 3,96 4,96 4,95 4,94 4,93 4,92 4,91 4,90 4,89 4,88 4,87 4,86 4,85 4,84 4,83 4,82 4,81 4,80 4,79 4,78 4,77 4,76 
	4,75 4,74 4,73 4,72 3,72 3,73 "/>
<polygon class="st1" points="5,70 5,69 6,69 6,68 5,68 4,68 3,68 2,68 2,69 3,69 3,70 4,70 "/>
<rect x="6" y="69" class="st1" width="1" height="1"/>
<rect x="82" y="70" class="st1" width="1" height="1"/>
<rect x="85" y="90.7" class="st2" width="3" height="3.5"/>
<rect x="36" y="142" width="1" height="1"/>
<rect x="35" y="142" width="1" height="1"/>
<rect x="37" y="141" width="1" height="1"/>
<rect x="34" y="141" width="1" height="1"/>
<rect x="38" y="140" width="1" height="1"/>
<rect x="33" y="140" width="1" height="1"/>
<rect x="38" y="139" width="1" height="1"/>
<rect x="36" y="139" width="1" height="1"/>
<rect x="37" y="139" width="1" height="1"/>
<rect x="34" y="139" width="1" height="1"/>
<rect x="33" y="139" width="1" height="1"/>
<rect x="35" y="139" width="1" height="1"/>
<rect x="36" y="138" width="1" height="1"/>
<rect x="37" y="138" width="1" height="1"/>
<rect x="34" y="138" width="1" height="1"/>
<rect x="36" y="137" width="1" height="1"/>
<rect x="35" y="137" width="1" height="1"/>
<rect x="38" y="137" width="1" height="1"/>
<rect x="37" y="136" width="1" height="1"/>
<rect x="35" y="136" width="1" height="1"/>
<rect x="36" y="135" width="1" height="1"/>
<rect x="36" y="134" width="1" height="1"/>
<rect x="36" y="133" width="1" height="1"/>
<rect x="36" y="132" width="1" height="1"/>
<rect x="36" y="131" width="1" height="1"/>
<rect x="36" y="130" width="1" height="1"/>
<rect x="36" y="129" width="1" height="1"/>
<rect x="36" y="128" width="1" height="1"/>
<rect x="36" y="127" width="1" height="1"/>
<rect x="36" y="126" width="1" height="1"/>
<rect x="36" y="125" width="1" height="1"/>
<rect x="36" y="124" width="1" height="1"/>
<rect x="36" y="123" width="1" height="1"/>
<rect x="34" y="135" width="1" height="1"/>
<rect x="34" y="134" width="1" height="1"/>
<rect x="34" y="133" width="1" height="1"/>
<rect x="34" y="132" width="1" height="1"/>
<rect x="34" y="131" width="1" height="1"/>
<rect x="34" y="130" width="1" height="1"/>
<rect x="34" y="129" width="1" height="1"/>
<rect x="34" y="128" width="1" height="1"/>
<rect x="34" y="127" width="1" height="1"/>
<rect x="34" y="126" width="1" height="1"/>
<rect x="34" y="125" width="1" height="1"/>
<rect x="34" y="124" width="1" height="1"/>
<rect x="34" y="123" width="1" height="1"/>
<rect x="34" y="122" width="1" height="1"/>
<rect x="34" y="121" width="1" height="1"/>
<rect x="34" y="120" width="1" height="1"/>
<rect x="34" y="119" width="1" height="1"/>
<rect x="34" y="118" width="1" height="1"/>
<rect x="34" y="117" width="1" height="1"/>
<rect x="36" y="122" width="1" height="1"/>
<rect x="36" y="121" width="1" height="1"/>
<rect x="36" y="120" width="1" height="1"/>
<rect x="36" y="119" width="1" height="1"/>
<rect x="36" y="118" width="1" height="1"/>
<rect x="36" y="117" width="1" height="1"/>
<rect x="36" y="116" width="1" height="1"/>
<rect x="36" y="115" width="1" height="1"/>
<rect x="36" y="114" width="1" height="1"/>
<rect x="36" y="113" width="1" height="1"/>
<rect x="36" y="112" width="1" height="1"/>
<rect x="36" y="111" width="1" height="1"/>
<rect x="36" y="110" width="1" height="1"/>
<rect x="36" y="109" width="1" height="1"/>
<rect x="36" y="108" width="1" height="1"/>
<rect x="36" y="107" width="1" height="1"/>
<rect x="36" y="106" width="1" height="1"/>
<rect x="36" y="105" width="1" height="1"/>
<rect x="36" y="104" width="1" height="1"/>
<rect x="34" y="116" width="1" height="1"/>
<rect x="34" y="115" width="1" height="1"/>
<rect x="34" y="114" width="1" height="1"/>
<rect x="34" y="113" width="1" height="1"/>
<rect x="34" y="112" width="1" height="1"/>
<rect x="34" y="111" width="1" height="1"/>
<rect x="34" y="110" width="1" height="1"/>
<rect x="34" y="109" width="1" height="1"/>
<rect x="34" y="108" width="1" height="1"/>
<rect x="34" y="107" width="1" height="1"/>
<rect x="34" y="106" width="1" height="1"/>
<rect x="34" y="105" width="1" height="1"/>
<rect x="34" y="104" width="1" height="1"/>
<polygon class="st2" points="88,100 88,102 86,102 86,101 87,101 87,100 "/>
<rect x="86" y="100" width="1" height="1"/>
<rect x="86" y="99" width="1" height="1"/>
<rect x="86" y="98" class="st2" width="2" height="1"/>
<rect x="86" y="68" width="1" height="1"/>
<rect x="86" y="67" width="1" height="1"/>
<rect x="85" y="101" width="1" height="1"/>
<rect x="85" y="99" width="1" height="1"/>
<rect x="85" y="98" width="1" height="1"/>
<rect x="85" y="73.3" class="st2" width="3" height="5.3"/>
<rect x="85" y="69" width="1" height="1"/>
<rect x="85" y="67" width="1" height="1"/>
<rect x="85" y="66" width="1" height="1"/>
<rect x="84" y="99" width="1" height="1"/>
<rect x="84" y="98" width="1" height="1"/>
<rect x="84" y="97" width="1" height="1"/>
<rect x="84" y="96" width="1" height="1"/>
<rect x="84" y="95" width="1" height="1"/>
<rect x="84" y="94" width="1" height="1"/>
<rect x="84" y="93" width="1" height="1"/>
<rect x="84" y="92" width="1" height="1"/>
<rect x="84" y="91" width="1" height="1"/>
<rect x="84" y="90" width="1" height="1"/>
<rect x="84" y="89" width="1" height="1"/>
<rect x="84" y="88" width="1" height="1"/>
<rect x="84" y="87" width="1" height="1"/>
<rect x="84" y="86" width="1" height="1"/>
<rect x="84" y="85" width="1" height="1"/>
<rect x="84" y="84" width="1" height="1"/>
<rect x="84" y="83" width="1" height="1"/>
<rect x="84" y="82" width="1" height="1"/>
<rect x="84" y="81" width="1" height="1"/>
<rect x="84" y="80" width="1" height="1"/>
<rect x="84" y="79" width="1" height="1"/>
<rect x="84" y="78" width="1" height="1"/>
<rect x="84" y="77" width="1" height="1"/>
<rect x="84" y="76" width="1" height="1"/>
<rect x="84" y="75" width="1" height="1"/>
<rect x="84" y="74" width="1" height="1"/>
<rect x="84" y="73" width="1" height="1"/>
<rect x="84" y="72" width="1" height="1"/>
<rect x="84" y="71" width="1" height="1"/>
<rect x="84" y="70" width="1" height="1"/>
<rect x="84" y="67" width="1" height="1"/>
<rect x="84" y="66" width="1" height="1"/>
<rect x="84" y="65" width="1" height="1"/>
<rect x="83" y="99" width="1" height="1"/>
<rect x="83" y="98" class="st2" width="1" height="1"/>
<rect x="83" y="97" width="1" height="1"/>
<rect x="83" y="86" class="st2" width="1" height="11"/>
<rect x="83" y="73.3" class="st2" width="1" height="5.4"/>
<rect x="83" y="70" width="1" height="1"/>
<rect x="83" y="67" width="1" height="1"/>
<rect x="83" y="65" width="1" height="1"/>
<rect x="82" y="101" width="1" height="1"/>
<polygon class="st2" points="86,100 86,101 85,101 85,102 83,102 83,101 82,101 82,100 "/>
<rect x="82" y="99" width="1" height="1"/>
<rect x="82" y="98" width="1" height="1"/>
<rect x="82" y="97" class="st2" width="1" height="1"/>
<rect x="82" y="96" width="1" height="1"/>
<rect x="82" y="95" width="1" height="1"/>
<rect x="82" y="94" width="1" height="1"/>
<rect x="82" y="93" width="1" height="1"/>
<rect x="82" y="92" width="1" height="1"/>
<rect x="82" y="91" width="1" height="1"/>
<rect x="82" y="90" width="1" height="1"/>
<rect x="82" y="89" width="1" height="1"/>
<rect x="82" y="88" width="1" height="1"/>
<rect x="82" y="87" width="1" height="1"/>
<rect x="82" y="86" width="1" height="1"/>
<rect x="82" y="85" width="1" height="1"/>
<rect x="82" y="84" width="1" height="1"/>
<rect x="82" y="83" width="1" height="1"/>
<rect x="82" y="82" width="1" height="1"/>
<rect x="82" y="81" width="1" height="1"/>
<rect x="82" y="80" width="1" height="1"/>
<rect x="82" y="79" width="1" height="1"/>
<rect x="82" y="78" width="1" height="1"/>
<rect x="82" y="77" width="1" height="1"/>
<rect x="82" y="76" width="1" height="1"/>
<rect x="82" y="75" width="1" height="1"/>
<rect x="82" y="74" width="1" height="1"/>
<rect x="82" y="73" width="1" height="1"/>
<rect x="82" y="72" width="1" height="1"/>
<rect x="82" y="71" width="1" height="1"/>
<rect x="82" y="69" width="1" height="1"/>
<rect x="82" y="67" width="1" height="1"/>
<rect x="82" y="66" width="1" height="1"/>
<rect x="81" y="101" class="st2" width="1" height="1"/>
<rect x="81" y="100" width="1" height="1"/>
<rect x="81" y="99" width="1" height="1"/>
<rect x="81" y="98" class="st2" width="1" height="1"/>
<rect x="81" y="97" width="1" height="1"/>
<rect x="72" y="89" class="st2" width="10" height="6.3"/>
<rect x="81" y="73.3" class="st2" width="1" height="5.3"/>
<rect x="81" y="70" width="1" height="1"/>
<rect x="81" y="68" width="1" height="1"/>
<rect x="81" y="67" width="1" height="1"/>
<rect x="80" y="99" class="st2" width="1" height="2"/>
<rect x="80" y="69" width="1" height="1"/>
<rect x="80" y="66" width="1" height="1"/>
<rect x="79" y="69" width="1" height="1"/>
<rect x="79" y="68" width="1" height="1"/>
<rect x="79" y="66" width="1" height="1"/>
<rect x="78" y="69" width="1" height="1"/>
<rect x="78" y="68" width="1" height="1"/>
<rect x="78" y="66" width="1" height="1"/>
<rect x="77" y="69" width="1" height="1"/>
<rect x="77" y="68" width="1" height="1"/>
<rect x="77" y="66" width="1" height="1"/>
<rect x="76" y="69" width="1" height="1"/>
<rect x="76" y="68" width="1" height="1"/>
<rect x="76" y="66" width="1" height="1"/>
<rect x="75" y="69" width="1" height="1"/>
<rect x="75" y="68" width="1" height="1"/>
<rect x="75" y="66" width="1" height="1"/>
<rect x="74" y="69" width="1" height="1"/>
<rect x="74" y="68" width="1" height="1"/>
<rect x="74" y="66" width="1" height="1"/>
<rect x="73" y="69" width="1" height="1"/>
<rect x="73" y="68" width="1" height="1"/>
<rect x="73" y="66" width="1" height="1"/>
<rect x="72" y="69" width="1" height="1"/>
<rect x="72" y="68" width="1" height="1"/>
<rect x="72" y="66" width="1" height="1"/>
<rect x="71" y="69" width="1" height="1"/>
<rect x="71" y="68" width="1" height="1"/>
<rect x="71" y="66" width="1" height="1"/>
<rect x="70" y="69" width="1" height="1"/>
<rect x="70" y="68" width="1" height="1"/>
<rect x="70" y="66" width="1" height="1"/>
<rect x="69" y="69" width="1" height="1"/>
<rect x="69" y="68" width="1" height="1"/>
<rect x="69" y="66" width="1" height="1"/>
<rect x="68" y="69" width="1" height="1"/>
<rect x="68" y="68" width="1" height="1"/>
<rect x="68" y="66" width="1" height="1"/>
<rect x="67" y="69" width="1" height="1"/>
<rect x="67" y="68" width="1" height="1"/>
<rect x="67" y="66" width="1" height="1"/>
<rect x="66" y="69" width="1" height="1"/>
<rect x="66" y="68" width="1" height="1"/>
<rect x="66" y="66" width="1" height="1"/>
<rect x="65" y="69" width="1" height="1"/>
<rect x="65" y="68" width="1" height="1"/>
<rect x="65" y="66" width="1" height="1"/>
<rect x="64" y="69" width="1" height="1"/>
<rect x="64" y="68" width="1" height="1"/>
<rect x="64" y="66" width="1" height="1"/>
<rect x="63" y="69" width="1" height="1"/>
<rect x="63" y="68" width="1" height="1"/>
<rect x="63" y="66" width="1" height="1"/>
<rect x="62" y="69" width="1" height="1"/>
<rect x="62" y="68" width="1" height="1"/>
<rect x="62" y="66" width="1" height="1"/>
<rect x="61" y="69" width="1" height="1"/>
<rect x="61" y="68" width="1" height="1"/>
<rect x="61" y="66" width="1" height="1"/>
<rect x="60" y="69" width="1" height="1"/>
<rect x="60" y="68" width="1" height="1"/>
<rect x="60" y="66" width="1" height="1"/>
<rect x="59" y="69" width="1" height="1"/>
<rect x="59" y="68" width="1" height="1"/>
<rect x="59" y="66" width="1" height="1"/>
<rect x="58" y="69" width="1" height="1"/>
<rect x="58" y="68" width="1" height="1"/>
<rect x="58" y="66" width="1" height="1"/>
<rect x="57" y="69" width="1" height="1"/>
<rect x="57" y="68" width="1" height="1"/>
<rect x="57" y="66" width="1" height="1"/>
<rect x="56" y="69" width="1" height="1"/>
<rect x="56" y="68" width="1" height="1"/>
<rect x="56" y="66" width="1" height="1"/>
<rect x="55" y="69" width="1" height="1"/>
<rect x="55" y="68" width="1" height="1"/>
<rect x="55" y="66" width="1" height="1"/>
<rect x="54" y="69" width="1" height="1"/>
<rect x="54" y="68" width="1" height="1"/>
<rect x="54" y="66" width="1" height="1"/>
<rect x="53" y="69" width="1" height="1"/>
<rect x="53" y="68" width="1" height="1"/>
<rect x="53" y="66" width="1" height="1"/>
<rect x="52" y="69" width="1" height="1"/>
<rect x="52" y="68" width="1" height="1"/>
<rect x="52" y="66" width="1" height="1"/>
<rect x="51" y="69" width="1" height="1"/>
<rect x="51" y="68" width="1" height="1"/>
<rect x="51" y="66" width="1" height="1"/>
<rect x="50" y="69" width="1" height="1"/>
<rect x="50" y="68" width="1" height="1"/>
<rect x="50" y="66" width="1" height="1"/>
<rect x="49" y="69" width="1" height="1"/>
<rect x="49" y="68" width="1" height="1"/>
<rect x="49" y="66" width="1" height="1"/>
<rect x="48" y="69" width="1" height="1"/>
<rect x="48" y="68" width="1" height="1"/>
<rect x="48" y="66" width="1" height="1"/>
<rect x="47" y="69" width="1" height="1"/>
<rect x="47" y="68" width="1" height="1"/>
<rect x="47" y="66" width="1" height="1"/>
<rect x="46" y="69" width="1" height="1"/>
<rect x="46" y="68" width="1" height="1"/>
<rect x="46" y="66" width="1" height="1"/>
<rect x="45" y="69" width="1" height="1"/>
<rect x="45" y="68" width="1" height="1"/>
<rect x="45" y="66" width="1" height="1"/>
<rect x="44" y="69" width="1" height="1"/>
<rect x="44" y="68" width="1" height="1"/>
<rect x="44" y="66" width="1" height="1"/>
<rect x="43" y="69" width="1" height="1"/>
<rect x="43" y="68" width="1" height="1"/>
<rect x="43" y="66" width="1" height="1"/>
<rect x="42" y="69" width="1" height="1"/>
<rect x="42" y="68" width="1" height="1"/>
<rect x="42" y="66" width="1" height="1"/>
<rect x="41" y="69" width="1" height="1"/>
<rect x="41" y="68" width="1" height="1"/>
<rect x="41" y="66" width="1" height="1"/>
<rect x="40" y="69" width="1" height="1"/>
<rect x="40" y="68" width="1" height="1"/>
<rect x="40" y="66" width="1" height="1"/>
<rect x="39" y="140" class="st2" width="1" height="1"/>
<rect x="39" y="69" width="1" height="1"/>
<rect x="39" y="68" width="1" height="1"/>
<rect x="39" y="66" width="1" height="1"/>
<rect x="38" y="141" class="st2" width="1" height="1"/>
<rect x="38" y="138" class="st2" width="1" height="1"/>
<rect x="38" y="69" width="1" height="1"/>
<rect x="38" y="68" width="1" height="1"/>
<rect x="38" y="66" width="1" height="1"/>
<rect x="37" y="69" width="1" height="1"/>
<rect x="37" y="68" width="1" height="1"/>
<rect x="37" y="66" width="1" height="1"/>
<rect x="36" y="69" width="1" height="1"/>
<rect x="36" y="68" width="1" height="1"/>
<rect x="36" y="66" width="1" height="1"/>
<rect x="35" y="138" class="st2" width="1" height="1"/>
<rect x="35" y="69" width="1" height="1"/>
<rect x="35" y="68" width="1" height="1"/>
<rect x="35" y="66" width="1" height="1"/>
<polygon class="st2" points="38,140 38,141 37,141 37,142 35,142 35,141 34,141 34,140 "/>
<rect x="34" y="102" class="st2" width="3" height="2"/>
<rect x="34" y="69" width="1" height="1"/>
<rect x="34" y="68" width="1" height="1"/>
<rect x="34" y="66" width="1" height="1"/>
<polygon class="st2" points="33,141 34,141 34,142 32,142 32,138 34,138 34,139 33,139 "/>
<rect x="33" y="69" width="1" height="1"/>
<rect x="33" y="68" width="1" height="1"/>
<rect x="33" y="66" width="1" height="1"/>
<rect x="32" y="69" width="1" height="1"/>
<rect x="32" y="68" width="1" height="1"/>
<rect x="32" y="66" width="1" height="1"/>
<rect x="31" y="69" width="1" height="1"/>
<rect x="31" y="68" width="1" height="1"/>
<rect x="31" y="66" width="1" height="1"/>
<rect x="30" y="69" width="1" height="1"/>
<rect x="30" y="68" width="1" height="1"/>
<rect x="30" y="66" width="1" height="1"/>
<rect x="29" y="69" width="1" height="1"/>
<rect x="29" y="68" width="1" height="1"/>
<rect x="29" y="66" width="1" height="1"/>
<rect x="28" y="69" width="1" height="1"/>
<rect x="28" y="68" width="1" height="1"/>
<rect x="28" y="66" width="1" height="1"/>
<rect x="27" y="69" width="1" height="1"/>
<rect x="27" y="68" width="1" height="1"/>
<rect x="27" y="66" width="1" height="1"/>
<rect x="26" y="69" width="1" height="1"/>
<rect x="26" y="68" width="1" height="1"/>
<rect x="26" y="66" width="1" height="1"/>
<rect x="25" y="69" width="1" height="1"/>
<rect x="25" y="68" width="1" height="1"/>
<rect x="25" y="66" width="1" height="1"/>
<rect x="24" y="69" width="1" height="1"/>
<rect x="24" y="68" width="1" height="1"/>
<rect x="24" y="66" width="1" height="1"/>
<rect x="23" y="69" width="1" height="1"/>
<rect x="23" y="68" width="1" height="1"/>
<rect x="23" y="66" width="1" height="1"/>
<rect x="22" y="69" width="1" height="1"/>
<rect x="22" y="68" width="1" height="1"/>
<rect x="22" y="66" width="1" height="1"/>
<rect x="21" y="69" width="1" height="1"/>
<rect x="21" y="68" width="1" height="1"/>
<rect x="21" y="66" width="1" height="1"/>
<rect x="20" y="69" width="1" height="1"/>
<rect x="20" y="68" width="1" height="1"/>
<rect x="20" y="66" width="1" height="1"/>
<rect x="19" y="69" width="1" height="1"/>
<rect x="19" y="68" width="1" height="1"/>
<rect x="19" y="66" width="1" height="1"/>
<rect x="18" y="69" width="1" height="1"/>
<rect x="18" y="68" width="1" height="1"/>
<rect x="18" y="66" width="1" height="1"/>
<rect x="17" y="69" width="1" height="1"/>
<rect x="17" y="68" width="1" height="1"/>
<rect x="17" y="66" width="1" height="1"/>
<rect x="16" y="69" width="1" height="1"/>
<rect x="16" y="68" width="1" height="1"/>
<rect x="16" y="66" width="1" height="1"/>
<rect x="15" y="69" width="1" height="1"/>
<rect x="15" y="68" width="1" height="1"/>
<rect x="15" y="66" width="1" height="1"/>
<rect x="14" y="69" width="1" height="1"/>
<rect x="14" y="68" width="1" height="1"/>
<rect x="14" y="66" width="1" height="1"/>
<rect x="13" y="69" width="1" height="1"/>
<rect x="13" y="68" width="1" height="1"/>
<rect x="13" y="66" width="1" height="1"/>
<rect x="12" y="69" width="1" height="1"/>
<rect x="12" y="68" width="1" height="1"/>
<rect x="12" y="66" width="1" height="1"/>
<rect x="11" y="69" width="1" height="1"/>
<rect x="11" y="68" width="1" height="1"/>
<rect x="11" y="66" width="1" height="1"/>
<rect x="10" y="69" width="1" height="1"/>
<rect x="10" y="68" width="1" height="1"/>
<rect x="10" y="67" class="st2" width="71" height="1"/>
<rect x="10" y="66" width="1" height="1"/>
<rect x="9" y="69" width="1" height="1"/>
<rect x="9" y="68" width="1" height="1"/>
<rect x="9" y="66" width="1" height="1"/>
<rect x="8" y="69" width="1" height="1"/>
<rect x="8" y="68" width="1" height="1"/>
<rect x="8" y="66" width="1" height="1"/>
<rect x="7" y="99" class="st2" width="1" height="2"/>
<rect x="7" y="98" width="1" height="1"/>
<rect x="7" y="69" width="1" height="1"/>
<rect x="7" y="66" width="1" height="1"/>
<rect x="6" y="101" class="st2" width="1" height="1"/>
<rect x="6" y="100" width="1" height="1"/>
<rect x="6" y="99" width="1" height="1"/>
<rect x="6" y="98" class="st2" width="1" height="1"/>
<rect x="6" y="97" width="1" height="1"/>
<rect x="6" y="70" width="1" height="1"/>
<rect x="6" y="68" width="1" height="1"/>
<rect x="6" y="67" width="1" height="1"/>
<rect x="5" y="101" width="1" height="1"/>
<rect x="5" y="99" width="1" height="1"/>
<rect x="5" y="98" width="1" height="1"/>
<rect x="5" y="97" class="st2" width="1" height="1"/>
<rect x="5" y="96" width="1" height="1"/>
<rect x="5" y="71" width="1" height="1"/>
<rect x="5" y="69" width="1" height="1"/>
<rect x="5" y="67" width="1" height="1"/>
<rect x="5" y="66" width="1" height="1"/>
<polygon class="st2" points="5,103 5,104 1,104 1,101 2,101 2,102 3,102 3,103 "/>
<rect x="4" y="102" width="1" height="1"/>
<rect x="4" y="99" width="1" height="1"/>
<rect x="4" y="98" width="1" height="1"/>
<rect x="4" y="97" width="1" height="1"/>
<rect x="4" y="96" class="st2" width="1" height="1"/>
<rect x="4" y="95" width="1" height="1"/>
<rect x="4" y="94" width="1" height="1"/>
<rect x="4" y="93" width="1" height="1"/>
<rect x="4" y="92" width="1" height="1"/>
<rect x="4" y="91" width="1" height="1"/>
<rect x="4" y="90" width="1" height="1"/>
<rect x="4" y="89" width="1" height="1"/>
<rect x="4" y="88" width="1" height="1"/>
<rect x="4" y="87" width="1" height="1"/>
<rect x="4" y="86" width="1" height="1"/>
<rect x="4" y="85" width="1" height="1"/>
<rect x="4" y="84" width="1" height="1"/>
<rect x="4" y="83" width="1" height="1"/>
<rect x="4" y="82" width="1" height="1"/>
<rect x="4" y="81" width="1" height="1"/>
<rect x="4" y="80" width="1" height="1"/>
<rect x="4" y="79" width="1" height="1"/>
<rect x="4" y="78" width="1" height="1"/>
<rect x="4" y="77" width="1" height="1"/>
<rect x="4" y="76" width="1" height="1"/>
<rect x="4" y="75" width="1" height="1"/>
<rect x="4" y="74" width="1" height="1"/>
<rect x="4" y="73" width="1" height="1"/>
<rect x="4" y="72" width="1" height="1"/>
<rect x="4" y="70" width="1" height="1"/>
<rect x="4" y="67" width="1" height="1"/>
<rect x="4" y="66" width="1" height="1"/>
<rect x="4" y="65" width="1" height="1"/>
<rect x="3" y="102" width="1" height="1"/>
<rect x="3" y="99" width="1" height="1"/>
<rect x="3" y="98" class="st2" width="1" height="1"/>
<rect x="3" y="97" width="1" height="1"/>
<rect x="3" y="96" width="1" height="1"/>
<rect x="3" y="71" width="1" height="1"/>
<rect x="3" y="70" width="1" height="1"/>
<rect x="3" y="67" width="1" height="1"/>
<rect x="3" y="65" width="1" height="1"/>
<rect x="2" y="101" width="1" height="1"/>
<polygon class="st2" points="6,100 6,101 5,101 5,102 3,102 3,101 2,101 2,100 "/>
<rect x="2" y="99" width="1" height="1"/>
<rect x="2" y="98" width="1" height="1"/>
<rect x="2" y="95" width="1" height="1"/>
<rect x="2" y="94" width="1" height="1"/>
<rect x="2" y="93" width="1" height="1"/>
<rect x="2" y="92" width="1" height="1"/>
<rect x="2" y="91" width="1" height="1"/>
<rect x="2" y="90" width="1" height="1"/>
<rect x="2" y="89" width="1" height="1"/>
<rect x="2" y="88" width="1" height="1"/>
<rect x="2" y="87" width="1" height="1"/>
<rect x="2" y="86" width="1" height="1"/>
<rect x="2" y="85" width="1" height="1"/>
<rect x="2" y="84" width="1" height="1"/>
<rect x="2" y="83" width="1" height="1"/>
<rect x="2" y="82" width="1" height="1"/>
<rect x="2" y="81" width="1" height="1"/>
<rect x="2" y="80" width="1" height="1"/>
<rect x="2" y="79" width="1" height="1"/>
<rect x="2" y="78" width="1" height="1"/>
<rect x="2" y="77" width="1" height="1"/>
<rect x="2" y="76" width="1" height="1"/>
<rect x="2" y="75" width="1" height="1"/>
<rect x="2" y="74" width="1" height="1"/>
<rect x="2" y="73" width="1" height="1"/>
<rect x="2" y="72" width="1" height="1"/>
<rect x="2" y="69" width="1" height="1"/>
<rect x="2" y="67" width="1" height="1"/>
<rect x="2" y="66" width="1" height="1"/>
<rect x="1" y="100" width="1" height="1"/>
<rect x="1" y="99" width="1" height="1"/>
<polygon class="st2" points="3,96 3,98 2,98 2,99 1,99 1,96 "/>
<rect x="1" y="68" width="1" height="1"/>
<rect x="1" y="67" width="1" height="1"/>
<rect x="84" y="102" width="1" height="1"/>
<rect x="83" y="102" width="1" height="1"/>
</svg>
