<?xml version="1.0" encoding="utf-8"?>
<!-- Generator: Adobe Illustrator 23.0.5, SVG Export Plug-In . SVG Version: 6.00 Build 0)  -->
<svg version="1.1" xmlns="http://www.w3.org/2000/svg" xmlns:xlink="http://www.w3.org/1999/xlink" x="0px" y="0px"
	 viewBox="0 0 2883.5 1425.1" style="enable-background:new 0 0 2883.5 1425.1;" xml:space="preserve">
<style type="text/css">
	.st0{fill:#FFFFFF;}
	.st1{display:none;}
	.st2{fill:#FFFFFF;stroke:#FFFFFF;stroke-miterlimit:10;}
</style>
<g id="Layer_4">
	<rect x="567.7" y="584.4" class="st0" width="2315.8" height="840.7"/>
</g>
<g id="Layer_1">
	<g class="st1">
		
			<image style="display:inline;overflow:visible;enable-background:new    ;" width="2115" height="615" xlink:href="F3AA335574C9ECB0.png"  transform="matrix(1.3623 0 0 1.3623 0.5 587.0214)">
		</image>
	</g>
	<g>
		<g>
			<rect x="2845.3" y="1388.6" width="18.2" height="18.2"/>
			<rect x="2790.6" y="1388.6" width="18.2" height="18.2"/>
			<rect x="2772.4" y="1370.4" width="18.2" height="18.2"/>
			<rect x="2808.8" y="1406.8" width="36.4" height="18.2"/>
			<rect x="2863.5" y="1370.4" width="18.2" height="18.2"/>
			<rect x="2772.4" y="1352.1" width="109.3" height="18.2"/>
			<rect x="2790.6" y="1333.9" width="18.2" height="18.2"/>
			<rect x="2808.8" y="1315.7" width="36.4" height="18.2"/>
			<rect x="2827.1" y="1333.9" width="36.4" height="18.2"/>
			<rect x="2772.4" y="1315.7" width="18.2" height="18.2"/>
			<rect x="2790.6" y="696.2" width="18.2" height="619.5"/>
			<rect x="2827.1" y="696.2" width="18.2" height="619.5"/>
			<rect x="2845.3" y="659.7" width="18.2" height="18.2"/>
			<rect x="2790.6" y="659.7" width="18.2" height="18.2"/>
			<rect x="2772.4" y="641.5" width="18.2" height="18.2"/>
			<rect x="2808.9" y="678" width="36.4" height="18.2"/>
			<rect x="2863.5" y="641.5" width="18.2" height="18.2"/>
			<rect x="2772.4" y="623.3" width="109.3" height="18.2"/>
			<rect x="2790.6" y="605.1" width="18.2" height="18.2"/>
			<rect x="2808.9" y="586.8" width="36.4" height="18.2"/>
			<rect x="2827.1" y="605.1" width="36.4" height="18.2"/>
			<rect x="2772.4" y="678" width="18.2" height="18.2"/>
			<rect x="2754.2" y="659.7" width="18.2" height="18.2"/>
			<rect x="693" y="641.4" width="2065.2" height="36.5"/>
			<rect x="693" y="605" width="2079.3" height="18.2"/>
			<rect x="711.3" y="1370.2" width="2046.9" height="36.5"/>
			<rect x="693.1" y="1333.8" width="2079.2" height="18.2"/>
			<rect x="2754.2" y="1388.6" width="18.2" height="18.2"/>
		</g>
	</g>
	<g>
		<rect x="656.6" y="696" width="18.2" height="18.2"/>
		<rect x="674.8" y="677.8" width="18.2" height="18.2"/>
		<rect x="656.6" y="659.5" width="18.2" height="18.2"/>
		<rect x="602" y="659.5" width="18.2" height="18.2"/>
		<rect x="583.7" y="641.3" width="18.2" height="18.2"/>
		<rect x="620.2" y="696" width="18.2" height="18.2"/>
		<rect x="620.2" y="677.8" width="36.4" height="18.2"/>
		<rect x="674.8" y="641.3" width="18.2" height="18.2"/>
		<rect x="583.7" y="623.1" width="109.3" height="18.2"/>
		<rect x="602" y="604.9" width="18.2" height="18.2"/>
		<rect x="620.2" y="586.6" width="36.4" height="18.2"/>
		<rect x="638.4" y="604.9" width="36.4" height="18.2"/>
		<rect x="602" y="714.2" width="18.2" height="583.1"/>
		<rect x="638.4" y="714.2" width="18.2" height="583.1"/>
		<rect x="656.6" y="1388.4" width="18.2" height="18.2"/>
		<rect x="602" y="1388.4" width="18.2" height="18.2"/>
		<rect x="583.8" y="1370.2" width="18.2" height="18.2"/>
		<rect x="620.2" y="1406.6" width="36.4" height="18.2"/>
		<rect x="674.8" y="1370.2" width="18.2" height="18.2"/>
		<rect x="583.8" y="1351.9" width="109.3" height="18.2"/>
		<rect x="602" y="1333.7" width="18.2" height="18.2"/>
		<rect x="620.2" y="1315.5" width="36.4" height="18.2"/>
		<rect x="638.4" y="1333.7" width="36.4" height="18.2"/>
		<rect x="620.2" y="1297.3" width="18.2" height="18.2"/>
		<rect x="693" y="1388.5" width="18.2" height="18.2"/>
	</g>
</g>
<g id="Layer_3">
	<rect x="0.5" y="0.5" class="st2" width="1586.6" height="713.5"/>
	<rect x="73.1" y="75.4" width="18.2" height="18.2"/>
	<rect x="18.5" y="75.4" width="18.2" height="18.2"/>
	<rect x="0.2" y="57.2" width="18.2" height="18.2"/>
	<rect x="36.7" y="93.7" width="36.4" height="18.2"/>
	<rect x="91.3" y="57.2" width="18.2" height="18.2"/>
	<rect x="0.2" y="39" width="109.3" height="18.2"/>
	<rect x="18.5" y="20.8" width="18.2" height="18.2"/>
	<rect x="36.7" y="2.5" width="36.4" height="18.2"/>
	<rect x="54.9" y="20.8" width="36.4" height="18.2"/>
	<rect x="1532.3" y="75.4" width="18.2" height="18.2"/>
	<rect x="1477.7" y="75.4" width="18.2" height="18.2"/>
	<rect x="1459.4" y="57.2" width="18.2" height="18.2"/>
	<rect x="1495.9" y="93.7" width="36.4" height="18.2"/>
	<rect x="1550.5" y="57.2" width="18.2" height="18.2"/>
	<rect x="1459.4" y="39" width="109.3" height="18.2"/>
	<rect x="1477.7" y="20.8" width="18.2" height="18.2"/>
	<rect x="1495.9" y="2.5" width="36.4" height="18.2"/>
	<rect x="1514.1" y="20.8" width="36.4" height="18.2"/>
	<rect x="91.3" y="93.6" width="18.2" height="18.2"/>
	<rect x="73.1" y="111.8" width="18.2" height="18.2"/>
	<polygon points="1459.4,75.4 1459.4,93.6 1441.2,93.6 1441.2,93.6 109.5,93.6 109.5,75.4 127.7,75.4 127.7,57.2 1441.2,57.2 
		1441.2,75.4 	"/>
	<rect x="109.5" y="20.8" width="1349.8" height="18.2"/>
	<rect x="1459.5" y="93.6" width="18.2" height="18.2"/>
	<rect x="73.4" y="659.1" width="18.2" height="18.2"/>
	<rect x="18.8" y="659.1" width="18.2" height="18.2"/>
	<rect x="0.5" y="640.9" width="18.2" height="18.2"/>
	<rect x="37" y="677.4" width="36.4" height="18.2"/>
	<rect x="91.6" y="640.9" width="18.2" height="18.2"/>
	<rect x="0.5" y="622.7" width="109.3" height="18.2"/>
	<rect x="18.8" y="604.5" width="18.2" height="18.2"/>
	<rect x="37" y="586.2" width="36.4" height="18.2"/>
	<rect x="55.2" y="604.5" width="36.4" height="18.2"/>
	<rect x="1532.6" y="659.1" width="18.2" height="18.2"/>
	<rect x="1478" y="659.1" width="18.2" height="18.2"/>
	<rect x="1459.7" y="640.9" width="18.2" height="18.2"/>
	<rect x="1496.2" y="677.4" width="36.4" height="18.2"/>
	<rect x="1550.8" y="640.9" width="18.2" height="18.2"/>
	<rect x="1459.7" y="622.7" width="109.3" height="18.2"/>
	<rect x="1478" y="604.5" width="18.2" height="18.2"/>
	<rect x="1496.2" y="586.2" width="36.4" height="18.2"/>
	<rect x="1514.4" y="604.5" width="36.4" height="18.2"/>
	<rect x="1459.7" y="586.3" width="18.2" height="18.2"/>
	<polygon points="1459.7,659.1 1459.7,677.3 1441.5,677.3 1441.5,677.3 109.8,677.3 109.8,659.1 128,659.1 128,640.9 1441.5,640.9 
		1441.5,659.1 	"/>
	<rect x="109.8" y="604.5" width="1349.8" height="18.2"/>
	<rect x="91.6" y="586.3" width="18.2" height="18.2"/>
	<rect x="73.4" y="567.7" width="18.2" height="18.2"/>
	<rect x="37" y="567.7" width="18.2" height="18.2"/>
	<rect x="1459.7" y="586.3" width="18.2" height="18.2"/>
	<rect x="36.7" y="111.9" width="18.2" height="18.2"/>
	<rect x="18.5" y="130" width="18.2" height="437.7"/>
	<rect x="54.9" y="130" width="18.2" height="437.7"/>
	<rect x="1478" y="111.9" width="18.2" height="474.3"/>
	<rect x="1514.4" y="111.9" width="18.2" height="474.3"/>
</g>
</svg>
