<svg id="Screen_Border" data-name="Screen Border" xmlns="http://www.w3.org/2000/svg" viewBox="0 0 1016.81 1749.64"><defs><style>.cls-1,.cls-2{fill:#fff;}.cls-2{font-size:27px;font-family:TTNorms-Regular, TT Norms;}.cls-3{letter-spacing:-0.02em;}</style></defs><title>screenborder</title><path d="M927.69,82.63H83.07a31.18,31.18,0,0,0-31.19,31.19v698.6a52.21,52.21,0,0,0,47.31,52c123.39,11.71,258.48,19.16,403.69,19.24,147.14.09,283.91-7.39,408.69-19.24a52.22,52.22,0,0,0,47.31-52V113.82A31.18,31.18,0,0,0,927.69,82.63ZM89.26,342.87a12.9,12.9,0,1,1,12.9-12.9A12.9,12.9,0,0,1,89.26,342.87ZM801.88,688.26a8.37,8.37,0,0,1-8.37,8.37H212.25a8.37,8.37,0,0,1-8.37-8.37V174a8.37,8.37,0,0,1,8.37-8.37H793.51a8.37,8.37,0,0,1,8.37,8.37Z"/><path class="cls-1" d="M178.94,330a14,14,0,0,1-10.61,13.56.8.8,0,0,1-.78-1.31,18.43,18.43,0,0,0,0-24.5.8.8,0,0,1,.78-1.31A14,14,0,0,1,178.94,330Z"/><path class="cls-1" d="M154.09,330c0,6.55-4.86,12-11.4,13.56a.81.81,0,0,1-.85-1.31,17.48,17.48,0,0,0,0-24.5.81.81,0,0,1,.85-1.31C149.23,317.92,154.09,323.42,154.09,330Z"/><path class="cls-1" d="M129,330c0,6.55-4.85,12-11.4,13.56a.81.81,0,0,1-.84-1.31,17.48,17.48,0,0,0,0-24.5.81.81,0,0,1,.84-1.31C124.12,317.92,129,323.42,129,330Z"/><text class="cls-2" transform="translate(76.47 381.7) scale(0.97 1)">P<tspan class="cls-3" x="17.55" y="0">O</tspan><tspan x="39.68" y="0">WER</tspan></text></svg>