<?xml version="1.0" encoding="utf-8"?>
<!-- Generator: Adobe Illustrator 23.0.5, SVG Export Plug-In . SVG Version: 6.00 Build 0)  -->
<svg version="1.1" id="Layer_4" xmlns="http://www.w3.org/2000/svg" xmlns:xlink="http://www.w3.org/1999/xlink" x="0px" y="0px"
	 viewBox="0 0 160 144" style="enable-background:new 0 0 160 144;" xml:space="preserve">
<style type="text/css">
	.st0{fill:none;}
</style>
<g>
	<rect x="24" y="19" class="st0" width="1" height="1"/>
	<polygon class="st0" points="32,21 33,21 34,21 35,21 36,21 37,21 38,21 39,21 40,21 41,21 42,21 43,21 44,21 45,21 46,21 47,21 
		48,21 49,21 50,21 51,21 52,21 53,21 54,21 55,21 56,21 57,21 58,21 59,21 60,21 61,21 62,21 63,21 64,21 65,21 66,21 67,21 68,21 
		69,21 70,21 71,21 72,21 73,21 74,21 75,21 76,21 77,21 78,21 79,21 80,21 80,20 80,19 79,19 78,19 77,19 76,19 75,19 74,19 73,19 
		72,19 71,19 70,19 69,19 68,19 67,19 66,19 65,19 64,19 63,19 62,19 61,19 60,19 59,19 58,19 57,19 56,19 55,19 54,19 53,19 52,19 
		51,19 50,19 49,19 48,19 47,19 46,19 45,19 44,19 43,19 42,19 41,19 40,19 39,19 38,19 37,19 36,19 35,19 34,19 33,19 32,19 32,20 
			"/>
	<rect x="87" y="28" width="1" height="1"/>
	<rect x="86" y="28" width="1" height="1"/>
	<rect x="85" y="28" width="1" height="1"/>
	<rect x="85" y="27" width="1" height="1"/>
	<rect x="84" y="28" width="1" height="1"/>
	<rect x="84" y="27" width="1" height="1"/>
	<rect x="83" y="28" width="1" height="1"/>
	<rect x="83" y="27" width="1" height="1"/>
	<rect x="83" y="26" width="1" height="1"/>
	<rect x="82" y="28" width="1" height="1"/>
	<rect x="82" y="27" width="1" height="1"/>
	<rect x="82" y="26" width="1" height="1"/>
	<rect x="81" y="28" width="1" height="1"/>
	<rect x="81" y="27" width="1" height="1"/>
	<rect x="81" y="26" width="1" height="1"/>
	<rect x="81" y="25" width="1" height="1"/>
	<rect x="80" y="28" width="1" height="1"/>
	<rect x="80" y="27" width="1" height="1"/>
	<rect x="80" y="26" width="1" height="1"/>
	<rect x="80" y="25" width="1" height="1"/>
	<rect x="80" y="20" width="1" height="1"/>
	<rect x="80" y="19" width="1" height="1"/>
	<rect x="79" y="28" width="1" height="1"/>
	<rect x="79" y="27" width="1" height="1"/>
	<rect x="79" y="21" width="1" height="1"/>
	<rect x="79" y="18" width="1" height="1"/>
	<rect x="78" y="28" width="1" height="1"/>
	<rect x="78" y="27" width="1" height="1"/>
	<rect x="78" y="21" width="1" height="1"/>
	<rect x="78" y="18" width="1" height="1"/>
	<rect x="77" y="28" width="1" height="1"/>
	<rect x="77" y="27" width="1" height="1"/>
	<rect x="77" y="21" width="1" height="1"/>
	<rect x="77" y="18" width="1" height="1"/>
	<rect x="76" y="28" width="1" height="1"/>
	<rect x="76" y="27" width="1" height="1"/>
	<rect x="76" y="21" width="1" height="1"/>
	<rect x="76" y="18" width="1" height="1"/>
	<rect x="75" y="28" width="1" height="1"/>
	<rect x="75" y="27" width="1" height="1"/>
	<rect x="75" y="21" width="1" height="1"/>
	<rect x="75" y="18" width="1" height="1"/>
	<rect x="74" y="28" width="1" height="1"/>
	<rect x="74" y="27" width="1" height="1"/>
	<rect x="74" y="21" width="1" height="1"/>
	<rect x="74" y="18" width="1" height="1"/>
	<rect x="73" y="28" width="1" height="1"/>
	<rect x="73" y="27" width="1" height="1"/>
	<rect x="73" y="21" width="1" height="1"/>
	<rect x="73" y="18" width="1" height="1"/>
	<rect x="72" y="28" width="1" height="1"/>
	<rect x="72" y="27" width="1" height="1"/>
	<rect x="72" y="21" width="1" height="1"/>
	<rect x="72" y="18" width="1" height="1"/>
	<rect x="71" y="28" width="1" height="1"/>
	<rect x="71" y="27" width="1" height="1"/>
	<rect x="71" y="21" width="1" height="1"/>
	<rect x="71" y="18" width="1" height="1"/>
	<rect x="70" y="28" width="1" height="1"/>
	<rect x="70" y="27" width="1" height="1"/>
	<rect x="70" y="21" width="1" height="1"/>
	<rect x="70" y="18" width="1" height="1"/>
	<rect x="69" y="28" width="1" height="1"/>
	<rect x="69" y="27" width="1" height="1"/>
	<rect x="69" y="21" width="1" height="1"/>
	<rect x="69" y="18" width="1" height="1"/>
	<rect x="68" y="28" width="1" height="1"/>
	<rect x="68" y="27" width="1" height="1"/>
	<rect x="68" y="21" width="1" height="1"/>
	<rect x="68" y="18" width="1" height="1"/>
	<rect x="67" y="28" width="1" height="1"/>
	<rect x="67" y="27" width="1" height="1"/>
	<rect x="67" y="21" width="1" height="1"/>
	<rect x="67" y="18" width="1" height="1"/>
	<rect x="66" y="28" width="1" height="1"/>
	<rect x="66" y="27" width="1" height="1"/>
	<rect x="66" y="21" width="1" height="1"/>
	<rect x="66" y="18" width="1" height="1"/>
	<rect x="65" y="28" width="1" height="1"/>
	<rect x="65" y="27" width="1" height="1"/>
	<rect x="65" y="21" width="1" height="1"/>
	<rect x="65" y="18" width="1" height="1"/>
	<rect x="64" y="28" width="1" height="1"/>
	<rect x="64" y="27" width="1" height="1"/>
	<rect x="64" y="21" width="1" height="1"/>
	<rect x="64" y="18" width="1" height="1"/>
	<rect x="63" y="28" width="1" height="1"/>
	<rect x="63" y="27" width="1" height="1"/>
	<rect x="63" y="21" width="1" height="1"/>
	<rect x="63" y="18" width="1" height="1"/>
	<rect x="62" y="28" width="1" height="1"/>
	<rect x="62" y="27" width="1" height="1"/>
	<rect x="62" y="21" width="1" height="1"/>
	<rect x="62" y="18" width="1" height="1"/>
	<rect x="61" y="28" width="1" height="1"/>
	<rect x="61" y="27" width="1" height="1"/>
	<rect x="61" y="21" width="1" height="1"/>
	<rect x="61" y="18" width="1" height="1"/>
	<rect x="60" y="28" width="1" height="1"/>
	<rect x="60" y="27" width="1" height="1"/>
	<rect x="60" y="21" width="1" height="1"/>
	<rect x="60" y="18" width="1" height="1"/>
	<rect x="59" y="28" width="1" height="1"/>
	<rect x="59" y="27" width="1" height="1"/>
	<rect x="59" y="21" width="1" height="1"/>
	<rect x="59" y="18" width="1" height="1"/>
	<rect x="58" y="28" width="1" height="1"/>
	<rect x="58" y="27" width="1" height="1"/>
	<rect x="58" y="21" width="1" height="1"/>
	<rect x="58" y="18" width="1" height="1"/>
	<rect x="57" y="28" width="1" height="1"/>
	<rect x="57" y="27" width="1" height="1"/>
	<rect x="57" y="21" width="1" height="1"/>
	<rect x="57" y="18" width="1" height="1"/>
	<rect x="56" y="28" width="1" height="1"/>
	<rect x="56" y="27" width="1" height="1"/>
	<rect x="56" y="21" width="1" height="1"/>
	<rect x="56" y="18" width="1" height="1"/>
	<rect x="55" y="28" width="1" height="1"/>
	<rect x="55" y="27" width="1" height="1"/>
	<rect x="55" y="21" width="1" height="1"/>
	<rect x="55" y="18" width="1" height="1"/>
	<rect x="54" y="28" width="1" height="1"/>
	<rect x="54" y="27" width="1" height="1"/>
	<rect x="54" y="21" width="1" height="1"/>
	<rect x="54" y="18" width="1" height="1"/>
	<rect x="53" y="28" width="1" height="1"/>
	<rect x="53" y="27" width="1" height="1"/>
	<rect x="53" y="21" width="1" height="1"/>
	<rect x="53" y="18" width="1" height="1"/>
	<rect x="52" y="28" width="1" height="1"/>
	<rect x="52" y="27" width="1" height="1"/>
	<rect x="52" y="21" width="1" height="1"/>
	<rect x="52" y="18" width="1" height="1"/>
	<rect x="51" y="28" width="1" height="1"/>
	<rect x="51" y="27" width="1" height="1"/>
	<rect x="51" y="21" width="1" height="1"/>
	<rect x="51" y="18" width="1" height="1"/>
	<rect x="50" y="28" width="1" height="1"/>
	<rect x="50" y="27" width="1" height="1"/>
	<rect x="50" y="21" width="1" height="1"/>
	<rect x="50" y="18" width="1" height="1"/>
	<rect x="49" y="28" width="1" height="1"/>
	<rect x="49" y="27" width="1" height="1"/>
	<rect x="49" y="21" width="1" height="1"/>
	<rect x="49" y="18" width="1" height="1"/>
	<rect x="48" y="28" width="1" height="1"/>
	<rect x="48" y="27" width="1" height="1"/>
	<rect x="48" y="21" width="1" height="1"/>
	<rect x="48" y="18" width="1" height="1"/>
	<rect x="47" y="28" width="1" height="1"/>
	<rect x="47" y="27" width="1" height="1"/>
	<rect x="47" y="21" width="1" height="1"/>
	<rect x="47" y="18" width="1" height="1"/>
	<rect x="46" y="28" width="1" height="1"/>
	<rect x="46" y="27" width="1" height="1"/>
	<rect x="46" y="21" width="1" height="1"/>
	<rect x="46" y="18" width="1" height="1"/>
	<rect x="45" y="28" width="1" height="1"/>
	<rect x="45" y="27" width="1" height="1"/>
	<rect x="45" y="21" width="1" height="1"/>
	<rect x="45" y="18" width="1" height="1"/>
	<rect x="44" y="28" width="1" height="1"/>
	<rect x="44" y="27" width="1" height="1"/>
	<rect x="44" y="21" width="1" height="1"/>
	<rect x="44" y="18" width="1" height="1"/>
	<rect x="43" y="28" width="1" height="1"/>
	<rect x="43" y="27" width="1" height="1"/>
	<rect x="43" y="21" width="1" height="1"/>
	<rect x="43" y="18" width="1" height="1"/>
	<rect x="42" y="28" width="1" height="1"/>
	<rect x="42" y="27" width="1" height="1"/>
	<rect x="42" y="21" width="1" height="1"/>
	<rect x="42" y="18" width="1" height="1"/>
	<rect x="41" y="28" width="1" height="1"/>
	<rect x="41" y="27" width="1" height="1"/>
	<rect x="41" y="21" width="1" height="1"/>
	<rect x="41" y="18" width="1" height="1"/>
	<rect x="40" y="28" width="1" height="1"/>
	<rect x="40" y="27" width="1" height="1"/>
	<rect x="40" y="21" width="1" height="1"/>
	<rect x="40" y="18" width="1" height="1"/>
	<rect x="39" y="28" width="1" height="1"/>
	<rect x="39" y="27" width="1" height="1"/>
	<rect x="39" y="21" width="1" height="1"/>
	<rect x="39" y="18" width="1" height="1"/>
	<rect x="38" y="28" width="1" height="1"/>
	<rect x="38" y="27" width="1" height="1"/>
	<rect x="38" y="21" width="1" height="1"/>
	<rect x="38" y="18" width="1" height="1"/>
	<rect x="38" y="14" width="1" height="1"/>
	<rect x="37" y="28" width="1" height="1"/>
	<rect x="37" y="27" width="1" height="1"/>
	<rect x="37" y="21" width="1" height="1"/>
	<rect x="37" y="18" width="1" height="1"/>
	<rect x="37" y="14" width="1" height="1"/>
	<rect x="36" y="28" width="1" height="1"/>
	<rect x="36" y="27" width="1" height="1"/>
	<rect x="36" y="21" width="1" height="1"/>
	<rect x="36" y="18" width="1" height="1"/>
	<rect x="36" y="14" width="1" height="1"/>
	<rect x="36" y="13" width="1" height="1"/>
	<rect x="36" y="12" width="1" height="1"/>
	<rect x="36" y="11" width="1" height="1"/>
	<rect x="36" y="10" width="1" height="1"/>
	<rect x="35" y="28" width="1" height="1"/>
	<rect x="35" y="27" width="1" height="1"/>
	<rect x="35" y="21" width="1" height="1"/>
	<rect x="35" y="18" width="1" height="1"/>
	<rect x="35" y="14" width="1" height="1"/>
	<rect x="35" y="13" width="1" height="1"/>
	<rect x="35" y="12" width="1" height="1"/>
	<rect x="35" y="11" width="1" height="1"/>
	<rect x="35" y="10" width="1" height="1"/>
	<rect x="34" y="28" width="1" height="1"/>
	<rect x="34" y="27" width="1" height="1"/>
	<rect x="34" y="21" width="1" height="1"/>
	<rect x="34" y="18" width="1" height="1"/>
	<rect x="33" y="28" width="1" height="1"/>
	<rect x="33" y="27" width="1" height="1"/>
	<rect x="33" y="21" width="1" height="1"/>
	<rect x="33" y="18" width="1" height="1"/>
	<rect x="33" y="13" width="1" height="1"/>
	<rect x="33" y="11" width="1" height="1"/>
	<rect x="32" y="28" width="1" height="1"/>
	<rect x="32" y="27" width="1" height="1"/>
	<rect x="32" y="21" width="1" height="1"/>
	<rect x="32" y="18" width="1" height="1"/>
	<rect x="31" y="28" width="1" height="1"/>
	<rect x="31" y="27" width="1" height="1"/>
	<rect x="31" y="20" width="1" height="1"/>
	<rect x="31" y="19" width="1" height="1"/>
	<rect x="30" y="28" width="1" height="1"/>
	<rect x="30" y="27" width="1" height="1"/>
	<rect x="29" y="28" width="1" height="1"/>
	<rect x="29" y="27" width="1" height="1"/>
	<rect x="28" y="28" width="1" height="1"/>
	<rect x="28" y="27" width="1" height="1"/>
	<rect x="27" y="28" width="1" height="1"/>
	<rect x="27" y="27" width="1" height="1"/>
	<rect x="27" y="21" width="1" height="1"/>
	<rect x="27" y="19" width="1" height="1"/>
	<rect x="26" y="28" width="1" height="1"/>
	<rect x="26" y="27" width="1" height="1"/>
	<rect x="25" y="28" width="1" height="1"/>
	<rect x="25" y="27" width="1" height="1"/>
	<rect x="25" y="20" width="1" height="1"/>
	<rect x="25" y="19" width="1" height="1"/>
	<rect x="25" y="18" width="1" height="1"/>
	<rect x="24" y="28" width="1" height="1"/>
	<rect x="24" y="27" width="1" height="1"/>
	<rect x="24" y="20" width="1" height="1"/>
	<rect x="24" y="18" width="1" height="1"/>
	<rect x="23" y="28" width="1" height="1"/>
	<rect x="23" y="27" width="1" height="1"/>
	<rect x="23" y="21" width="1" height="1"/>
	<rect x="23" y="20" width="1" height="1"/>
	<rect x="23" y="19" width="1" height="1"/>
	<rect x="23" y="18" width="1" height="1"/>
	<rect x="22" y="28" width="1" height="1"/>
	<rect x="22" y="27" width="1" height="1"/>
	<rect x="22" y="21" width="1" height="1"/>
	<rect x="22" y="20" width="1" height="1"/>
	<rect x="22" y="19" width="1" height="1"/>
	<rect x="22" y="18" width="1" height="1"/>
	<rect x="21" y="28" width="1" height="1"/>
	<rect x="21" y="27" width="1" height="1"/>
	<rect x="20" y="28" width="1" height="1"/>
	<rect x="20" y="27" width="1" height="1"/>
	<rect x="20" y="21" width="1" height="1"/>
	<rect x="20" y="20" width="1" height="1"/>
	<rect x="20" y="19" width="1" height="1"/>
	<rect x="20" y="18" width="1" height="1"/>
	<rect x="19" y="28" width="1" height="1"/>
	<rect x="19" y="27" width="1" height="1"/>
	<rect x="19" y="20" width="1" height="1"/>
	<rect x="18" y="28" width="1" height="1"/>
	<rect x="18" y="27" width="1" height="1"/>
	<rect x="18" y="21" width="1" height="1"/>
	<rect x="18" y="20" width="1" height="1"/>
	<rect x="18" y="19" width="1" height="1"/>
	<rect x="18" y="18" width="1" height="1"/>
	<rect x="17" y="28" width="1" height="1"/>
	<rect x="17" y="27" width="1" height="1"/>
	<rect x="17" y="21" width="1" height="1"/>
	<rect x="17" y="20" width="1" height="1"/>
	<rect x="17" y="19" width="1" height="1"/>
	<rect x="17" y="18" width="1" height="1"/>
	<rect x="16" y="28" width="1" height="1"/>
	<rect x="16" y="27" width="1" height="1"/>
	<rect x="15" y="28" width="1" height="1"/>
	<rect x="15" y="27" width="1" height="1"/>
	<rect x="14" y="28" width="1" height="1"/>
	<rect x="14" y="27" width="1" height="1"/>
	<rect x="13" y="28" width="1" height="1"/>
	<rect x="13" y="27" width="1" height="1"/>
	<rect x="12" y="28" width="1" height="1"/>
	<rect x="12" y="27" width="1" height="1"/>
	<rect x="12" y="26" width="1" height="1"/>
	<rect x="12" y="25" width="1" height="1"/>
	<rect x="12" y="24" width="1" height="1"/>
	<rect x="12" y="23" width="1" height="1"/>
	<rect x="12" y="22" width="1" height="1"/>
	<rect x="12" y="21" width="1" height="1"/>
	<rect x="12" y="20" width="1" height="1"/>
	<rect x="12" y="19" width="1" height="1"/>
	<rect x="12" y="18" width="1" height="1"/>
	<rect x="12" y="17" width="1" height="1"/>
	<rect x="12" y="16" width="1" height="1"/>
	<rect x="11" y="27" width="1" height="1"/>
	<rect x="11" y="26" width="1" height="1"/>
	<rect x="11" y="25" width="1" height="1"/>
	<rect x="11" y="24" width="1" height="1"/>
	<rect x="11" y="23" width="1" height="1"/>
	<rect x="11" y="22" width="1" height="1"/>
	<rect x="11" y="21" width="1" height="1"/>
	<rect x="11" y="20" width="1" height="1"/>
	<rect x="11" y="19" width="1" height="1"/>
	<rect x="11" y="18" width="1" height="1"/>
	<rect x="11" y="17" width="1" height="1"/>
	<rect x="11" y="16" width="1" height="1"/>
</g>
</svg>
