<?xml version="1.0" encoding="utf-8"?>
<!-- Generator: Adobe Illustrator 23.0.5, SVG Export Plug-In . SVG Version: 6.00 Build 0)  -->
<svg version="1.1" id="Layer_1" xmlns="http://www.w3.org/2000/svg" xmlns:xlink="http://www.w3.org/1999/xlink" x="0px" y="0px"
	 viewBox="0 0 763 114.7" style="enable-background:new 0 0 763 114.7;" xml:space="preserve">
<style type="text/css">
	.st0{fill:#FFFFFF;}
</style>
<rect x="692.6" class="st0" width="70.4" height="114.7"/>
<rect class="st0" width="277.5" height="114.7"/>
<g>
	<polygon points="182.2,19.8 182.2,54.5 173.5,54.5 173.5,45.6 164.9,45.6 164.9,54.5 147.6,54.5 147.6,19.8 164.9,19.8 164.9,37.1 
		173.5,37.1 173.5,19.8 	"/>
	<path d="M190.8,19.8v34.7h17.3v-8.8h17.3V19.8H190.8z M216.7,37.1h-8.6v-8.8h8.6V37.1z"/>
	<rect x="233.9" y="28.4" width="8.8" height="8.8"/>
	<rect x="233.9" y="45.7" width="8.8" height="8.8"/>
	<rect x="268.6" y="28.3" width="8.9" height="17.3"/>
	<rect x="277.5" y="19.8" width="415.1" height="8.5"/>
	<rect x="277.5" y="45.6" width="415.1" height="8.5"/>
	<rect x="692.6" y="28.4" width="8.4" height="17.3"/>
	<polygon points="763,106.1 763,114.7 104.2,114.7 104.2,106 95.6,106 95.6,2.5 112.9,2.5 112.9,97.6 692.6,97.6 692.6,80.4 
		710,80.4 710,88.9 727.2,88.9 727.2,97.6 744.1,97.6 744.1,106.1 	"/>
</g>
</svg>
